<?xml version="1.0" standalone="no"?>
<!DOCTYPE svg PUBLIC "-//W3C//DTD SVG 1.1//EN" "http://www.w3.org/Graphics/SVG/1.1/DTD/svg11.dtd" >
<svg xmlns="http://www.w3.org/2000/svg" xmlns:xlink="http://www.w3.org/1999/xlink" version="1.1">
<metadata>
Created by FontForge 20190801 at Thu Aug 20 03:35:57 2020
 By Jimmy Wärting
Benillia (c) AEN Creative Studio 2020. All Rights Reserved
</metadata>
<defs>
<font id="Benillia" horiz-adv-x="1392" >
  <font-face 
    font-family="Benillia"
    font-weight="400"
    font-stretch="normal"
    units-per-em="2048"
    panose-1="2 0 5 0 0 0 0 0 0 0"
    ascent="1638"
    descent="-410"
    x-height="879"
    cap-height="2789"
    bbox="-1310 -1902 4132 3740"
    underline-thickness="150"
    underline-position="-292"
    unicode-range="U+001D-E225"
  />
<missing-glyph horiz-adv-x="1024" 
d="M100 0v1434h824v-1434h-824zM150 50q177 80 358 80t366 -80v1334q-192 -59 -373 -59t-351 59v-1334zM419 334l57 58q11 10 20 10q10 0 22 -11l56 -60q9 -11 9 -20q0 -11 -10 -22l-56 -62q-14 -14 -21 -14q-11 0 -20 10l-61 71q-7 9 -7 18q0 10 11 22zM413 1191
q53 30 112 30q92 0 148 -47.5t56 -127.5q0 -49 -23 -98.5t-87 -129.5q-63 -80 -99 -132t-36 -99q0 -38 24 -133h-32q-35 97 -35 148q0 76 81.5 218t81.5 217q0 57 -33 90t-91 33q-8 0 -16 -1l32 -51q5 -9 5 -17v-4q-2 -11 -14 -20l-66 -50q-16 -10 -23 -10h-1q-10 2 -17 14
l-47 81q-4 7 -4 14q0 2 1 5q1 10 28.5 32.5t54.5 37.5z" />
    <glyph glyph-name="uniE078" unicode="a__" horiz-adv-x="2171" 
d="M1714 911q-5 0 -11 2v-1q-45 18 -83 57q-59 59 -59 115q0 22 9.5 42t26 30t35.5 10q29 0 59 -25q25 32 59 32q28 0 50 -22q27 -28 27 -64q0 -40 -27 -89q-25 -45 -67 -80q-9 -7 -19 -7zM901 54q-92 0 -152 82q-64 89 -65 298q0 127 33 286q-192 -315 -334 -451t-190 -137
t-51 -1q-87 0 -131 84t-44 211q0 136 45 266t132 214q96 88 223 88q163 0 355 -146q9 16 21.5 40.5t25.5 48.5t24 39q32 41 79 41q15 0 31 -4q39 -14 53 -41.5t14 -50.5q0 -15 -5 -31q-88 -271 -88 -457q1 -198 44 -236.5t79 -38.5q39 0 86 28q92 54 196 178q48 57 100 130
l2 2q-52 108 -52 199t30 150q27 54 66 74q19 10 38 10q88 0 102 -162q58 21 100 21q29 0 50 -10q57 -27 57 -89q0 -40 -29 -83q-34 -51 -111.5 -92t-198.5 -50q-43 -64 -107 -140q-94 -116 -204.5 -190t-163.5 -77t-60 -3zM1875 1256q-12 1 -18 11q-21 36 -21 86q0 67 44 89
q10 5 21 5q21 0 35 -17q11 -11 16 -34l14 2q26 0 39 -19q10 -10 10 -32q0 -48 -68 -77q-33 -13 -72 -14zM1888 1300q23 2 43 10q41 17 41 36q0 8 -2.5 8.5t-4.5 0.5q-7 0 -22 -7q-4 -3 -9 -3q-9 0 -15.5 6t-6.5 15q-1 37 -11 37t-16 -15t-6 -35l1 -15q2 -21 8 -38zM1971 884
q-17 1 -26 15q-30 53 -30 123q0 97 62 127q15 7 31 7q28 0 50 -23q15 -17 22 -49q11 3 21 3q37 0 56 -27q14 -14 14 -43q0 -73 -97 -113q-48 -19 -103 -20zM1990 947q32 3 61 14q58 24 58 53q0 6 -1 8.5t-8 2.5q-10 0 -32 -10q-6 -3 -13 -4q-13 0 -22 8.5t-10 22.5
q-1 52 -14 52q-15 0 -24 -22.5t-9 -53.5l1 -17q3 -30 13 -54zM1708 978q23 23 38 50q19 34 19 58q0 12 -9 22q-2 2 -3.5 3t-2.5 1q-10 0 -25 -32q-6 -18 -27 -18q-14 0 -24 10q-28 32 -45 32q-7 -7 -7 -19q0 -31 42 -73q21 -21 44 -34zM231 258q17 0 38 11q73 40 161 148.5
t160.5 219.5t99.5 157q-121 93 -220 93q-103 0 -179 -85q-75 -88 -103 -196t-28 -181q0 -50 10 -98q19 -69 61 -69z" />
    <glyph glyph-name="uniE079" unicode="b__" horiz-adv-x="2034" 
d="M1578 890q-5 0 -11 2q-45 17 -84 56q-58 60 -58 115q0 51 37 73q14 9 32 9q29 0 60 -24q27 31 59 31q29 0 50 -22q27 -27 27 -63q0 -41 -27 -90q-24 -45 -66 -80q-9 -7 -19 -7zM424 -277q-31 0 -62 7q-117 26 -181.5 104.5t-64.5 167.5q0 137 160 255q140 103 447 163
q-2 65 -14 126q-16 82 -67.5 171.5t-100.5 115t-75 25.5q-50 0 -104 -48q-102 -95 -203 -335q-15 -179 -18 -238q-4 -41 -32 -66.5t-67 -25.5q-41 0 -69 31q-26 29 -26 68q0 41 45 546q115 1306 214 1820q9 40 37 58.5t56 18.5q10 0 21 -2q40 -9 58.5 -37t18.5 -56
q0 -10 -2 -21q-59 -305 -121 -888q-61 -573 -100 -1031q72 133 145 202q140 132 257 132q120 0 203 -109t120 -294q13 -64 17 -132q147 21 151 21q97 13 170 24q-41 95 -41 190q0 78 29 138q27 54 66 74q20 10 38 10q88 0 102 -161q58 20 99 20q30 0 51 -10q57 -27 57 -87
q0 -40 -29 -85q-34 -52 -113 -93t-203 -49q-87 -15 -218 -32q-76 -10 -159 -22q-4 -278 -167 -481q-76 -85 -147 -133q-91 -52 -178 -52zM1739 1235q-12 1 -19 11q-21 37 -21 84q0 69 44 91q11 5 22 5q20 0 34 -17q11 -11 16 -34q10 2 17 2q24 0 37 -18l1 -2q9 -16 9 -28
q0 -52 -69 -80q-33 -13 -71 -14zM1752 1279q23 2 43 10q41 17 41 39q-1 3 -2 4.5t-5 1.5q-7 0 -23 -7q-4 -2 -9 -3q-20 0 -22 22q-1 36 -10 36h-1q-8 0 -15 -15t-7 -34l1 -16q2 -21 9 -38zM1835 863q-18 1 -26 15q-31 52 -31 122q0 98 63 128q15 7 31 7q54 0 72 -72
q12 3 23 3q34 0 53 -27q14 -14 14 -46q0 -71 -97 -110q-47 -19 -102 -20zM1853 926q33 3 61 15q59 23 59 52q0 6 -2 8.5t-7 3.5q-11 0 -33 -11q-6 -3 -13 -3q-13 0 -22 8.5t-9 21.5q-3 52 -15 52h-2q-13 0 -21.5 -21.5t-8.5 -50.5l1 -21q3 -29 12 -54zM1571 957q23 23 38 50
q20 36 20 60q-2 18 -14 23l-2 1q-10 0 -24 -32q-9 -18 -28 -18q-14 0 -24 11q-26 30 -41 31l-2 1q-3 -1 -5.5 -7t-2.5 -13q0 -30 41 -73q21 -21 44 -34zM318 -132q75 0 174 66q52 37 112 102q105 135 117 321q-232 -46 -357 -123.5t-154 -141.5t-29 -102q0 -30 13 -56
q31 -58 74 -62t50 -4z" />
    <glyph glyph-name="uniE080" unicode="c__" horiz-adv-x="1902" 
d="M1446 904q-5 0 -11 2q-45 17 -84 57q-58 60 -58 115q0 50 37 73q14 8 31 8q31 0 62 -24q25 32 59 32q8 0 15 -2l3 -1q18 -6 32 -19q27 -29 27 -64q0 -40 -28 -90q-24 -44 -66 -80q-9 -7 -19 -7zM278 114q-49 0 -94 8q-100 18 -157 100q-60 95 -60 214q0 126 50 255
q53 133 153.5 229.5t161.5 103t70 6.5q101 0 181 -111q6 -9 6 -18q0 -15 -14 -25q-8 -5 -17 -5q-15 0 -25 13q-40 56 -84 56q-9 0 -18 -2q-92 -27 -182 -206q-35 -70 -51 -111q-37 -96 -37 -176q0 -232 224 -232q102 0 224 39q238 77 502 246q-47 103 -47 190q0 93 29 151
q42 84 104 84q88 0 102 -162q59 21 101 21q29 0 50 -10q57 -27 57 -87q0 -104 -143 -178q-80 -42 -206 -49q-3 -5 -8 -8q-246 -160 -521 -261q-202 -75 -351 -75zM1607 1250q-12 0 -18 10q-21 38 -21 84q0 70 43 91q11 5 23 5q38 0 49 -50l15 2q27 0 39 -19l1 -2
q10 -13 10 -30q0 -50 -69 -77q-33 -14 -72 -14zM1620 1294q23 2 43 10q41 17 41 39q0 5 -6 5q-8 0 -23 -7q-5 -2 -9 -2q-20 0 -23 21q0 28 -8 35q-1 2 -2 2q-9 0 -17 -15q-5 -16 -5 -38v-12q2 -21 9 -38zM1703 878q-17 1 -26 15q-30 53 -30 122q0 98 62 127q16 8 32 8
q28 0 48 -23q16 -17 23 -49q11 2 21 2q37 0 55 -26l2 -3q13 -18 13 -44q0 -70 -98 -109q-47 -19 -102 -20zM1722 940q32 4 61 15q59 24 59 52q0 7 -1.5 9.5t-7.5 2.5q-12 0 -34 -11q-6 -3 -13 -3q-13 0 -21.5 8.5t-9.5 21.5q-1 41 -12 51q-1 2 -3 2q-13 0 -22.5 -21.5
t-9.5 -50.5l1 -21q3 -30 13 -55zM1440 972q23 23 37 49q20 37 20 61q-1 18 -14 23q-2 0 -3 -1q-10 -4 -23 -31q-9 -18 -28 -18q-13 0 -24 11q-26 30 -40 32q-10 0 -10 -20q0 -30 40 -72q21 -22 45 -34z" />
    <glyph glyph-name="uniE081" unicode="d__" horiz-adv-x="2051" 
d="M1769 868q22 3 42 11q41 17 41 35q0 6 -0.5 7.5t-5.5 1.5q-8 0 -23 -7q-4 -2 -9 -2q-9 0 -15.5 6t-6.5 15q-2 37 -10 37q-12 0 -17.5 -15.5t-5.5 -34.5q2 -33 10 -54zM1870 515q33 4 61 15q59 23 59 52l-2 10l-8 2q-10 0 -32 -11q-6 -3 -13 -3q-13 0 -22 8.5t-9 21.5
q-2 40 -15 53q-16 0 -24 -21.5t-8 -50.5q2 -50 13 -76zM1588 546q23 23 38 50q19 35 19 58q0 13 -9 22q-2 3 -5 4q-11 0 -26 -32q-6 -18 -28 -18q-13 0 -23 11q-29 32 -44 32q-8 0 -8 -19q0 -30 42 -73q21 -22 44 -35zM269 69q46 0 112 60q178 173 355 642
q-135 164 -256 164q-163 0 -273 -258q-54 -136 -54 -318q0 -69 10 -132q17 -108 51.5 -133t54.5 -25zM922 -297q-28 0 -51 15q-32 21 -42 61q-47 223 -47 537q0 220 14 442q-188 -502 -381 -685q-102 -90 -154 -93t-59 -3q-88 0 -153 72q-70 78 -90 239q-5 46 -5 92
q0 185 74 371q82 190 180.5 241.5t177.5 51.5q54 0 111 -18q139 -46 263 -188q27 75 55 160l88 936q36 368 57 523q7 41 35.5 62.5t62.5 21.5q47 0 74 -36q20 -28 20 -61v-14q-39 -287 -134 -1343q-43 -412 -43 -772q0 -293 42 -495q2 -11 2 -22q0 -27 -14 -50
q-29 -45 -83 -45zM1593 479q-4 0 -9 2q-45 17 -84 56q-59 61 -59 116q0 50 37 72q14 9 32 9q29 0 61 -24q28 32 60 32q7 0 15 -2q1 -1 3 -1q18 -6 31 -20q26 -27 27 -63q0 -40 -27 -90q-25 -44 -67 -80q-10 -7 -20 -7zM1304 32q-22 0 -33 19q-57 112 -58 162.5t-1 55.5
q0 88 30 144q41 85 104 85q87 0 102 -162q57 20 99 20q29 0 51 -10q56 -26 56 -88q0 -40 -28 -83q-34 -53 -114.5 -94.5t-207.5 -48.5zM1756 825q-13 0 -19 10q-21 36 -21 87q0 68 44 88q10 5 21 5q39 0 51 -50l14 2q26 -1 40 -20q9 -14 9 -31q0 -50 -68 -77
q-33 -14 -71 -14zM1852 453q-18 1 -27 15q-31 52 -31 121q0 98 64 128q14 7 29 7q56 0 74 -71q11 2 20 2q37 0 57 -27q13 -22 13 -46q0 -69 -97 -109q-47 -20 -102 -20z" />
    <glyph glyph-name="uniE082" unicode="e__" horiz-adv-x="2038" 
d="M168 511q420 59 537 165q37 34 38 60q0 57 -105 57q-51 0 -116 -16q-97 -24 -188 -77q-132 -78 -166 -189zM1581 904q-5 0 -11 2q-45 17 -83 57q-59 59 -59 115q0 50 37 73q14 8 32 8q30 0 61 -24q25 32 59 32q8 0 15 -2l4 -1q18 -6 31 -19q27 -28 27 -64q0 -40 -27 -90
q-25 -44 -67 -80q-9 -7 -19 -7zM305 -44q-94 0 -171 36q-122 58 -167 245q-13 69 -13 136q0 74 16 145q19 87 55 147q94 150 221 208t244 58q145 0 235 -63q78 -54 78 -129q0 -58 -57 -109q-134 -121 -593 -184q-6 -37 -6 -75q0 -46 9 -92q36 -147 114 -178t143 -31
q55 0 116 15q136 34 277.5 108.5t259.5 158t182 142.5q-49 107 -49 197q0 89 30 148q42 84 104 84q29 0 56 -25q37 -34 46 -137q59 21 100 21q29 0 50 -10q57 -27 57 -89q0 -40 -29 -83q-34 -52 -112.5 -93t-201.5 -49q-70 -70 -231 -183q-144 -101 -315 -187
q-260 -132 -448 -132zM1742 1250q-12 0 -18 10q-21 37 -21 87q0 68 44 88q10 5 22 5q19 0 34 -16q11 -12 16 -34l15 2q25 0 38 -19q11 -10 11 -32q0 -50 -69 -77q-33 -14 -72 -14zM1755 1294q23 2 43 10q41 17 41 36q0 5 -1 6.5t-5 1.5q-7 0 -23 -7q-4 -2 -9 -2
q-9 0 -15.5 6t-6.5 15q-1 37 -11 37t-16 -15t-6 -35l1 -15q2 -21 8 -38zM1838 878q-17 1 -26 15q-30 53 -30 122q0 97 62 127q16 8 32 8q28 0 49 -23q15 -17 22 -49q11 2 21 2q38 0 56 -26l2 -3q12 -19 12 -41q0 -72 -97 -112q-48 -19 -103 -20zM1857 940q32 4 61 15
q58 24 58 52q0 7 -1 9.5t-7 2.5q-11 0 -33 -11q-6 -3 -13 -3q-13 0 -22 8.5t-10 21.5q-1 53 -14 53q-15 0 -23.5 -22.5t-8.5 -53.5v-17q3 -30 13 -55zM1575 972q23 23 38 49q19 35 19 59q0 12 -9 21q-2 3 -5 4q-10 0 -26 -32q-9 -18 -27 -18q-14 0 -24 11q-27 30 -41 32
q-10 0 -10 -20q0 -30 41 -72q21 -22 44 -34z" />
    <glyph glyph-name="uniE083" unicode="f__" horiz-adv-x="1794" 
d="M1337 911q-5 0 -10 2q-46 17 -84 56q-59 61 -59 117q0 21 9.5 40.5t26 29.5t35.5 10q28 0 59 -25q25 32 59 32q28 0 50 -22q27 -28 27 -64q0 -40 -27 -89q-25 -45 -67 -80q-9 -7 -19 -7zM197 -1032q-58 0 -112 36q-84 55 -128 200q-51 196 -51 453q0 292 33 576
q27 240 41 314q60 379 181 649q79 172 168 219t149 47q84 0 182 -54q16 -10 16 -27q0 -8 -4 -15q-10 -16 -27 -16q-8 0 -15 4q-38 20 -71 20q-29 0 -55 -16q-86 -53 -167 -235q-143 -315 -204 -886q100 -27 170 -30t89 -3q372 0 616 289q-52 108 -52 207q0 88 28 143
q43 86 105 86q88 0 102 -162q58 21 100 21q29 0 50 -10q57 -27 57 -89q0 -40 -29 -83q-33 -50 -109.5 -91t-196.5 -50q-1 -5 -5 -8q-264 -314 -670 -314q-102 0 -193 17q318 -244 318 -627q0 -116 -28 -241q-21 -90 -63 -167q-68 -115 -130.5 -136t-94.5 -21zM1499 1256
q-13 1 -19 11q-21 36 -21 86q0 67 44 89q11 5 21 5q40 0 51 -51l14 2q26 0 39 -19q10 -10 10 -32q0 -48 -68 -77q-33 -13 -71 -14zM1512 1300q22 2 42 10q41 17 41 36q0 5 -0.5 7t-6.5 2q-7 0 -22 -7q-4 -3 -9 -3q-9 0 -15.5 6t-6.5 15q-1 37 -10 37q-11 0 -17 -15t-6 -35
q2 -34 10 -53zM1595 884q-18 1 -27 15q-30 53 -30 123q0 97 62 127q15 7 31 7q55 0 73 -72q11 3 21 3q36 0 55 -27q14 -14 14 -46q0 -70 -97 -110q-47 -19 -102 -20zM1613 947q33 3 61 14q59 25 59 56q-3 8 -10 8q-10 0 -32 -10q-6 -3 -13 -4q-13 0 -22 8.5t-9 22.5
q-3 52 -15 52q-15 0 -23.5 -21.5t-8.5 -50.5q2 -50 13 -75zM1331 978q23 23 38 50q19 34 19 58q0 13 -9 22q-3 4 -6 4q-10 0 -25 -32q-6 -18 -27 -18q-14 0 -24 10q-28 32 -45 32q-7 -7 -7 -20q0 -29 42 -72q21 -21 44 -34zM258 -945q55 0 114 108q79 152 79 364
q0 374 -328 612q-3 -27 -10.5 -173t-7.5 -318q0 -229 29 -398q17 -94 50.5 -144.5t73.5 -50.5z" />
    <glyph glyph-name="uniE084" unicode="g__" horiz-adv-x="2120" 
d="M1664 911q-5 0 -11 2v-1q-45 18 -84 57q-58 60 -58 115q0 51 37 73q15 9 34 9q29 0 59 -25q25 32 59 32q15 0 18 -3q18 -6 32 -19q24 -26 27 -61q0 -41 -28 -92q-24 -45 -66 -80q-9 -7 -19 -7zM313 -1447q-186 0 -288 230q-35 82 -35 202q0 180 90 419l1 2
q183 414 540 703q65 52 132 99q31 264 51 455q-194 -349 -337 -490q-140 -138 -198.5 -144t-70.5 -6q-88 0 -145 70q-65 81 -75.5 170.5t-10.5 135.5q0 96 24 202q66 257 173.5 338t212.5 81q47 0 97 -13q164 -42 339 -196l8 15l2 23q5 42 33 65.5t64 23.5q46 0 74 -32
q24 -29 24 -66q0 -31 -54 -500q179 100 361 174q-43 98 -43 181q0 91 29 150q27 54 66 74q20 10 39 10q87 0 101 -162q59 21 101 21q29 0 50 -10q57 -27 57 -87q0 -104 -144 -178q-81 -42 -208 -49q-8 0 -16 -4q-203 -81 -402 -196q-26 -238 -88 -748q-28 -232 -41 -323
q-35 -219 -133.5 -374t-201 -210.5t-178.5 -55.5zM1825 1256q-12 1 -18 11q-21 37 -21 83q0 69 43 92q11 5 22 5q20 0 35 -17q10 -11 15 -34q10 2 18 2q23 0 36 -19l1 -2q9 -14 10 -30q0 -48 -69 -77q-33 -13 -72 -14zM1838 1300q23 2 43 10q41 17 41 39q0 5 -2.5 5.5
t-4.5 0.5q-8 0 -22 -7q-5 -3 -10 -3q-19 0 -22 21q-1 37 -10 37t-17 -15q-5 -16 -5 -37v-13q2 -21 9 -38zM1921 884q-17 1 -26 15q-30 53 -30 123q0 98 62 127q15 7 31 7q29 0 49 -23q16 -17 23 -49q13 3 23 3q34 0 53 -27q15 -14 15 -46q0 -71 -98 -110q-47 -19 -102 -20z
M1940 947q32 3 60 14q60 24 60 53q0 6 -1.5 8.5t-8.5 2.5q-11 0 -33 -10q-6 -3 -13 -4q-13 0 -21.5 9t-9.5 22q-1 40 -12 50q-1 2 -3 2q-13 0 -22.5 -21.5t-9.5 -50.5l1 -21q3 -30 13 -54zM1658 978q23 23 37 50q20 36 20 60q-1 18 -14 23h-3q-10 -4 -23 -31q-9 -18 -28 -18
q-13 0 -24 10q-26 32 -44 32q-6 -7 -6 -19q0 -31 40 -73q21 -21 45 -34zM252 -1359q47 0 93 35q70 51 130.5 146.5t102.5 203t56 195.5q33 226 110 905q-222 -166 -379 -363q-134 -168 -228 -381q-75 -199 -80.5 -286t-5.5 -114q0 -105 30 -175q58 -133 103.5 -149.5
t67.5 -16.5zM262 114q58 0 161 103q149 146 361 537q-161 144 -297 144q-219 0 -308 -343q-24 -101 -24 -211q0 -77 17 -141q20 -79 52.5 -84t37.5 -5z" />
    <glyph glyph-name="uniE085" unicode="h__" horiz-adv-x="2220" 
d="M1762 898q-5 0 -10 2q-45 17 -83 56q-59 61 -59 116q0 49 37 72q14 9 32 9q30 0 61 -24q26 32 60 32q7 0 14 -2l3 -1q18 -6 32 -20q27 -29 27 -63q0 -40 -27 -90q-25 -44 -67 -80q-9 -7 -20 -7zM41 -55q-42 0 -69.5 29t-27.5 70q13 381 88 1389q51 685 105 1179
q6 41 34.5 63.5t61.5 22.5q49 0 75 -34q23 -29 23 -63l-1 -11q-83 -750 -160 -1965q108 188 215.5 325.5t170 164t89.5 26.5q63 0 116 -71q74 -100 114 -388q17 -136 35 -218q21 -102 61 -151.5t87 -49.5q30 0 67 16q129 64 303 214q-47 103 -47 189q0 92 29 150
q43 85 105 85q88 0 101 -162q58 20 100 20q29 0 51 -10q57 -26 57 -88q0 -40 -29 -83q-35 -53 -115 -94t-206 -49q-183 -158 -323 -228q-106 -53 -201 -53q-117 0 -186 125q-32 65 -49.5 160t-31.5 202q-29 278 -65.5 311t-57.5 33q-46 0 -108 -78q-90 -113 -221 -328
l-70 -110q-19 -321 -24 -447q-2 -41 -29.5 -67t-66.5 -26zM1924 1244q-12 0 -18 10q-22 37 -22 84q0 70 44 91q11 5 22 5q38 0 51 -50l14 2q26 0 39 -19l1 -2q9 -13 9 -30q0 -50 -68 -77q-33 -14 -72 -14zM1937 1287q23 3 43 11q41 17 41 35q0 6 -1 7.5t-5 1.5q-7 0 -23 -7
q-4 -2 -9 -2q-9 0 -15.5 6t-6.5 15q-1 37 -11 37t-16 -15.5t-6 -34.5l1 -15h-1q2 -21 9 -39zM2020 872q-17 1 -26 15v-1q-30 53 -30 123q0 98 62 127q15 7 31 7q28 0 50 -23q15 -16 22 -48q11 2 21 2q37 0 56 -26l2 -3q12 -19 12 -41q0 -73 -98 -112q-47 -20 -102 -20z
M2039 934q32 4 61 15q58 23 58 52q0 7 -2 9.5t-7 2.5q-11 0 -32 -11q-6 -3 -13 -3q-13 0 -22 8.5t-10 21.5q-1 46 -15 53q-2 0 -5 -2q-27 -11 -27 -72l1 -19q3 -30 13 -55zM1757 965q23 23 38 50q19 35 19 58q0 12 -9 22q-2 3 -5 4q-2 0 -3 -1q-10 -4 -23 -31
q-9 -18 -27 -18q-15 0 -24 11q-28 32 -43 32q-3 0 -6 -6t-3 -14q0 -30 42 -72v-1q21 -21 44 -34z" />
    <glyph glyph-name="uniE086" unicode="i__" horiz-adv-x="1415" 
d="M126 1006q-11 0 -20 8q-36 32 -57 83q-20 45 -20 87q0 49 31 77q22 20 47 20q42 0 70 -49q23 12 44 12q25 0 39 -14q30 -24 30 -67q0 -52 -63 -105q-39 -32 -91 -50zM959 898q-5 0 -11 2q-45 17 -84 56q-58 61 -58 116q0 22 9 41.5t25.5 29.5t34.5 10q29 0 60 -24
q28 32 61 32q7 0 14 -2q1 -1 3 -1q18 -6 31 -20q27 -27 27 -63q0 -40 -27 -90q-24 -44 -66 -80q-9 -7 -19 -7zM145 150q-71 0 -121 47q-70 67 -70 265q0 143 43 401q7 41 35.5 61.5t60.5 20.5q50 0 76 -37q20 -28 20 -60l-1 -14q-41 -247 -41 -387q0 -127 36 -168
q26 -29 65 -29q84 0 286 165q36 30 70 57l21 18q-48 103 -48 191q0 93 29 151q42 85 104 85q30 0 56 -25q37 -34 46 -137q58 20 100 20q30 0 51 -10q57 -26 57 -86q0 -40 -30 -85q-34 -52 -112.5 -93t-201.5 -49l-104 -85q-268 -217 -427 -217zM1120 1244q-12 0 -19 10
q-21 38 -21 87q0 68 44 88q11 5 22 5q20 0 34 -16q11 -12 16 -34l15 2q26 0 39 -19l1 -2q9 -13 9 -30q-1 -50 -69 -77q-33 -14 -71 -14zM1133 1287q57 7 80 35q4 6 4 14q-2 6 -7 6q-7 0 -23 -7q-4 -2 -9 -2q-19 0 -22 21q-1 37 -10 37t-16 -15.5t-7 -34.5l1 -15q2 -21 9 -39
zM1216 872q-18 1 -26 15l-1 -1q-30 53 -30 122q0 98 63 128q15 7 31 7q29 0 49 -23q15 -16 23 -48q11 2 21 2q37 0 55 -26l2 -3q13 -20 13 -44q0 -69 -98 -109q-47 -20 -102 -20zM1234 934q33 4 61 15q59 23 59 52q0 6 -2 10l-7 2q-11 0 -33 -11q-6 -3 -13 -3q-13 0 -22 8.5
t-9 21.5q-2 40 -15 53q-15 0 -23.5 -21.5t-8.5 -50.5l1 -21q3 -30 12 -55zM952 965q23 23 38 50q20 37 20 60q-1 19 -14 24q-11 0 -26 -32q-9 -18 -28 -18q-13 0 -24 11q-26 30 -41 31l-1 1q-3 -1 -6 -6.5t-3 -12.5q0 -30 41 -73v-1q21 -21 44 -34zM134 1073q30 13 53 33
q42 34 42 58q0 6 -2 11t-3.5 6.5t-2.5 1.5l-2 -1q-10 0 -32 -20q-8 -9 -22 -9q-21 0 -29 21q-16 45 -30 45q-2 0 -5 -3q-11 -11 -11 -29q0 -29 15 -66q12 -27 29 -48z" />
    <glyph glyph-name="uniE087" unicode="j__" horiz-adv-x="1355" 
d="M898 892q-5 0 -10 2q-45 17 -84 56q-59 61 -59 117q0 48 37 71q14 9 32 9q30 0 61 -24q26 31 59 31q30 0 50 -22q27 -27 27 -63q0 -40 -27 -90q-25 -45 -67 -80q-9 -7 -19 -7zM-530 -1420q-180 0 -246 229l-1 2q-17 61 -17 143q0 200 103 472v1q181 411 554 687
q33 25 66 48q51 481 70 696q4 41 32 64.5t63 23.5q46 0 74 -32q24 -29 24 -66q0 -34 -54 -556q210 116 422 201q-44 101 -44 186q0 90 30 147q27 54 66 74q20 10 38 10q88 0 102 -161q58 20 99 20q30 0 51 -10q57 -27 57 -89q0 -39 -29 -82q-34 -53 -114.5 -94.5
t-207.5 -48.5h-3q-239 -95 -475 -229q-64 -585 -98 -828q-46 -352 -211 -587q-91 -130 -231 -194q-63 -27 -120 -27zM1060 1237q-13 1 -19 11q-21 36 -21 86q0 67 44 89q11 5 21 5q40 0 51 -51q9 2 16 2q23 0 37 -18q10 -10 10 -33q0 -48 -68 -77q-33 -13 -71 -14z
M1073 1281q60 8 79 35q4 5 4 11t-1 7t-2 1.5t-3 0.5q-7 0 -23 -7q-4 -2 -9 -2q-22 0 -22 21q-1 36 -10 36l-2 1q-9 0 -15 -15.5t-6 -34.5l1 -16q2 -20 9 -38zM1155 865q-17 1 -26 15q-30 53 -30 123q0 97 62 127q15 7 31 7q55 0 73 -72q12 3 23 3q35 0 53 -27q14 -14 14 -46
q0 -70 -97 -110q-47 -19 -103 -20zM1174 928q33 3 61 15q59 23 59 55q-1 3 -2.5 5.5t-6.5 3.5q-11 0 -33 -11q-6 -3 -13 -3q-13 0 -22 8.5t-9 21.5q-3 52 -17 52l-4 -1q-26 -13 -26 -70l1 -22q2 -29 12 -54zM892 959q23 23 38 50q19 34 19 58q0 17 -13 26l-4 -1
q-10 -4 -23 -31q-6 -18 -27 -18q-14 0 -24 11q-28 32 -43 32q-4 0 -6.5 -6.5t-2.5 -14.5q0 -29 42 -72q21 -21 44 -34zM129 1008q-11 0 -19 8q-36 32 -57 81.5t-21 91.5q0 45 31 74q21 20 47 20q41 0 71 -49q22 12 44 12q20 0 36 -11q2 -1 3 -3q30 -22 30 -66
q0 -52 -64 -106q-39 -32 -91 -50zM138 1075q29 13 53 33q41 35 41 58q0 6 -2 11t-3.5 6.5t-3.5 1.5q-11 -1 -32 -21q-9 -9 -22 -9q-21 0 -29 21q-17 45 -30 45q-3 0 -5 -3q-11 -10 -11 -32q0 -28 15 -63q12 -27 29 -48zM-591 -1329q50 0 104 47q142 126 222.5 318.5
t105.5 377.5q37 273 79 666l-20 -15q-362 -268 -534 -662q-74 -195 -86.5 -296.5t-12.5 -151.5q0 -73 15 -128l1 -2q40 -136 76.5 -145t49.5 -9z" />
    <glyph glyph-name="uniE088" unicode="k__" horiz-adv-x="1910" 
d="M1452 904q-5 0 -10 2q-45 17 -83 57q-59 59 -59 115q0 50 37 73q14 8 32 8q30 0 61 -24q25 32 59 32q8 0 15 -2l4 -1q18 -6 31 -19q27 -28 27 -64q0 -40 -27 -90q-25 -44 -67 -80q-9 -7 -20 -7zM23 -163q-40 0 -69 32q-25 28 -25 67v3q30 539 101 1435q53 658 107 1130
q6 40 35 62.5t64 22.5q45 0 72 -34q23 -29 23 -63l-1 -11q-74 -641 -159 -1807q70 44 164 114q178 133 313 254q9 7 19 7q16 0 24 -9.5t8 -19.5q0 -15 -10 -24q-138 -123 -317 -258q-108 -80 -186 -126q59 -49 122 -119q42 -45 87 -90q144 -148 295 -148q57 0 122 21
q134 43 307 220q-48 106 -48 195q0 90 30 148q42 84 104 84q88 0 102 -162q58 21 100 21q29 0 50 -10q57 -27 57 -89q0 -40 -29 -83q-34 -52 -113.5 -93t-203.5 -49l-3 -3q-193 -198 -303 -232t-174 -34q-69 0 -129 26q-115 51 -206 144q-48 46 -90 92q-53 58 -100 100
q-27 -383 -41 -622q-3 -41 -31 -66.5t-68 -25.5zM1614 1250q-12 0 -18 10q-21 37 -21 87q0 68 44 88q10 5 21 5q20 0 35 -16q11 -12 16 -34l14 2q26 0 39 -19q10 -10 10 -32q0 -50 -68 -77q-33 -14 -72 -14zM1627 1294q23 2 43 10q41 17 41 36q0 5 -1 6.5t-5 1.5
q-7 0 -23 -7q-4 -2 -9 -2q-9 0 -15.5 6t-6.5 15q-1 37 -11 37t-16 -15t-6 -35l1 -15q2 -21 8 -38zM1710 878q-17 1 -26 15q-30 53 -30 122q0 97 62 127q15 8 31 8q29 0 50 -23q15 -17 22 -49q11 2 21 2q37 0 56 -26l2 -3q12 -19 12 -41q0 -72 -97 -112q-48 -19 -103 -20z
M1729 940q32 4 61 15q58 24 58 52q0 7 -1 9.5t-7 2.5q-11 0 -33 -11q-6 -3 -13 -3q-13 0 -22 8.5t-10 21.5q-1 53 -14 53q-15 0 -24 -22.5t-9 -53.5l1 -17q3 -30 13 -55zM1447 972q23 23 38 49q19 35 19 59q0 12 -9 21q-2 3 -5 4q-11 0 -26 -32q-9 -18 -28 -18q-13 0 -23 11
q-27 30 -41 32q-11 0 -11 -20q0 -30 42 -72q21 -22 44 -34z" />
    <glyph glyph-name="uniE089" unicode="l__" horiz-adv-x="1592" 
d="M1134 917q-5 0 -10 2q-45 17 -83 56q-60 59 -60 115q0 50 38 73q14 9 32 9q30 0 61 -24q26 31 59 31q15 0 18 -3q18 -5 32 -19q27 -29 27 -63q0 -40 -27 -90q-25 -45 -67 -80q-9 -7 -20 -7zM309 -125q-31 0 -59 8q-105 30 -172.5 141t-92.5 268q-20 166 -20 364
q0 300 40 696q66 605 156 1132q8 41 36 61t59 20q51 0 77 -36q20 -29 20 -59q0 -9 -1 -17q-90 -524 -154 -1120q-30 -288 -34.5 -450.5t-4.5 -222.5q0 -271 40 -484q15 -77 44.5 -138t63 -73.5t50.5 -12.5q45 0 105 36q181 112 345 500l2 5q-55 110 -55.5 158.5t-0.5 51.5
q0 90 29 148q43 84 105 84q88 0 101 -161q58 20 99 20q30 0 52 -10q57 -27 57 -89q0 -39 -29 -82q-33 -51 -108.5 -91.5t-192.5 -50.5l-2 -7q-252 -589 -555 -589zM1296 1262q-12 1 -18 11q-22 37 -22 84q0 68 44 91q10 5 21 5q38 0 52 -50l14 2q25 0 39 -19l1 -2
q9 -13 9 -31q0 -48 -68 -77q-33 -13 -72 -14zM1309 1306q23 3 43 11q41 15 41 35q0 6 -1 7t-2 1.5t-3 0.5q-8 0 -23 -7q-4 -2 -9 -2q-22 0 -22 21q-1 36 -11 36l-2 1q-8 0 -14.5 -16t-6.5 -37l1 -13q2 -20 9 -38zM1392 890q-17 1 -26 15q-30 53 -30 123q0 98 62 127
q15 7 30 7q29 0 51 -23q15 -17 22 -49q12 3 23 3q36 0 54 -27l1 -2q13 -19 13 -41q0 -74 -98 -113q-47 -19 -102 -20zM1411 953q32 3 61 15q58 23 58 52q0 6 -1.5 9t-7.5 3q-11 0 -32 -11q-6 -3 -13 -3q-13 0 -22 8.5t-10 21.5q-1 52 -15 52h-2l-3 -1q-27 -14 -27 -70l1 -22
q3 -29 13 -54zM1129 984q23 23 38 50q19 34 19 58q0 17 -15 26q-1 0 -2 -1q-10 -4 -23 -31q-9 -18 -27 -18q-15 0 -24 11q-28 32 -44 32q-2 0 -5 -6.5t-3 -13.5q0 -31 42 -73q20 -21 44 -34z" />
    <glyph glyph-name="uniE090" unicode="m__" horiz-adv-x="3051" 
d="M2593 906q-4 0 -9 2q-46 17 -84 57q-60 61 -60 117q0 48 38 71q14 8 31 8q30 0 62 -24q25 32 59 32q7 0 15 -2l4 -1q18 -6 31 -19q27 -28 27 -64q0 -40 -27 -90q-25 -44 -67 -80q-10 -7 -20 -7zM12 -25q-48 0 -75 36q-22 28 -22 62l5 41q39 282 66.5 510.5t32.5 377.5
q1 41 29 68t69 27q41 -2 68 -29.5t27 -69.5q-5 -157 -32 -389q77 176 153 280q122 165 204 188.5t115 23.5q87 0 159 -67q98 -92 127 -314q7 -52 7 -108q57 161 153.5 267t171.5 129.5t114 23.5q189 0 275 -255q41 -139 65 -341q15 -124 36.5 -187t73.5 -63q64 0 207 107
q142 112 221 203q-50 107 -50 196q0 90 30 149q41 84 103 84q88 0 103 -162q58 21 100 21q29 0 50 -10q56 -27 56 -89q0 -40 -28 -83q-34 -52 -112.5 -93t-202.5 -49l-3 -4q-81 -96 -230 -212q-187 -142 -311 -142q-38 0 -69 13q-137 56 -178 381q-17 132 -51 239
q-63 173 -108 188t-63 15q-53 0 -105 -53q-71 -72 -135 -186.5t-114 -218.5l-11 -23q-15 -105 -54 -210q-27 -63 -91 -63q-17 0 -34 6q-63 26 -63 91q0 17 6 34q54 153 54 294q0 44 -5 88q-18 146 -65 221t-111 75q-84 0 -187 -140q-117 -156 -235 -500l-40 -294
q-7 -41 -35 -62.5t-61 -21.5zM2756 1252q-13 0 -19 10q-21 37 -21 87q0 68 44 88q10 5 21 5q19 0 35 -16q11 -12 16 -34l14 2q26 0 39 -19q10 -10 10 -32q0 -50 -68 -77q-33 -14 -71 -14zM2769 1296q22 2 42 10q41 17 41 36q0 5 -1.5 6.5t-4.5 1.5q-8 0 -23 -7q-4 -2 -9 -2
q-9 0 -15.5 6t-6.5 15q-2 37 -10 37q-11 0 -17 -15t-6 -35l1 -15q2 -21 9 -38zM2851 880q-17 1 -26 15q-31 52 -31 122q0 97 63 127q15 8 31 8q28 0 50 -23q15 -17 22 -49q11 2 21 2q37 0 56 -26l2 -3q12 -19 12 -41q0 -72 -97 -112q-48 -19 -103 -20zM2870 942q33 4 61 15
q59 25 59 55q-2 8 -4.5 8.5t-5.5 0.5q-10 0 -32 -11q-6 -3 -13 -3q-13 0 -22 8.5t-10 21.5q-2 53 -14 53q-16 0 -24 -21.5t-8 -50.5l1 -21q2 -30 12 -55zM2588 974q23 23 38 49q19 35 19 59q0 13 -9 21q-2 3 -5 4q-11 0 -26 -32q-2 -6 -8 -10q-9 -8 -20 -8q-13 0 -23 11
q-27 30 -41 32q-6 0 -8.5 -6t-2.5 -15q0 -28 42 -71q21 -22 44 -34z" />
    <glyph glyph-name="uniE091" unicode="n__" horiz-adv-x="2280" 
d="M1823 899q-5 0 -10 2q-46 17 -84 57q-58 60 -58 116q0 21 9 41t25.5 30t35.5 10q27 0 59 -25q25 32 60 32q27 0 49 -22q27 -28 27 -64q0 -40 -27 -90q-25 -44 -67 -80q-9 -7 -19 -7zM14 -40q-55 0 -79 39q-18 29 -18 56q0 11 2 22q6 32 24.5 204t34.5 367q9 113 12.5 174
t3.5 86q0 26 -2 36.5t-2 20.5q0 28 16 53q29 43 82 43q29 0 52 -16q33 -21 42 -61q5 -24 5 -71q0 -137 -26 -404q92 181 239 342q85 93 160 133.5t130 40.5q31 0 61 -10q85 -27 151 -166q47 -102 82 -272q10 -43 17 -96q32 -220 86 -252q32 -18 52 -18q42 0 103 38
q115 76 249 240q-50 107 -50 197q0 89 30 148q27 54 66 74q20 10 39 10q87 0 101 -162q59 21 100 21q29 0 50 -10q57 -27 57 -89q0 -40 -29 -83q-34 -52 -112.5 -93t-202.5 -49q-141 -173 -265 -255q-83 -54 -132.5 -58.5t-61.5 -4.5q-73 0 -133 36q-70 43 -102 142
q-21 70 -35 147q-16 90 -44 182l-21 79q-40 148 -84.5 158t-57.5 10q-66 0 -143 -68q-92 -80 -178 -223q-75 -127 -139 -258q-26 -259 -36 -305q-10 -40 -38 -57.5t-56 -17.5zM1985 1245q-13 1 -19 10q-21 37 -21 87q0 68 44 88q11 5 22 5q19 0 34 -16q11 -12 16 -34l14 2
q26 0 39 -19q10 -10 10 -32q0 -50 -68 -77q-33 -13 -71 -14zM1998 1289q22 2 42 10q41 17 41 36q0 5 -0.5 6.5t-5.5 1.5q-7 0 -23 -7q-4 -2 -9 -2q-9 0 -15.5 6t-6.5 15q-1 37 -10 37q-11 0 -17 -15t-6 -35l1 -15q2 -21 9 -38zM2081 873q-18 1 -27 15q-30 53 -30 121
q0 97 63 129q14 7 30 7q55 0 73 -72q11 2 21 2q36 0 55 -26l2 -3q13 -20 13 -44q0 -69 -98 -109q-47 -19 -102 -20zM2099 935q33 4 61 15q59 25 59 55q-2 8 -4.5 8.5t-4.5 0.5q-11 0 -33 -11q-6 -3 -13 -3q-13 0 -22 8.5t-9 21.5q-2 53 -15 53q-15 0 -23.5 -21.5t-8.5 -50.5
l1 -21q2 -30 12 -55zM1817 967q23 23 38 50q19 34 19 60q0 17 -13 23q-11 0 -27 -32q-2 -6 -8 -10q-9 -7 -19 -7q-15 0 -24 10q-27 30 -41 32q-5 0 -8 -6t-3 -15q0 -28 42 -71q21 -22 44 -34z" />
    <glyph glyph-name="uniE092" unicode="o__" horiz-adv-x="2012" 
d="M712 320q24 96 24 209q0 140 -44 270q-51 147 -138.5 204.5t-169.5 57.5q-65 0 -141 -25q-128 -46 -130 -180q89 104 222 143q14 3 27 3q25 0 47 -12q48 -29 48 -86q0 -24 -12 -46q-19 -34 -59 -46q-127 -40 -193 -191l1 -2q78 -119 215 -204q132 -82 303 -95zM1555 887
q-5 0 -10 2q-45 17 -83 56q-60 59 -60 116q0 49 38 72q14 9 32 9q30 0 61 -24q25 31 58 31q16 0 19 -3q18 -5 32 -19q27 -29 27 -63q0 -40 -28 -90q-24 -45 -66 -80q-10 -7 -20 -7zM378 -42q-151 0 -272 101q-148 123 -148 362q0 185 92 346l8 14q-6 33 -6 74q0 177 170 239
q89 31 164 31q40 0 77 -9q104 -26 176 -105t111 -192q48 -140 48 -294q0 -104 -23 -206q221 9 445 164q-46 102 -46 188q0 92 29 150q43 84 105 84q29 0 56 -24q37 -35 45 -137q58 20 99 20q30 0 52 -10q56 -27 56 -87q0 -40 -28 -84q-35 -53 -115 -94.5t-206 -48.5
q-258 -183 -510 -183q-19 -59 -48 -108q-115 -191 -331 -191zM1717 1232q-12 1 -18 11q-22 37 -22 84q0 68 44 91q10 5 21 5q38 0 52 -50l14 2q25 0 39 -19l1 -2q9 -13 9 -31q0 -48 -68 -77q-33 -13 -72 -14zM1730 1276q23 3 43 11q41 15 41 35q0 6 -1 7t-2 1.5t-3 0.5
q-8 0 -23 -7q-4 -2 -9 -2q-22 0 -22 21q-1 36 -11 36l-2 1q-8 0 -14.5 -16t-6.5 -37l1 -13q2 -20 9 -38zM1813 861q-17 0 -26 14q-30 53 -30 123q0 98 62 127q15 7 30 7q29 0 50 -23q16 -17 23 -49q12 3 23 3q34 0 54 -27l1 -2q12 -18 12 -44q0 -71 -97 -110
q-47 -19 -102 -19zM1832 923q32 3 61 15q58 23 58 52q0 6 -1.5 9t-7.5 3q-11 0 -32 -11q-6 -3 -13 -3q-30 0 -32 30q-1 40 -12 50q-1 2 -3 2h-2l-3 -1q-27 -14 -27 -70l1 -22q3 -29 13 -54zM1550 954q23 23 38 50q19 36 19 60q-2 16 -15 24q-1 0 -2 -1q-10 -4 -23 -31
q-9 -18 -28 -18q-14 0 -23 11q-29 32 -44 32q-2 0 -5 -6.5t-3 -13.5q0 -31 42 -73q20 -21 44 -34zM458 43q29 0 59 9q76 23 139 128q21 36 37 79q-178 17 -316 103q-127 78 -208 186q-17 -61 -17 -130q0 -143 89 -252q55 -67 113.5 -95t103.5 -28z" />
    <glyph glyph-name="uniE093" unicode="p__" horiz-adv-x="2001" 
d="M1495 989q20 -21 44 -34q23 23 38 50q19 36 19 60q-1 17 -14 23h-3q-10 -5 -23 -32q-9 -17 -27 -17q-16 0 -24 10q-29 32 -45 32q-7 -7 -7 -20q0 -30 42 -72zM336 -36q71 0 239 214q2 4 5 7q37 47 65 109q-231 -94 -304 -185q-44 -52 -44 -87q5 -58 39 -58zM1821 923
q32 4 61 15q58 24 58 52q0 7 -1 9.5t-8 2.5q-11 0 -32 -11q-6 -3 -13 -3q-30 0 -32 30q-1 41 -12 51q-1 2 -3 2q-14 0 -23 -21.5t-9 -50.5q2 -47 14 -76zM1719 1277q23 2 43 10q41 17 41 36q0 8 -6 8q-7 0 -23 -7q-4 -2 -9 -2q-22 0 -22 21q-1 28 -9 35q-1 2 -2 2
q-22 0 -22 -53q1 -30 9 -50zM1544 887q-5 0 -10 2q-45 17 -83 57q-59 59 -59 115q0 22 9.5 42t26 30t35.5 10q27 0 59 -25q25 32 58 32q16 0 19 -3q18 -6 32 -19q27 -29 27 -64q0 -40 -28 -89q-24 -45 -66 -81q-9 -7 -20 -7zM1802 861q-17 1 -26 15q-30 53 -30 122
q0 97 62 128q15 7 31 7q29 0 49 -23q16 -17 23 -49q11 2 21 2q36 0 56 -26q1 -1 1 -3q12 -18 12 -44q0 -70 -97 -109q-47 -19 -102 -20zM1706 1233q-12 1 -18 10q-22 38 -22 84q0 70 44 91q11 5 22 5q38 0 51 -50l14 2q26 0 40 -20q9 -14 9 -31q0 -50 -68 -77
q-33 -13 -72 -14zM-17 -1246q-41 0 -69 31q-26 28 -26 67l102 2044q3 41 31 66.5t67 25.5q41 0 70 -31q25 -28 25 -67l-12 -240q45 64 132 122.5t172.5 84.5t148.5 26q32 0 62 -5q91 -15 145 -100q43 -75 52.5 -141t9.5 -109q0 -48 -7 -96q140 36 318 63q-41 97 -41 178
q0 90 29 149q28 54 67 74q19 10 38 10q88 0 101 -162q58 21 101 21q29 0 50 -10q56 -27 56 -87q0 -41 -28 -85q-35 -53 -115.5 -94t-206.5 -48q-220 -32 -382 -75q-43 -175 -142 -302q-26 -32 -54 -58q-175 -146 -285 -146q-131 0 -154 144q-2 9 -2 19q0 56 59 127
q101 119 378 219q26 85 26 180q0 131 -59 190q-45 45 -108 45q-181 0 -369 -295l-81 -1643q-3 -41 -31.5 -66.5t-67.5 -25.5z" />
    <glyph glyph-name="uniE094" unicode="q__" horiz-adv-x="2122" 
d="M252 264q85 0 228 180q80 101 174 268q-102 74 -166.5 88t-91.5 14q-178 0 -232 -243q-8 -40 -8 -104q0 -63 16 -120t41 -70t39 -13zM1665 904q-5 0 -10 2q-46 17 -84 56q-59 61 -59 117q0 21 9.5 40.5t26 29.5t35.5 10q28 0 59 -24q26 31 59 31q29 0 50 -22
q27 -28 27 -64q0 -40 -27 -89q-25 -45 -67 -80q-9 -7 -19 -7zM789 -979q-72 0 -125 79q-65 94 -65 333q0 271 31 579q33 317 81 675q-188 -335 -341 -440q-103 -70 -183 -70q-31 0 -59 11q-98 39 -131.5 134t-33.5 176q0 54 11 112q47 207 138 261.5t175 54.5q49 0 102 -14
q146 -38 295 -146q20 37 40 78q20 35 28 47q30 35 77 35q46 0 73 -35q22 -29 22 -62q0 -4 -23 -178v-4q-36 -264 -67 -548q67 28 156 77.5t180.5 126t164.5 185.5q-51 108 -51 206q0 87 28 142.5t67 75.5q20 10 38 10q30 0 56 -25q37 -34 46 -137q58 21 100 21q29 0 50 -10
q57 -27 57 -89q0 -40 -29 -83q-34 -51 -111 -91.5t-197 -49.5l-2 -4q-174 -260 -515 -406q131 -49 190 -192q45 -122 45 -253t-28 -232q-44 -162 -120.5 -251.5t-120 -94t-49.5 -4.5zM1827 1249q-13 1 -19 11q-21 36 -21 86q0 67 44 89q11 5 21 5q21 0 35 -17q11 -11 16 -34
q9 2 17 2q23 0 36 -19l2 -1q8 -14 8 -31q0 -48 -68 -77q-33 -13 -71 -14zM1840 1293q22 2 42 10q41 17 41 36q0 6 -0.5 7t-2.5 1.5t-4 0.5q-8 0 -22 -7q-4 -2 -9 -3q-9 0 -15.5 6t-6.5 15q-1 37 -10 37q-11 0 -17 -15t-6 -34l1 -16q2 -21 9 -38zM1922 877q-17 1 -26 15
q-30 53 -30 123q0 97 62 127q15 7 31 7q55 0 73 -72q12 3 23 3q34 0 53 -27q14 -14 14 -46q0 -70 -97 -110q-47 -19 -103 -20zM1941 940q33 3 61 14q59 25 59 56q-2 7 -4.5 7.5t-6.5 0.5q-10 0 -31 -10q-6 -3 -13 -4q-13 1 -22 9.5t-9 21.5q-3 52 -15 52q-15 0 -23.5 -21.5
t-8.5 -50.5l1 -21q2 -30 12 -54zM1659 971q23 23 38 50q19 34 19 58q0 13 -9 22q-3 4 -6 4q-10 0 -25 -32q-6 -18 -27 -18q-14 0 -24 10q-28 32 -45 32q-2 -1 -3 -5q-4 -7 -4 -15q0 -29 42 -72q21 -21 44 -34zM870 -872q29 0 62 49q51 74 88 210q26 95 26 214q0 120 -41 231
q-52 130 -173 164l-9 2q-30 -301 -30 -560v-61q7 -199 34.5 -224t42.5 -25z" />
    <glyph glyph-name="uniE095" unicode="r__" horiz-adv-x="1839" 
d="M798 -52q-50 0 -81 41q-126 186 -126 429q0 117 9 222q11 124 11 192q0 114 -28 191q-25 68 -88 109q-88 49 -212 91q-57 21 -111 43q-5 -60 -9 -134q-7 -175 -31.5 -362t-97.5 -306q-9 -13 -25 -13q-9 0 -18.5 6t-11 13.5t-1.5 9.5q0 9 5 18q66 109 89 288t30 349
q5 111 13 190q5 27 31 27q28 0 80 -17q123 -38 316 -129q125 -59 178 -100.5t59.5 -77t6.5 -64.5q0 -35 -6 -80q-9 -91 -9 -221q0 -141 16 -281q20 -175 89 -282q17 -27 17 -56q0 -48 -41 -78q-26 -18 -54 -18zM1382 759q-5 0 -10 2q-45 17 -83 57q-59 59 -59 115
q0 22 9.5 42t26 30t35.5 10q27 0 59 -25q25 32 58 32q16 0 19 -3q18 -6 32 -19q27 -29 27 -64q0 -40 -28 -90q-24 -44 -66 -80q-9 -7 -20 -7zM1093 313h-2q-21 0 -32 19q-57 111 -57.5 160t-0.5 52q0 91 29 150q28 54 67 74q19 10 38 10q29 0 56 -25q37 -34 45 -137
q58 21 100 21q30 0 51 -10q56 -27 56 -87q0 -41 -28 -85q-35 -53 -115.5 -94t-206.5 -48zM1544 1105q-12 1 -18 10q-22 38 -22 84q0 70 44 91q11 5 22 5q38 0 51 -50l14 2q26 0 39 -19l1 -2q9 -13 9 -30q0 -50 -68 -77q-33 -13 -72 -14zM1557 1149q23 2 43 10q41 17 41 36
q0 5 -1 6.5t-5 1.5q-7 0 -23 -7q-4 -2 -9 -2q-22 0 -22 21q-1 28 -9 35q-1 2 -2 2q-9 0 -17 -15q-5 -16 -5 -38v-12q2 -21 9 -38zM1640 733q-17 1 -26 15q-30 53 -30 122q0 97 62 128q15 7 31 7q29 0 49 -23q16 -17 23 -49q11 2 21 2q36 0 56 -26l1 -3q12 -18 12 -44
q0 -70 -97 -109q-47 -19 -102 -20zM1659 795q32 4 61 15q58 24 58 52q0 7 -1 9.5t-8 2.5q-11 0 -32 -11q-6 -3 -13 -3q-30 0 -32 30q-1 41 -12 51q-1 2 -3 2q-14 0 -23 -21.5t-9 -50.5l1 -21q3 -30 13 -55zM1377 827q23 23 38 50q19 36 19 60q-2 18 -14 23h-3
q-10 -5 -23 -32q-9 -18 -28 -18q-14 0 -23 11q-27 30 -41 32q-11 0 -11 -20q0 -30 42 -72q20 -21 44 -34z" />
    <glyph glyph-name="uniE096" unicode="s__" horiz-adv-x="1719" 
d="M185 559q157 138 172 254q2 16 2 31q0 36 -13 63q-34 67 -88 68q-55 0 -103 -39.5t-63 -91.5q-10 -39 -10 -74q0 -110 103 -211zM1261 923q-5 0 -10 2q-45 17 -83 57q-59 59 -59 115q0 22 9.5 42t26 30t35.5 10q27 0 59 -25q25 32 59 32q15 0 18 -3q18 -6 32 -19
q27 -29 27 -64q0 -40 -28 -89q-24 -45 -66 -81q-9 -7 -20 -7zM201 -615q-39 0 -76 10q-155 45 -173.5 115.5t-18.5 108.5q0 76 36 161q55 130 148 246.5t178 184.5q-46 40 -94 78q-98 75 -179.5 157t-108.5 162.5t-27 144.5t18 139q28 100 95 144.5t145 44.5q83 0 154 -40
t104 -108q19 -39 19 -88q0 -159 -191 -329q44 -38 92 -76q70 -55 137 -116q239 146 463 205q-42 97 -42 179q0 91 29 150q28 54 67 74q19 10 38 10q29 0 56 -25q37 -34 45 -137q58 21 100 21q30 0 51 -10q57 -27 57 -89q0 -40 -29 -83q-35 -52 -115.5 -93.5t-206.5 -48.5h-3
q-222 -51 -465 -197q105 -105 149 -261q15 -63 15 -122q0 -144 -85 -274q-162 -238 -382 -238zM1423 1269q-12 1 -18 10q-22 38 -22 84q0 70 44 91q11 5 22 5q38 0 51 -50l14 2q26 0 39 -19l1 -2q9 -13 9 -30q0 -50 -68 -77q-33 -13 -72 -14zM1436 1313q23 2 43 10
q41 17 41 36q0 5 -1 6.5t-5 1.5q-7 0 -23 -7q-4 -2 -9 -2q-22 0 -22 21q-1 37 -11 37q-9 0 -17 -15q-5 -16 -5 -38v-12q2 -21 9 -38zM1519 897q-17 1 -26 15q-30 53 -30 122q0 97 62 128q15 7 31 7q28 0 50 -23q15 -17 22 -49q11 2 21 2q36 0 56 -26q1 -1 1 -3
q13 -19 13 -41q0 -73 -98 -112q-47 -19 -102 -20zM1538 960q32 3 61 14q58 24 58 52q0 7 -1 9.5t-8 2.5q-11 0 -32 -11q-6 -3 -13 -3q-13 0 -22 8.5t-10 21.5q-1 53 -15 53t-23 -21.5t-9 -50.5l1 -21q3 -30 13 -54zM1256 991q23 23 38 50q19 34 19 58q0 12 -9 21l-5 4h-3
q-10 -5 -23 -32q-9 -17 -27 -17q-16 0 -24 10q-29 32 -45 32q-7 -7 -7 -19q0 -31 42 -73q20 -21 44 -34zM70 -479q40 0 103 21q72 27 140 77.5t107 109.5q54 80 54 170q0 36 -9 74q-32 110 -124 195q-69 -55 -142 -145.5t-128.5 -190t-68 -153t-12.5 -73.5q0 -85 80 -85z
" />
    <glyph glyph-name="uniE098" unicode="u__" horiz-adv-x="2334" 
d="M1876 896q-5 0 -10 2q-45 17 -83 57q-60 59 -60 115q0 22 10 42t26.5 30t35.5 10q27 0 59 -25q25 32 59 32q28 0 50 -22q27 -28 27 -64q0 -40 -27 -90q-25 -44 -67 -80q-10 -7 -20 -7zM241 6q-85 0 -152 66q-76 74 -110 251q-14 70 -14 151q0 133 37 293q11 40 38.5 57
t53.5 17q12 0 25 -3q40 -10 56.5 -38t16.5 -54q0 -12 -2 -25q-32 -137 -32 -247q0 -63 11 -117q33 -169 82.5 -203t85.5 -34q38 0 80 25q199 122 338 644q1 4 3 7q13 67 82 81l14 1q32 0 58 -19q31 -24 37 -64q32 -216 82 -330q73 -168 126 -182.5t75 -14.5q116 0 314 215
q-51 108 -51 198q0 91 30 150q27 54 66 74q19 10 38 10q87 0 102 -162q58 21 100 21q29 0 50 -10q56 -27 56 -89q0 -40 -28 -83q-34 -51 -111 -92t-199 -50q-82 -87 -182.5 -163t-175 -99t-116.5 -23q-58 0 -111 25q-160 77 -236 455q-72 -228 -156 -365
q-72 -118 -167.5 -191t-149.5 -78t-64 -5zM2038 1242q-12 1 -18 10q-21 37 -21 87q0 68 44 88q10 5 21 5q19 0 35 -16q11 -12 16 -34l14 2q26 0 39 -19q10 -10 10 -32q0 -50 -68 -77q-33 -13 -72 -14zM2052 1286q22 2 42 10q41 17 41 36q0 5 -1.5 6.5t-4.5 1.5q-8 0 -23 -7
q-4 -2 -9 -2q-9 0 -15.5 6t-6.5 15q-1 28 -8 35l-2 2q-11 0 -17 -15t-6 -35l1 -15q2 -21 9 -38zM2134 870q-17 1 -26 15q-31 53 -31 122q0 96 63 128q15 7 30 7q29 0 51 -23q15 -17 22 -49q11 2 20 2q38 0 57 -26l2 -3q12 -19 12 -41q0 -72 -97 -112q-48 -19 -103 -20z
M2153 932q32 4 61 15q58 24 58 52q0 7 -1.5 9.5t-7.5 2.5q-10 0 -32 -11q-6 -3 -13 -3q-13 0 -22 8.5t-10 21.5q-2 53 -14 53q-16 0 -24 -21.5t-8 -50.5l1 -21h-1q3 -30 13 -55zM1871 964q23 23 38 50q19 34 19 58q0 13 -9 21q-2 3 -5 4h-3q-10 -5 -23 -32q-2 -6 -8 -10
q-9 -8 -20 -8q-13 0 -23 11q-27 30 -41 32q-6 0 -8.5 -6t-2.5 -15q0 -29 42 -71q21 -22 44 -34z" />
    <glyph glyph-name="uniE099" unicode="v__" horiz-adv-x="1783" 
d="M290 -113q-28 0 -53 12q-117 55 -192.5 271t-137.5 743l-1 11q0 34 21 60q28 37 76 37q34 0 60 -21q31 -24 36 -65q45 -372 92 -577q52 -226 92 -289.5t72 -63.5q15 0 31 12q47 35 94.5 140.5t97.5 240.5q70 190 166 411q55 127 111 218q9 14 26 14q8 0 17.5 -6t11 -13.5
t1.5 -10.5q0 -9 -4 -17q-93 -153 -257 -579q-66 -173 -131.5 -311.5t-132.5 -186.5q-52 -30 -96 -30zM1325 702q-5 0 -10 2q-45 17 -83 56q-60 59 -60 116q0 49 38 72q14 9 32 9q29 0 61 -24q25 31 58 31q15 0 19 -3q19 -5 32 -19q27 -29 27 -63q0 -40 -27 -90
q-25 -45 -67 -80q-10 -7 -20 -7zM1036 255q-22 0 -34 19q-56 112 -57 161t-1 52q0 90 29 149q42 84 105 84q29 0 56 -24q37 -34 45 -137q57 20 99 20q30 0 52 -10q56 -27 56 -88q0 -40 -28 -83q-35 -53 -115.5 -94.5t-206.5 -48.5zM1487 1048q-12 0 -18 10q-22 37 -22 84
q0 70 44 91q10 5 21 5q38 0 52 -50l14 2q25 0 39 -19l1 -2q9 -13 9 -31q0 -48 -68 -77q-33 -13 -72 -13zM1500 1091q23 3 43 11q41 15 41 35q0 6 -1 7t-2.5 1.5t-2.5 0.5q-8 0 -23 -7q-4 -2 -9 -2q-9 0 -15.5 6t-6.5 15q-1 28 -8 35l-3 2q-11 0 -16.5 -15.5t-5.5 -34.5
l1 -16q1 -20 8 -38zM1583 676q-17 0 -26 14q-31 53 -31 123q0 98 63 127q15 7 30 7q29 0 51 -23q15 -16 22 -49q12 3 22 3q36 0 55 -27q14 -14 14 -43q0 -72 -98 -113q-47 -19 -102 -19zM1602 738q32 3 61 15q58 23 58 52q0 7 -1.5 9.5t-7.5 2.5q-11 0 -32 -11q-6 -3 -13 -3
q-13 0 -22 8.5t-10 21.5q-2 52 -15 52h-2l-3 -1q-27 -13 -27 -73l1 -19q3 -29 13 -54zM1320 769q23 23 38 50q19 34 19 58q0 12 -9 22l-6 4l-2 -1q-10 -4 -23 -31q-9 -18 -28 -18q-14 0 -23 11q-29 32 -44 32q-3 0 -5.5 -6.5t-2.5 -13.5q0 -31 42 -73q21 -21 44 -34z" />
    <glyph glyph-name="uniE100" unicode="w__" horiz-adv-x="2475" 
d="M1969 907q20 -22 44 -34q23 23 38 49q19 37 19 61q-2 18 -15 23q-1 0 -2 -1q-10 -4 -23 -31q-10 -18 -28 -18q-14 0 -23 11q-27 30 -41 32q-11 0 -11 -20q0 -30 42 -72zM2295 841q32 4 61 15q58 24 58 52q0 7 -1.5 9.5t-7.5 2.5q-12 0 -33 -11q-5 -3 -12 -3q-30 0 -32 30
q-1 41 -12 51q-1 2 -3 2q-14 0 -23.5 -21.5t-9.5 -50.5l2 -21q3 -30 13 -55zM2193 1195q23 2 43 10q41 17 41 39q0 5 -7 5q-8 0 -22 -7q-4 -2 -9 -2q-22 0 -22 21q-1 28 -9 35q-1 2 -2 2q-10 0 -17 -15q-6 -16 -6 -38l1 -12q2 -21 9 -38zM1123 -104q-91 0 -180 70
q-104 80 -185 210l-4 7q-100 161 -136 366q-59 -158 -149 -277q-71 -94 -146 -141q-80 -49 -153 -49q-126 0 -173 151q-28 93 -28 252q0 211 58 544q9 41 37 60.5t58 19.5q51 0 78 -37q20 -29 20 -59q0 -9 -1 -17q-56 -310 -56 -495q0 -94 13 -186q11 -75 32.5 -109
t45.5 -34q16 0 37 12q65 41 129 125q68 90 119 207t69 238q0 5 3 10q7 38 33.5 60t60.5 22q46 0 74 -32q25 -29 25 -66l-1 -13q-2 -25 -2 -49q0 -212 118 -401l4 -7q53 -84 119 -145.5t104.5 -71t52.5 -9.5q122 0 142 244q4 43 4 94q0 207 -68 541l-1 6q0 24 25 30l7 1
q23 0 29 -24q70 -344 70 -558q0 -222 -65 -332q-86 -144 -145.5 -151t-73.5 -7zM2276 779q-17 1 -26 15q-31 52 -31 122q0 98 63 127q15 8 31 8q28 0 49 -23q16 -17 23 -49q11 2 20 2q37 0 56 -26q2 -2 2 -3q12 -18 12 -44q0 -70 -97 -109q-47 -19 -102 -20zM2180 1151
q-12 0 -18 10q-22 38 -22 84q0 70 44 91q10 5 22 5q37 0 51 -50l14 2q26 0 39 -19l1 -2q9 -13 9 -30q0 -50 -68 -77q-33 -14 -72 -14zM1729 358q-22 0 -34 20q-57 111 -58 160t-1 52q0 91 30 150q41 84 104 84q29 0 56 -25q38 -34 46 -137q58 21 100 21q29 0 51 -10
q56 -27 56 -87q0 -41 -28 -85q-35 -53 -115.5 -94t-206.5 -49zM2018 805q-5 0 -10 2q-45 17 -83 57q-60 59 -60 115q0 50 38 73q13 8 31 8q30 0 62 -24q26 32 58 32q8 0 16 -2l3 -1q18 -6 32 -19q27 -29 27 -64q0 -40 -28 -90q-24 -44 -66 -80q-10 -7 -20 -7z" />
    <glyph glyph-name="uniE101" unicode="x__" horiz-adv-x="1726" 
d="M1269 906q-5 0 -10 2v-1q-45 18 -84 57q-59 60 -59 115q0 22 9.5 42t26 30t35.5 10q28 0 59 -25q27 32 59 32q28 0 50 -22q27 -28 27 -64q0 -40 -27 -89q-24 -45 -67 -80q-9 -7 -19 -7zM-24 -321q-23 0 -29 17q-3 9 -3 14q0 7 191 393q-47 51 -83 119q-102 197 -102 474
q0 74 8 149q5 41 33 63.5t64 22.5q45 0 73 -34q23 -29 23 -64v-9q-8 -74 -8 -142q3 -221 80 -369l9 -16l294 594q9 18 26 18q8 0 15 -4q17 -9 17 -28q0 -7 -312 -636q88 -95 136.5 -95.5t51.5 -0.5q163 0 344 192q77 81 130 153l4 4q-51 107 -51 197t30 149q27 54 66 74
q20 10 38 10q88 0 102 -162q58 21 100 21q29 0 50 -10q57 -27 57 -87q0 -40 -29 -85q-34 -51 -112.5 -92t-201.5 -50q-1 -3 -4 -6q-61 -83 -153.5 -182.5t-203 -177.5t-178 -88.5t-88.5 -10.5q-92 0 -178 65l-179 -363q-9 -17 -27 -17zM1431 1251q-12 1 -19 11
q-21 36 -21 86q0 67 44 89q10 5 21 5q21 0 35 -17q11 -11 16 -34q9 2 17 2q22 0 37 -19l1 -2q8 -13 8 -30q0 -48 -68 -77q-33 -13 -71 -14zM1444 1295q22 2 42 10q41 17 41 36q0 6 -0.5 7t-2.5 1.5t-4 0.5q-8 0 -22 -7q-4 -3 -9 -3q-20 0 -22 21q-1 37 -10 37q-11 0 -17 -15
t-6 -34l1 -16q2 -21 9 -38zM1527 879q-18 1 -27 15q-30 53 -30 122q0 98 63 128q14 7 30 7q55 0 73 -72q12 3 22 3q34 0 54 -27q14 -14 14 -46q0 -70 -97 -110q-47 -19 -102 -20zM1545 942q33 3 61 14q59 24 59 53q0 5 -2 8t-8 3q-11 0 -32 -10q-6 -3 -13 -4q-13 1 -22 9.5
t-9 21.5q-3 52 -15 52q-15 0 -23.5 -21.5t-8.5 -50.5l1 -21q2 -30 12 -54zM1263 973q23 23 38 50q20 36 20 60q-2 18 -15 23l-1 1q-10 0 -24 -32q-9 -18 -29 -18q-13 0 -23 10q-27 32 -45 32q-6 -3 -6 -19q0 -30 41 -73q21 -21 44 -34z" />
    <glyph glyph-name="uniE102" unicode="y__" horiz-adv-x="2036" 
d="M1579 893q-5 0 -10 2q-46 17 -84 56q-59 62 -59 118q0 47 37 70q14 9 33 9q29 0 60 -24q26 32 60 32q8 0 15 -2q1 -1 3 -1q18 -6 31 -19q27 -28 27 -64q0 -40 -27 -90q-25 -44 -67 -80q-9 -7 -19 -7zM245 -1490q-165 0 -241 228q-28 88 -28 201q0 233 113 492
q177 405 623 746q2 22 5 43q27 240 27 409q0 98 -9 173q-174 -436 -303 -591q-116 -141 -214 -141q-101 0 -167 113q-79 135 -79 382q0 154 31 309q9 40 37.5 58.5t57.5 18.5q9 0 19 -2q40 -10 58.5 -37.5t18.5 -55.5q0 -11 -2 -22q-27 -134 -27 -269q0 -102 16 -232
q21 -172 88 -172q43 0 114 88q137 162 329 666l2 4q10 54 63 76q18 6 34 6q21 0 40 -9q35 -17 50 -55q31 -89 33.5 -183.5t2.5 -124.5q0 -140 -16 -309q147 91 321 173q-45 102 -45 187q0 90 30 147q42 85 104 85q88 0 102 -162q58 20 99 20q30 0 51 -10q57 -26 57 -88
q0 -40 -29 -83q-35 -53 -115 -94.5t-207 -48.5h-4l-5 -3q-202 -95 -366 -200l-5 -44q-66 -566 -199 -1058q-131 -464 -304 -572q-93 -59 -161 -59zM1741 1239q-13 0 -19 10q-21 36 -21 87q0 68 44 88q11 5 21 5q21 0 35 -16q11 -12 16 -34l14 2q26 0 39 -19q10 -10 10 -32
q0 -50 -68 -77q-33 -14 -71 -14zM1754 1282q22 3 42 11q41 17 41 36q0 5 -0.5 6.5t-5.5 1.5q-7 0 -23 -7q-4 -2 -9 -2q-9 0 -15.5 6t-6.5 15q-1 37 -10 37q-11 0 -17 -15t-6 -35l1 -15q2 -21 9 -39zM1837 867q-18 1 -27 15q-30 51 -30 121q0 98 63 128q14 7 30 7
q29 0 50 -23q15 -16 23 -48q11 2 21 2q36 0 55 -26l2 -3q13 -20 13 -44q0 -69 -98 -109q-48 -19 -102 -20zM1855 929q33 4 61 15q59 23 59 55q-1 4 -2 5.5t-3 2.5t-4 1q-11 0 -33 -11q-6 -3 -13 -3q-13 0 -22 8.5t-9 21.5q-2 40 -15 53q-15 0 -23.5 -21.5t-8.5 -50.5l1 -21
q2 -30 12 -55zM1573 960q23 23 38 50q19 35 19 58q0 13 -9 22q-2 3 -4 4q-11 0 -27 -32q-6 -18 -27 -18q-14 0 -24 11q-27 30 -41 32q-5 0 -7.5 -6t-2.5 -15q0 -29 41 -71v-1q21 -21 44 -34zM185 -1400q32 0 64 30q76 72 162 255q59 119 112 307q112 410 178 899
q-317 -258 -471 -523t-183 -490q-10 -74 -10 -138q0 -104 26 -183q41 -129 73.5 -143t48.5 -14z" />
    <glyph glyph-name="uniE103" unicode="z__" horiz-adv-x="2012" 
d="M114 -42h-25q-20 0 -35 2q-46 8 -70 52q-10 22 -10 44q0 58 54 86q223 113 473 386q117 129 195 244t91 187l4 14l-476 -21q-11 0 -19.5 8t-9.5 21q0 13 8 22t21 10q53 3 148 10q242 20 362 20q46 0 74 -4q40 -8 60.5 -36.5t20.5 -59.5l-1 -15q-19 -100 -110 -241.5
t-225 -289.5q-203 -223 -430 -371l782 29q11 0 19.5 -8t9.5 -21q0 -13 -8.5 -22t-21.5 -10q-823 -32 -834 -33zM1555 726q-5 0 -11 2q-45 17 -83 56q-60 59 -60 115q0 50 38 73q14 9 32 9q30 0 61 -24q26 31 59 31q29 0 50 -22q27 -29 27 -63q0 -40 -27 -90q-25 -45 -67 -80
q-9 -7 -19 -7zM1265 279q-22 0 -34 19q-56 112 -57 160.5t-1 51.5q0 91 30 150q27 54 66 74q19 10 38 10q29 0 56 -25q37 -34 45 -136q58 20 99 20q30 0 52 -10q57 -27 57 -89q0 -39 -29 -82q-35 -53 -115 -94.5t-207 -48.5zM1716 1071q-12 1 -18 11q-21 36 -21 88
q0 65 44 87q10 5 21 5q40 0 51 -51q9 2 16 2q23 0 37 -18q10 -10 10 -33q0 -48 -68 -77q-33 -13 -72 -14zM1729 1115q23 2 43 10q41 17 41 36q0 6 -1 7t-2 1.5t-3 0.5q-7 0 -23 -7q-4 -2 -9 -2q-22 0 -22 21q-1 36 -11 36l-2 1q-8 0 -14 -15.5t-6 -34.5l1 -16q1 -21 8 -38z
M1812 699q-17 1 -26 15q-30 53 -30 123q0 98 62 127q15 7 31 7q28 0 50 -23q15 -17 22 -49q12 3 23 3q35 0 54 -27q14 -14 14 -43q0 -73 -97 -113q-48 -19 -103 -20zM1831 762q32 3 61 15q58 23 58 52q0 6 -1.5 8.5t-6.5 3.5q-11 0 -33 -11q-6 -3 -13 -3q-13 0 -22 8.5
t-10 21.5q-1 52 -16 52l-4 -1q-27 -13 -27 -75l1 -17q3 -29 13 -54zM1549 793q23 23 38 50q19 34 19 58q0 12 -9 22l-5 4l-3 -1q-10 -4 -23 -31q-9 -18 -27 -18q-15 0 -24 11q-28 32 -44 32q-2 0 -5 -6.5t-3 -13.5q0 -31 42 -73q21 -21 44 -34z" />
    <glyph glyph-name="uniE104" unicode="__a" horiz-adv-x="2380" 
d="M1897 53q-92 0 -152 83q-64 88 -66 297q1 127 34 286q-193 -314 -335 -450t-189 -137.5t-49 -1.5q-90 0 -134 84t-44 211q0 136 45 266t132 214q96 88 221 88q166 0 357 -146q9 17 22 41.5t26 48t23 38.5q32 41 79 41q15 0 31 -4q67 -24 67 -91q0 -15 -5 -32
q-87 -271 -87 -456q1 -199 44 -237.5t80 -38.5q38 0 85 28q92 55 195 178q49 57 101 130q10 13 25 13q10 0 19 -6.5t10.5 -14t1.5 -10.5q0 -9 -6 -17q-54 -76 -104 -135q-94 -116 -204.5 -190t-163.5 -77t-59 -3zM458 976q-10 0 -20 7q-42 35 -66 80q-28 50 -28 90
q0 34 27 63q14 14 32 19q3 3 18 3q34 0 59 -31q31 24 61 24q18 0 32 -9q38 -23 38 -72q0 -57 -60 -116q-38 -39 -83 -56q-5 -2 -10 -2zM747 529q-126 7 -206.5 48.5t-115.5 94.5q-28 43 -28 82q0 62 56 89q22 10 52 10q41 0 99 -20q8 102 45 137q27 24 56 24q62 0 105 -84
q29 -59 29 -149q0 -3 -0.5 -52t-57.5 -161q-12 -19 -34 -19zM296 1321q-39 1 -72 14q-68 29 -68 77q0 18 9 31l1 2q14 19 39 19l14 -2q14 50 52 50q11 0 21 -5q44 -21 44 -91q0 -47 -22 -84q-6 -10 -18 -11zM283 1365q7 18 9 38l1 13q0 21 -6.5 37t-16.5 16q-10 -10 -11 -37
q0 -21 -22 -21q-5 0 -9 2q-15 7 -23 7q-2 0 -3 -0.5t-2 -1.5t-1 -7q0 -20 41 -35q20 -8 43 -11zM200 950q-55 0 -102 19q-98 39 -98 113q0 22 13 41l1 2q20 27 54 27q11 0 23 -3q7 32 23 49q21 23 50 23q15 0 30 -7q62 -29 62 -127q0 -70 -30 -123q-9 -14 -26 -14zM181 1012
q10 25 13 54l1 22q0 56 -27 70l-3 1h-2q-2 0 -3 -2q-11 -10 -12 -50q-1 -13 -10 -21.5t-22 -8.5q-7 0 -13 3q-21 11 -32 11q-6 0 -7.5 -2.5t-1.5 -9.5q0 -29 58 -52q29 -12 61 -15zM463 1043q24 13 44 34q42 42 42 73q0 7 -3 13.5t-5 6.5q-15 0 -44 -32q-9 -11 -23 -11
q-19 0 -28 18q-13 27 -23 31l-2 1q-13 -8 -15 -24q0 -24 19 -60q15 -27 38 -50zM1226 257q18 0 39 12q73 39 161 147.5t160.5 219.5t99.5 158q-121 92 -219 92q-106 0 -180.5 -86t-103 -194.5t-28.5 -181.5q0 -51 10 -98q19 -69 61 -69z" />
    <glyph glyph-name="uniE105" unicode="__b" horiz-adv-x="2325" 
d="M1472 -277q-32 0 -64 7q-117 25 -181 103.5t-64 167.5q0 19 2 39q16 112 156.5 215.5t447.5 163.5q-2 65 -14 126q-16 82 -67.5 171.5t-100.5 115t-75 25.5q-50 0 -104 -48q-102 -95 -203 -335q-15 -179 -18 -238q-4 -41 -32 -66.5t-67 -25.5q-40 0 -69 32q-26 28 -26 67
q0 41 45 546q115 1306 214 1820q9 41 37.5 59.5t57.5 18.5q9 0 19 -2q40 -10 58.5 -37.5t18.5 -56.5q0 -10 -2 -21q-59 -305 -121 -887q-61 -573 -100 -1032q72 133 145 203q140 132 257 132q120 0 203 -109.5t120 -294.5q13 -64 17 -132q147 21 151 21q142 18 228 35h6
q9 0 17 -5q15 -9 15 -25q0 -25 -26 -31q-89 -17 -232 -35q-8 0 -159 -22q-4 -276 -164 -477l-3 -4q-76 -84 -147 -133q-90 -51 -176 -51zM458 976q-10 0 -20 7q-42 35 -67 80q-27 50 -27 90q0 34 27 63q21 22 50 22q34 0 59 -31q31 24 61 24q18 0 32 -9q38 -23 38 -72
q0 -57 -60 -116q-38 -39 -83 -56q-5 -2 -10 -2zM747 529q-127 7 -207 48.5t-115 94.5q-28 43 -28 82q0 62 56 89q22 10 52 10q41 0 99 -20q8 102 45 137q27 24 56 24q18 0 38 -10q39 -19 66 -74q30 -59 30 -149q0 -3 -1 -52t-57 -161q-12 -19 -34 -19zM296 1321
q-39 1 -72 14q-68 29 -68 77q0 23 10 33q14 19 39 19l14 -2q14 50 52 50q10 0 20 -5q44 -20 44 -87q0 -52 -21 -88q-6 -10 -18 -11zM283 1365q7 18 8 38l1 16q0 19 -6 34.5t-16 15.5l-3 -2q-7 -7 -8 -35q0 -9 -6.5 -15t-15.5 -6q-5 0 -9 2q-15 7 -23 7q-2 0 -3 -0.5t-2 -1.5
t-1 -7q0 -20 41 -35q20 -8 43 -11zM200 950q-55 0 -102 19q-98 39 -98 113q0 29 14 43q19 27 54 27q11 0 23 -3q7 32 22 49q22 23 51 23q15 0 30 -7q62 -29 62 -127q0 -70 -30 -123q-9 -14 -26 -14zM181 1012q10 25 13 54l1 17q0 62 -27 75l-4 1q-15 0 -16 -52
q-1 -13 -10 -21.5t-22 -8.5q-7 0 -13 3q-22 11 -32 11q-6 -1 -7.5 -3t-1.5 -9q0 -29 58 -52q29 -12 61 -15zM463 1043q23 13 44 34q42 42 42 73q0 7 -3 13.5t-5 6.5q-15 0 -44 -32q-9 -11 -23 -11q-19 0 -28 18q-13 27 -23 31l-3 1l-5 -4q-9 -10 -9 -22q0 -24 19 -58
q15 -27 38 -50zM1364 -133q75 0 174 67q52 36 112 102q105 133 117 320q-232 -46 -357 -123.5t-154 -141t-29 -102.5q0 -30 13 -56q31 -58 74 -62t50 -4z" />
    <glyph glyph-name="uniE106" unicode="__c" horiz-adv-x="2119" 
d="M1288 113q-49 0 -94 8q-100 18 -157 100q-60 95 -60 214q0 126 50 255q53 133 153.5 230t161.5 103t71 6q100 0 180 -111q6 -9 6 -18q0 -15 -14 -25q-7 -5 -16 -5q-17 0 -26 13q-40 57 -83 57q-9 0 -19 -3q-91 -26 -182 -205q-35 -70 -51 -112q-37 -96 -37 -176
q0 -231 221 -231q108 0 227 38q243 78 508 250q9 5 18 5q15 0 24 -14q6 -9 6 -18q0 -15 -15 -24q-252 -164 -521 -262q-206 -75 -351 -75zM457 976q-9 0 -19 7q-42 35 -67 80q-27 50 -27 90q1 36 27 63q21 22 50 22q34 0 59 -31q32 24 61 24q18 0 32 -9q38 -23 38 -71
q0 -56 -60 -117q-38 -39 -84 -56q-5 -2 -10 -2zM747 529q-127 7 -207 48.5t-115 94.5q-28 43 -28 82q0 62 56 89q22 10 51 10q42 0 99 -20q9 102 46 137q27 24 56 24q19 0 38 -10q39 -19 66 -74q30 -59 30 -149q0 -3 -1 -52t-58 -161q-11 -19 -33 -19zM295 1321
q-38 1 -71 14q-68 29 -68 77q0 23 10 33q14 19 39 19l14 -2q5 22 16 34q15 16 35 16q11 0 21 -5q44 -20 44 -89q0 -50 -21 -86q-6 -10 -19 -11zM282 1365q7 18 9 38l1 16q0 19 -5.5 34.5t-17.5 15.5q-9 -9 -10 -37q0 -9 -6.5 -15t-15.5 -6q-5 0 -9 2q-15 7 -23 7
q-1 0 -2.5 -0.5t-2.5 -1.5t-1 -7q0 -20 41 -35q20 -8 42 -11zM200 950q-56 0 -103 19q-97 40 -97 110q0 32 14 46q19 27 54 27q10 0 22 -3q18 72 74 72q15 0 30 -7q63 -30 63 -127q0 -70 -31 -123q-9 -14 -26 -14zM181 1012q10 25 12 54l1 22q0 57 -26 70l-4 1
q-14 0 -16 -52q-1 -13 -10 -21.5t-22 -8.5q-7 0 -13 3q-22 11 -32 11q-7 0 -10 -9q0 -32 59 -55q28 -12 61 -15zM463 1043q23 13 44 34q42 42 42 72q0 8 -2.5 14.5t-5.5 6.5q-15 0 -44 -32q-10 -11 -23 -11q-22 0 -28 18q-13 27 -23 31l-3 1q-14 -9 -14 -26q0 -24 19 -58
q15 -27 38 -50z" />
    <glyph glyph-name="uniE107" unicode="__d" horiz-adv-x="2247" 
d="M1938 -298q-28 0 -53 15q-32 21 -42 61q-47 223 -47 537q0 220 14 442q-187 -502 -381 -685q-102 -90 -153.5 -93t-58.5 -3q-89 0 -154 73q-70 78 -90 239q-4 46 -4 92q0 184 73 371q82 189 181 240.5t178 51.5q54 0 110 -18q139 -45 263 -188q27 76 55 160l88 936
q36 368 57 524q7 40 35.5 61.5t61.5 21.5q49 0 75 -36q21 -28 21 -61l-1 -14q-38 -287 -134 -1343v-1q-43 -411 -43 -771q0 -293 42 -494q3 -12 3 -23q0 -27 -15 -50q-28 -45 -81 -45zM458 988q-10 0 -20 7q-43 36 -67 80q-27 50 -27 90q0 36 27 64q23 22 50 22q33 0 59 -32
q32 25 59 25q19 0 35.5 -10t26 -30t9.5 -42q0 -55 -59 -115q-39 -40 -84 -57q-5 -2 -9 -2zM747 541q-127 8 -207.5 49t-114.5 94q-29 45 -29 85q0 60 57 87q21 10 50 10q42 0 100 -21q9 103 46 137q27 25 56 25q19 0 38 -10q39 -20 67.5 -75.5t28.5 -143.5q0 -5 -1 -55.5
t-58 -161.5q-11 -20 -33 -20zM295 1334q-38 1 -71 14q-68 27 -68 77q0 17 8 30l1 2q15 19 40 19l14 -2q5 23 16 34q15 16 34 16q12 0 22 -5q44 -20 44 -88q0 -50 -21 -87q-7 -9 -19 -10zM282 1378q7 17 9 38l1 15q0 20 -6 35t-17 15q-8 0 -10 -37q-2 -21 -22 -21q-5 0 -9 2
q-15 7 -23 7q-5 0 -5.5 -1.5t-0.5 -6.5q0 -19 41 -36q20 -8 42 -10zM199 962q-55 1 -102 20q-97 40 -97 109q0 33 14 47q19 26 56 26q9 0 20 -2q18 72 73 72q16 0 30 -7q64 -32 64 -129q0 -68 -31 -121q-9 -14 -27 -15zM181 1024q10 25 12 55l1 21q0 29 -8 50.5t-24 21.5
q-12 0 -15 -53q0 -13 -9 -21.5t-22 -8.5q-7 0 -13 3q-22 11 -32 11q-6 0 -7.5 -3t-2.5 -9q0 -28 59 -52q28 -11 61 -15zM463 1056q23 12 44 34q42 43 42 73q0 7 -2.5 13t-8.5 6q-15 -2 -41 -32q-10 -11 -23 -11q-20 0 -29 18q-12 27 -22 32h-3q-13 -5 -15 -23q0 -24 20 -60
q15 -27 38 -50zM1283 69q46 0 112 59q113 109 216 319q67 133 139 323q-134 164 -255 164q-164 0 -274 -258q-54 -136 -54 -318q0 -69 10 -132q17 -108 51.5 -132.5t54.5 -24.5z" />
    <glyph glyph-name="uniE108" unicode="__e" horiz-adv-x="2249" 
d="M1168 510q422 60 537 166q37 33 38 59q0 57 -102 57q-52 0 -119 -16q-97 -23 -188 -77q-132 -78 -166 -189zM456 970q-9 0 -18 7q-43 35 -67 80q-27 49 -27 89q0 36 27 64q23 22 50 22q33 0 59 -32q31 25 59 25q19 0 35.5 -10t26 -30t9.5 -42q0 -55 -59 -115
q-39 -39 -84 -57v1q-5 -2 -11 -2zM749 523h-2q-127 7 -207.5 48.5t-114.5 93.5q-29 45 -29 85q0 60 57 87q21 10 50 10q42 0 100 -21q9 103 46 137q27 25 56 25q19 0 38 -10q39 -20 67.5 -75.5t28.5 -143.5q0 -5 -1 -55.5t-58 -161.5q-10 -19 -31 -19zM295 1315
q-38 1 -71 14q-68 28 -68 77q0 17 8 30l1 2q13 19 37 19q8 0 17 -2q5 23 16 34q15 17 35 17q11 0 21 -5q44 -22 44 -89q0 -48 -21 -86q-7 -10 -19 -11zM282 1359q7 17 9 38l1 16q0 19 -6.5 34t-16.5 15q-8 0 -10 -37q-2 -21 -22 -21q-5 0 -9 3q-14 7 -21 7q-3 0 -5 -0.5
t-4 -5.5q0 -22 42 -39q19 -8 42 -10zM199 943q-55 1 -102 20q-97 40 -97 110q0 32 14 46q20 27 54 27q10 0 22 -3q18 72 73 72q16 0 30 -7q64 -30 64 -128q0 -69 -31 -122h-1q-8 -14 -26 -15zM181 1006q9 24 12 54l1 21q0 29 -8 50.5t-24 21.5q-12 0 -15 -52q0 -13 -9 -21.5
t-22 -9.5q-7 1 -13 4q-21 10 -32 10q-6 0 -7.5 -3t-2.5 -8q0 -29 59 -53q28 -11 61 -14zM463 1037q23 13 44 34q42 43 42 73q0 15 -8 19q-17 0 -44 -32q-10 -10 -23 -10q-20 0 -29 18q-14 32 -23 32l-2 -1q-13 -5 -15 -23q0 -24 20 -60q15 -27 38 -50zM1306 -45
q-94 0 -172 37q-122 57 -167 244q-13 69 -13 136q0 74 16 145q19 87 55 148q94 149 220.5 207t242.5 58q146 0 237 -63q78 -54 78 -128q0 -59 -57 -110q-135 -122 -593 -183q-6 -38 -6 -76q0 -46 9 -92q36 -148 114.5 -178.5t142.5 -30.5q57 0 120 16q138 35 280.5 111
t260 160t179.5 142q9 8 20 8q14 0 23 -9.5t9 -21.5q-1 -13 -10 -22q-83 -78 -227 -179t-315 -187t-282 -109t-165 -23z" />
    <glyph glyph-name="uniE109" unicode="__f" horiz-adv-x="2060" 
d="M1248 -1032q-58 0 -112 35q-84 56 -128 200q-51 196 -51 454q0 287 33 575q27 241 41 314q60 379 181 649q79 173 168.5 219.5t148.5 46.5q84 0 182 -54q16 -10 16 -26q0 -8 -4 -16q-10 -16 -28 -16q-7 0 -14 4q-37 20 -70 20q-30 0 -56 -16q-87 -54 -167 -235
q-143 -316 -204 -886q100 -27 170 -30t90 -3q230 0 421 118q104 64 197 174q10 11 24 11q11 0 21 -8.5t10 -23.5q0 -10 -8 -18q-187 -223 -440 -286q-112 -28 -168 -28h-63q-101 0 -192 17q318 -244 318 -627q0 -118 -28 -241q-21 -90 -63 -167q-68 -115 -130.5 -135.5
t-94.5 -20.5zM458 976q-10 0 -20 7q-42 35 -67 80q-27 50 -27 90q1 36 27 63q21 22 50 22q32 0 59 -31q32 24 61 24q18 0 32 -9q37 -22 37 -72q0 -56 -59 -116q-39 -39 -84 -56q-5 -2 -9 -2zM747 529q-127 7 -207.5 48.5t-114.5 94.5q-28 43 -28 82q0 62 56 89q22 10 51 10
q42 0 99 -20q9 102 46 137q26 24 55 24q64 0 105 -84q30 -57 30 -144q0 -5 -1 -55.5t-58 -162.5q-11 -19 -33 -19zM295 1321q-38 1 -71 14q-68 29 -68 77q0 18 8 31l1 2q16 19 40 19l14 -2q5 22 16 34q15 16 35 16q11 0 21 -5q44 -20 44 -89q0 -50 -21 -86q-6 -10 -19 -11z
M282 1365q7 18 9 38l1 16q0 19 -5.5 34.5t-17.5 15.5q-9 -9 -10 -37q-2 -21 -22 -21q-5 0 -9 2q-15 7 -23 7q-5 0 -5.5 -1.5t-0.5 -7.5q0 -20 41 -35q20 -8 42 -11zM199 950q-55 0 -102 19q-97 40 -97 110q0 32 14 46q19 27 54 27q10 0 22 -3q18 72 74 72q15 0 29 -7
q64 -30 64 -128q0 -69 -31 -122q-9 -14 -27 -14zM181 1012q10 25 12 54l1 22q0 28 -8.5 49.5t-21.5 21.5h-2q-12 0 -15 -52q0 -13 -9 -21.5t-22 -8.5q-7 0 -13 3q-22 11 -32 11q-10 -1 -10 -12q0 -29 59 -52q28 -12 61 -15zM463 1043q23 13 44 34q42 43 42 73q0 7 -2.5 13.5
t-5.5 6.5q-15 0 -44 -32q-10 -11 -23 -11q-22 0 -28 18q-13 27 -23 31l-3 1q-13 -8 -15 -24q0 -24 20 -60q15 -27 38 -50zM1309 -946q56 0 114 108q63 120 77 295q3 36 3 69q0 374 -329 612q-3 -27 -10.5 -173t-7.5 -318q0 -229 29 -398q17 -94 50.5 -144.5t73.5 -50.5z" />
    <glyph glyph-name="uniE110" unicode="__g" horiz-adv-x="2323" 
d="M1313 -1454q-185 0 -286 229q-35 82 -35 202q0 180 90 420l1 1q183 416 540 703q65 52 132 99q31 264 51 455q-194 -349 -335.5 -488.5t-200.5 -145.5t-71 -6q-88 0 -144 70q-65 81 -75.5 171t-10.5 135q0 97 24 202q66 257 173.5 338t214.5 81q46 0 95 -12
q164 -42 339 -197l8 15l2 24q5 41 33 64.5t64 23.5q46 0 73 -32q24 -29 24 -66q0 -31 -53 -500q183 103 370 178q6 2 11 2q21 0 29 -19q3 -6 3 -12q0 -19 -20 -29q-203 -81 -402 -196q-26 -238 -88 -748q-28 -232 -41 -322q-35 -220 -133.5 -375t-201.5 -210t-180 -55z
M457 990q-10 0 -19 7q-42 35 -67 80q-27 50 -27 90q1 36 27 63q21 22 50 22q34 0 59 -31q31 24 61 24q18 0 32 -9q38 -23 38 -73q0 -56 -60 -115q-38 -39 -83 -56q-5 -2 -11 -2zM747 543q-127 7 -207 48.5t-115 94.5q-28 43 -28 82q0 62 56 89q21 10 51 10q41 0 99 -20
q9 102 46 136q27 25 56 25q19 0 38 -10q39 -20 66 -74q30 -59 30 -149q0 -3 -1 -52t-57 -161q-12 -19 -34 -19zM296 1335q-39 1 -72 14q-68 29 -68 77q0 23 10 33q14 18 37 18q8 0 16 -2q11 51 52 51q10 0 20 -5q44 -22 44 -89q0 -50 -21 -86q-6 -10 -18 -11zM283 1379
q7 18 8 38l1 16q0 19 -5.5 34.5t-14.5 15.5l-2 -1q-10 0 -11 -36q0 -21 -22 -21q-5 0 -9 2q-15 7 -23 7q-2 0 -3 -0.5t-2 -1.5t-1 -7q0 -19 41 -36q20 -8 43 -10zM200 963q-55 1 -103 20q-97 40 -97 113q0 29 14 43q20 27 54 27q11 0 23 -3q7 32 22 49q22 23 51 23
q15 0 30 -7q62 -29 62 -127q0 -70 -30 -123q-9 -14 -26 -15zM181 1026q10 25 13 54l1 17q0 62 -27 75l-4 1q-15 0 -16 -52q-1 -13 -10 -21.5t-22 -8.5q-7 0 -13 3q-22 11 -32 11q-6 -1 -7.5 -3.5t-1.5 -8.5q0 -29 58 -52q29 -12 61 -15zM463 1057q23 13 44 34q42 42 42 73
q0 7 -3 13.5t-5 6.5q-15 0 -44 -32q-10 -11 -23 -11q-19 0 -28 18q-13 27 -23 31l-3 1l-5 -4q-9 -10 -9 -22q0 -24 19 -58q15 -27 38 -50zM1253 -1367q47 0 94 35q70 51 130.5 146.5t102.5 203t56 196.5q32 218 110 904q-409 -295 -607 -744q-75 -199 -80.5 -286t-5.5 -114
q0 -105 30 -175q58 -133 103 -149.5t67 -16.5zM1263 106q59 0 162 103q149 146 361 538q-161 143 -297 143q-219 0 -308 -343q-24 -101 -24 -210q0 -78 17 -142q20 -79 52.5 -84t36.5 -5z" />
    <glyph glyph-name="uniE111" unicode="__h" horiz-adv-x="2482" 
d="M1091 -56q-41 2 -67.5 30t-26.5 70q13 379 88 1388q51 686 105 1179q6 41 34.5 63.5t62.5 22.5q48 0 74 -34q23 -29 23 -62l-1 -12q-82 -743 -160 -1964q108 187 215.5 324.5t170.5 164t89 26.5q63 0 116 -70q74 -101 114 -388q15 -127 35 -219q21 -101 61.5 -150.5
t87.5 -49.5q30 0 66 15q132 66 311 221q9 7 20 7q14 0 22.5 -10t8.5 -21q0 -13 -11 -23q-184 -159 -325 -230q-104 -52 -197 -52l-23 1q-102 6 -167 123q-32 65 -49.5 160t-31.5 202q-29 278 -65.5 311.5t-57.5 33.5q-46 0 -108 -79q-90 -113 -221 -328l-70 -110
q-19 -321 -24 -446q-2 -42 -30 -68t-69 -26zM457 951q-9 0 -19 7q-42 35 -67 80q-27 50 -27 90q1 36 27 63q21 22 50 22q34 0 59 -31q31 24 61 24q18 0 32 -9q37 -23 37 -71q0 -56 -59 -117q-38 -39 -83 -56zM747 504q-127 7 -207 48.5t-115 94.5q-28 43 -28 82q0 62 56 89
q21 10 51 10q41 0 99 -20q9 102 46 137q27 24 56 24q18 0 38 -10q39 -19 66 -74q30 -59 30 -149q0 -3 -1 -52t-58 -161q-11 -19 -33 -19zM295 1296q-38 1 -71 14q-68 29 -68 77q0 23 10 33q14 19 39 19l14 -2q5 22 16 34q14 16 35 16q11 0 21 -5q44 -20 44 -89
q0 -50 -21 -86q-6 -10 -19 -11zM282 1340q7 18 9 38l1 16q0 19 -5.5 34.5t-15.5 15.5l-2 -1q-9 0 -10 -36q0 -9 -6.5 -15t-15.5 -6q-5 0 -9 2q-15 7 -23 7q-2 0 -3 -0.5t-2 -1.5t-1 -7q0 -20 41 -35q20 -8 42 -11zM200 925q-55 0 -103 19q-97 40 -97 113q0 29 14 43
q19 27 54 27q10 0 22 -3q18 72 74 72q15 0 30 -7q62 -30 62 -127q0 -70 -30 -123q-9 -14 -26 -14zM181 987q10 25 12 54l1 22q0 57 -26 70l-4 1q-15 0 -16 -52q-1 -13 -10 -21.5t-22 -8.5q-7 0 -13 3q-22 11 -32 11q-6 -1 -7.5 -3.5t-2.5 -5.5q0 -32 59 -55q28 -12 61 -15z
M463 1018q23 13 44 34q42 42 42 72q0 8 -2.5 14.5t-5.5 6.5q-15 0 -44 -32q-10 -11 -23 -11q-22 0 -28 18q-13 27 -23 31l-3 1q-14 -9 -14 -26q0 -24 19 -58q15 -27 38 -50z" />
    <glyph glyph-name="uniE112" unicode="__i" horiz-adv-x="1703" 
d="M1199 1006q-11 0 -21 7q-36 32 -57 83q-20 46 -20 87q0 49 31 78q22 19 47 19q42 0 70 -49q23 12 44 12q26 0 39 -13q31 -24 31 -68q0 -52 -64 -104q-39 -33 -91 -51zM457 963q-10 0 -20 7q-42 36 -66 80q-28 50 -28 90q0 35 27 64q14 13 32 19q4 3 19 3q33 0 58 -32
q33 25 60 25q18 0 34.5 -10t26.5 -30t10 -42q0 -55 -59 -115q-39 -40 -84 -57q-5 -2 -10 -2zM746 516q-126 8 -206.5 49t-115.5 94q-28 44 -28 85q0 60 56 87q22 10 51 10q42 0 100 -21q8 103 46 137q27 25 56 25q19 0 38 -10q39 -20 66 -74q29 -59 29 -150q0 -3 -0.5 -52
t-57.5 -160q-12 -20 -34 -20zM295 1309q-39 1 -72 14q-68 27 -68 77q0 17 9 30l1 2q13 19 39 19l14 -2q14 50 51 50q12 0 22 -5q44 -21 44 -91q0 -46 -22 -84q-6 -9 -18 -10zM282 1353q7 17 9 38l1 12q0 22 -6 38q-7 15 -17 15q-1 0 -2 -2q-8 -7 -9 -35q0 -21 -22 -21
q-4 0 -9 2q-14 7 -22 7q-7 0 -7 -5q0 -22 41 -39q20 -8 43 -10zM199 937q-55 1 -102 20q-97 39 -97 109q0 26 12 44q0 1 2 3q19 26 56 26q9 0 20 -2q7 32 23 49q21 23 50 23q15 0 30 -7q63 -31 63 -128q0 -69 -31 -122q-9 -14 -26 -15zM180 999q10 25 13 55l1 21
q0 29 -9 50.5t-23 21.5q-2 0 -3 -2q-11 -10 -12 -51q-1 -13 -9.5 -21.5t-21.5 -8.5q-8 0 -13 3q-22 11 -33 11q-6 0 -7.5 -2.5t-1.5 -9.5q0 -28 58 -52q29 -11 61 -15zM462 1031q24 12 44 34h1q41 42 41 72q0 20 -11 20q-14 -2 -41 -32q-9 -11 -22 -11q-20 0 -29 18
q-13 27 -23 31l-2 1q-13 -5 -15 -23q0 -24 20 -60q14 -27 37 -50zM1217 149q-71 0 -121 47q-70 67 -70 266q0 142 43 400q7 41 35.5 61.5t60.5 20.5q50 0 76 -36q20 -28 20 -61l-1 -14q-40 -247 -40 -387q0 -127 35 -168q26 -29 65 -29q86 0 286 166l102 83q9 7 21 7
q13 0 22 -12q8 -9 8 -19q0 -14 -12 -24l-103 -83q-267 -218 -427 -218zM1206 1072q30 14 53 33q42 35 42 59q0 6 -2 10.5t-4 6t-4 1.5q-10 -1 -32 -21q-8 -9 -22 -9q-20 0 -29 21q-15 45 -30 45q-2 0 -5 -3q-11 -11 -11 -29q0 -29 15 -66q12 -27 29 -48z" />
    <glyph glyph-name="uniE113" unicode="__j" horiz-adv-x="1627" 
d="M525 -1421q-180 0 -246 229l-1 3q-17 61 -17 143q0 200 103 472v1q180 410 554 686q33 25 66 48q51 481 70 696q4 41 32.5 65t65.5 24q43 0 71 -33q24 -29 24 -66q0 -33 -54 -556q225 124 450 213q6 3 12 3q20 0 28 -20q3 -6 3 -12q0 -20 -20 -28q-242 -96 -481 -231
q-62 -568 -98 -829q-46 -352 -211 -587q-91 -130 -231 -194q-63 -27 -120 -27zM458 957q-10 0 -20 7q-42 36 -67 80q-27 50 -27 90q1 36 27 64q13 13 31 19l4 1q7 2 14 2q34 0 60 -32q31 24 61 24q18 0 32 -9q38 -23 38 -72q0 -55 -60 -116q-38 -39 -83 -56q-5 -2 -10 -2z
M747 510q-127 7 -207 48.5t-115 94.5q-28 43 -28 83q0 62 56 88q21 10 51 10q41 0 99 -20q9 103 46 137q27 25 57 25q62 0 103 -85q30 -58 30 -149q0 -3 -1 -52t-57 -161q-12 -19 -34 -19zM296 1303q-39 0 -72 14q-68 27 -68 77q0 22 10 32q13 19 39 19l14 -2q11 50 52 50
q10 0 20 -5q44 -20 44 -88q0 -51 -21 -87q-6 -10 -18 -10zM282 1346q7 18 9 39l1 15q0 20 -6 35t-16 15q-9 0 -11 -37q0 -9 -6.5 -15t-15.5 -6q-5 0 -9 2q-15 7 -23 7q-4 0 -5 -1.5t-1 -7.5q0 -18 41 -35q20 -8 42 -11zM200 931q-55 1 -103 20q-97 40 -97 112q0 22 12 41
l2 3q19 26 56 26q10 0 21 -2q7 32 22 48q22 23 51 23q15 0 30 -7q62 -30 62 -127q0 -70 -30 -122q-9 -14 -26 -15zM181 993q10 25 13 55l1 17q0 31 -9 53.5t-24 22.5q-13 -13 -14 -53q-1 -13 -10 -21.5t-22 -8.5q-7 0 -13 3q-22 11 -32 11l-8 -2q-1 -3 -1 -10q0 -29 58 -52
q29 -11 61 -15zM463 1024q23 13 44 34v1q42 42 42 72q0 20 -11 20q-14 -2 -41 -32q-10 -11 -23 -11q-22 0 -28 18q-15 32 -26 32q-3 -1 -5 -4q-9 -9 -9 -22q0 -23 19 -58q15 -27 38 -50zM1185 1008q-11 0 -20 7q-36 32 -57 81.5t-21 91.5q0 45 31 75q22 19 48 19
q40 0 70 -49q22 12 44 12q26 0 39 -13q30 -24 30 -67q0 -51 -64 -105q-39 -33 -91 -51zM1193 1074q29 14 53 33q41 35 41 58q0 7 -2 11.5t-3.5 6t-3.5 1.5q-11 0 -32 -21q-9 -9 -22 -9q-20 0 -29 21q-14 38 -27 44l-2 1q-3 0 -6 -3q-11 -10 -11 -32q0 -28 15 -63
q12 -27 29 -48zM464 -1330q50 0 104 48q142 125 222.5 317.5t105.5 377.5q33 240 79 666q-170 -119 -323 -301q-138 -163 -231 -375q-74 -196 -86.5 -297t-12.5 -151q0 -74 15 -129l1 -2q40 -136 76.5 -145t49.5 -9z" />
    <glyph glyph-name="uniE114" unicode="__k" horiz-adv-x="2182" 
d="M1091 -163q-44 0 -72 31q-25 28 -25 68v3q30 538 101 1434q53 658 107 1130q6 41 34.5 63.5t62.5 22.5q47 0 75 -35q22 -29 22 -62l-1 -12q-73 -639 -159 -1806q70 43 164 113q178 133 313 254q10 8 23 8q12 -1 20.5 -10.5t8.5 -19.5q0 -15 -11 -24q-138 -123 -317 -257
q-108 -81 -186 -127q59 -49 122 -119q42 -45 87 -90q80 -81 157 -114t137 -33q59 0 124 21q133 43 308 221q9 9 21 9q13 0 22.5 -9t9.5 -21t-9 -22q-193 -197 -302.5 -231.5t-172.5 -34.5q-70 0 -131 27q-115 50 -206 143q-48 46 -90 92q-53 58 -100 101q-27 -384 -41 -623
q-3 -41 -30.5 -66t-65.5 -25zM457 963q-10 0 -20 7q-42 36 -66 80q-28 52 -28 93q3 35 27 61q14 13 32 19q4 3 19 3q33 0 58 -32q33 25 60 25q18 0 33 -9q38 -22 38 -73q0 -55 -59 -115q-39 -40 -84 -57q-5 -2 -10 -2zM747 516q-127 8 -207.5 49t-114.5 94q-29 45 -29 85
q0 60 56 87q22 10 51 10q42 0 100 -21q9 103 46 137q27 25 56 25q19 0 38 -10q39 -20 66 -74q29 -59 29 -150q0 -3 -0.5 -52t-57.5 -160q-12 -20 -33 -20zM295 1309q-39 1 -72 14q-68 27 -68 77q0 17 9 30l1 2q13 19 40 19l14 -2q12 50 50 50q12 0 22 -5q44 -21 44 -91
q0 -46 -22 -84q-6 -9 -18 -10zM282 1353q7 17 9 38l1 12q0 22 -6 38q-7 15 -17 15q-1 0 -2 -2q-8 -7 -8 -35q-2 -21 -22 -21q-5 0 -10 2q-14 7 -22 7q-7 0 -7 -5q0 -22 41 -39q20 -8 43 -10zM199 937q-55 1 -102 20q-97 39 -97 109q0 26 12 44l2 3q19 26 56 26q9 0 20 -2
q7 32 23 49q21 23 50 23q15 0 30 -7q63 -31 63 -128q0 -69 -31 -122q-9 -14 -26 -15zM180 999q10 25 13 55l1 21q0 29 -9 50.5t-23 21.5q-2 0 -3 -2q-11 -10 -12 -51q-1 -13 -9.5 -21.5t-21.5 -8.5q-7 0 -13 3q-22 11 -33 11q-6 0 -7.5 -2.5t-1.5 -9.5q0 -28 59 -52
q28 -11 60 -15zM462 1031q24 12 45 34q42 43 42 73q0 19 -12 19q-14 -2 -40 -32q-10 -11 -23 -11q-20 0 -29 18q-13 27 -23 31l-2 1q-13 -5 -15 -23q0 -24 20 -60q14 -27 37 -50z" />
    <glyph glyph-name="uniE115" unicode="__l" horiz-adv-x="1906" 
d="M506 1077q42 42 42 73q0 7 -2.5 13.5t-5.5 6.5q-15 0 -44 -32q-9 -11 -22 -11q-20 0 -29 18q-14 29 -25 32q-13 -8 -15 -24q0 -24 19 -60q15 -27 38 -50q24 13 44 34zM180 1012q12 29 14 76q0 60 -30 71q-4 0 -5 -2q-11 -10 -12 -50q-2 -30 -32 -30q-7 0 -12 3
q-22 11 -33 11q-9 0 -9 -12q0 -29 58 -52q29 -12 61 -15zM282 1365q9 24 10 51q0 21 -6.5 37t-16.5 16q-10 -10 -11 -37q0 -21 -22 -21q-5 0 -9 2q-14 7 -22 7q-7 0 -7 -6q0 -23 41 -38q20 -8 43 -11zM457 976q-10 0 -20 7q-42 35 -66 80q-28 50 -28 90q0 34 27 63
q14 14 32 19q4 3 19 3q33 0 58 -31q32 24 62 24q17 0 31 -9q38 -23 38 -72q0 -57 -60 -116q-38 -39 -83 -56q-5 -2 -10 -2zM1407 -126q-31 0 -60 8q-105 31 -172.5 141.5t-92.5 267.5q-19 166 -19 365q0 299 39 695q66 605 156 1133q8 40 36.5 60.5t60.5 20.5q49 0 76 -37
q20 -28 20 -59q0 -9 -2 -17q-90 -524 -154 -1120q-30 -288 -34.5 -450.5t-4.5 -222.5q0 -272 41 -484q14 -76 43.5 -137.5t63.5 -74t52 -12.5q44 0 103 37q181 109 345 499q9 20 28 20q31 0 31 -31q0 -6 -2 -12q-251 -590 -554 -590zM199 950q-55 0 -102 19q-97 39 -97 110
q0 26 12 44l2 2q19 27 53 27q11 0 23 -3q7 32 23 49q21 23 50 23q15 0 30 -7q63 -29 63 -127q0 -70 -31 -123q-9 -14 -26 -14zM295 1321q-39 1 -72 14q-68 29 -68 77q0 18 10 32q14 20 39 20l15 -2q12 50 51 50q11 0 21 -5q44 -21 44 -91q0 -47 -22 -84q-6 -10 -18 -11z
M746 529q-126 7 -206.5 48.5t-115.5 94.5q-28 44 -28 84q0 60 56 87q22 10 52 10q42 0 99 -20q13 161 101 161q64 0 105 -84q29 -59 29 -149q0 -3 -0.5 -52t-57.5 -161q-12 -19 -34 -19z" />
    <glyph glyph-name="uniE116" unicode="__m" horiz-adv-x="3300" 
d="M1049 -26q-47 0 -73 36q-22 28 -22 62l4 41q39 282 66.5 510.5t32.5 378.5q1 41 29 67.5t69 26.5q41 -2 68 -29.5t27 -68.5q-5 -158 -32 -390q77 176 153 280q122 165 204.5 188.5t116.5 23.5q86 0 157 -66q98 -93 127 -315q7 -52 7 -108q57 161 153.5 267t172 129.5
t114.5 23.5q189 0 274 -255q41 -137 65 -341q15 -123 37 -186.5t75 -63.5q62 0 205 107q143 112 221 204q10 10 24 10q10 0 19.5 -8t10.5 -20q0 -13 -8 -23q-81 -95 -230 -212q-185 -141 -310 -141q-37 0 -70 13q-137 55 -178 380q-17 133 -51 239q-63 174 -107 189t-62 15
q-53 0 -107 -54q-71 -71 -135 -185.5t-114 -219.5l-11 -22q-15 -106 -54 -211q-26 -63 -89 -63q-17 0 -36 7q-62 25 -62 90q0 17 5 34q55 153 55 294q0 44 -6 88q-18 146 -65 221.5t-110 75.5q-84 0 -188 -141q-117 -156 -235 -500l-40 -294q-7 -41 -35 -62.5t-62 -21.5z
M457 976q-10 0 -20 7q-42 35 -66 80q-28 50 -28 90q0 34 27 63q14 14 32 19q4 3 19 3q33 0 58 -31q32 24 62 24q17 0 31 -9q38 -23 38 -72q0 -57 -60 -116q-38 -39 -83 -56q-5 -2 -10 -2zM746 529q-126 7 -206.5 48.5t-115.5 94.5q-28 44 -28 84q0 60 56 87q22 10 52 10
q42 0 99 -20q8 102 45 137q27 24 56 24q63 0 105 -84q29 -59 29 -149q0 -3 -0.5 -52t-57.5 -161q-12 -19 -34 -19zM295 1321q-39 1 -72 14q-68 29 -68 77q0 18 9 31l1 2q14 19 39 19l14 -2q14 50 52 50q11 0 21 -5q44 -21 44 -91q0 -47 -22 -84q-6 -10 -18 -11zM282 1365
q7 18 9 38l1 13q0 21 -6.5 37t-16.5 16q-10 -10 -11 -37q0 -21 -22 -21q-5 0 -9 2q-15 7 -23 7q-1 0 -2.5 -0.5t-2.5 -1.5t-1 -7q0 -20 41 -35q20 -8 43 -11zM199 950q-55 0 -102 19q-97 39 -97 110q0 26 12 44l1 2q20 27 54 27q11 0 23 -3q7 32 23 49q21 23 50 23
q15 0 30 -7q63 -29 63 -127q0 -70 -31 -123q-9 -14 -26 -14zM180 1012q10 25 13 54l1 22q0 56 -27 70l-3 1h-2q-2 0 -3 -2q-11 -10 -12 -50q-1 -13 -10 -21.5t-22 -8.5q-7 0 -13 3q-21 11 -32 11q-6 0 -7.5 -2.5t-1.5 -9.5q0 -29 58 -52q29 -12 61 -15zM462 1043
q24 13 44 34q42 42 42 73q0 7 -2.5 13.5t-5.5 6.5q-15 0 -44 -32q-9 -11 -23 -11q-19 0 -28 18q-13 27 -23 31l-2 1q-13 -8 -15 -24q0 -24 19 -60q15 -27 38 -50z" />
    <glyph glyph-name="uniE117" unicode="__n" horiz-adv-x="2533" 
d="M1053 -38q-10 0 -22 2q-40 10 -57.5 38t-17.5 55q0 11 2 22q6 33 24.5 205t34.5 366q9 113 12.5 174t3.5 87t-1.5 36t-1.5 20q0 28 15 53q29 43 83 43q28 0 51 -15q33 -22 42 -62q5 -24 5 -71q0 -136 -26 -403q96 186 239 341q85 93 160 134t131 41q31 0 60 -10
q85 -28 151 -166q47 -104 82 -273q10 -43 17 -96q32 -219 86 -251q32 -18 52 -18q42 0 103 38q115 76 250 241q9 11 23 11q12 0 22 -8t10 -22q0 -11 -8 -20q-140 -172 -264 -254q-83 -53 -133.5 -57.5t-63.5 -4.5q-71 0 -130 35q-70 43 -102 142q-21 70 -35 148
q-16 88 -44 181l-21 79q-40 149 -84.5 158.5t-57.5 9.5q-66 0 -143 -67q-92 -81 -178 -224q-75 -126 -139 -258q-25 -254 -36 -305q-10 -39 -38 -57t-56 -18zM458 875q-11 0 -21 8q-42 35 -66 80q-28 51 -28 92q3 35 28 61q13 13 31 19q4 3 19 3q33 0 58 -32q33 25 60 25
q18 0 33 -9q38 -22 38 -73q0 -55 -59 -115q-39 -40 -84 -57q-5 -2 -9 -2zM749 429h-2q-127 7 -207.5 48.5t-114.5 93.5q-29 45 -29 85q0 60 56 87q22 10 51 10q42 0 100 -21q9 103 46 137q27 25 56 25q19 0 38 -10q39 -20 67.5 -75.5t28.5 -143.5q0 -5 -1 -55.5t-58 -161.5
q-11 -19 -31 -19zM295 1221q-39 1 -72 14q-68 27 -68 77q0 16 9 30l1 2q13 19 40 19l14 -2q5 23 16 34q14 16 34 16q12 0 22 -5q44 -20 44 -91q0 -46 -22 -84q-6 -9 -18 -10zM282 1265q7 17 9 38l1 12q0 22 -6 38q-7 15 -17 15q-8 0 -10 -37q-2 -21 -22 -21q-5 0 -10 2
q-14 7 -22 7q-4 0 -5 -1.5t-2 -3.5q0 -22 41 -39q20 -8 43 -10zM199 849q-55 1 -102 20q-97 39 -97 110q0 32 14 46q19 26 56 26q9 0 20 -2q7 32 23 49q21 23 50 23q15 0 30 -7q63 -29 63 -128q0 -69 -31 -122q-9 -14 -26 -15zM180 912q10 24 13 54l1 21q0 29 -9 50.5
t-23 21.5q-13 0 -15 -53q-1 -13 -9.5 -21.5t-21.5 -8.5q-7 1 -13 3q-22 11 -33 11q-5 0 -7 -2.5t-2 -8.5q0 -29 59 -53q28 -11 60 -14zM462 943q24 13 45 34q42 43 42 73q0 12 -8 19q-17 0 -44 -32q-10 -10 -23 -10q-20 0 -29 17q-12 27 -22 32h-3q-13 -5 -15 -23
q0 -24 20 -60q14 -27 37 -50z" />
    <glyph glyph-name="uniE118" unicode="__o" horiz-adv-x="2238" 
d="M1712 322q25 96 25 209q0 141 -45 270q-51 147 -138 204.5t-170 57.5q-64 0 -141 -25q-127 -46 -130 -180q89 104 222 143q14 3 27 3q25 0 47 -12q33 -19 45 -59q4 -14 4 -27q0 -24 -13 -46q-19 -34 -59 -45q-108 -34 -169 -143q-13 -24 -24 -49l1 -2q78 -119 215 -204
q132 -82 303 -95zM458 977q-10 0 -20 7q-42 35 -67 80q-27 50 -27 90q1 36 27 63q21 22 50 22q32 0 59 -31q32 24 61 24q41 0 59 -40q10 -20 10 -42q0 -55 -59 -115q-39 -39 -84 -56q-5 -2 -9 -2zM747 530q-127 7 -207.5 48.5t-114.5 94.5q-28 43 -28 82q0 62 56 89
q22 10 51 10q42 0 99 -20q9 102 46 136q27 25 56 25q63 0 104 -84q30 -57 30 -144q0 -5 -1 -55.5t-58 -162.5q-11 -19 -33 -19zM295 1322q-38 1 -71 14q-68 29 -68 77q0 18 8 31l1 2q16 18 38 18q8 0 16 -2q11 51 51 51q11 0 21 -5q44 -22 44 -89q0 -50 -21 -86
q-6 -10 -19 -11zM282 1366q7 18 9 38l1 16q0 19 -5.5 34.5t-15.5 15.5l-2 -1q-8 0 -10 -36q-2 -21 -22 -21q-5 0 -9 2q-15 7 -23 7q-5 0 -5.5 -1.5t-0.5 -7.5q0 -20 41 -35q20 -8 42 -11zM199 950q-55 1 -102 20q-97 40 -97 110q0 32 14 46q20 27 54 27q10 0 22 -3
q18 72 74 72q15 0 29 -7q64 -30 64 -128q0 -69 -31 -122q-9 -14 -27 -15zM181 1013q10 25 12 54l1 22q0 28 -8.5 49.5t-21.5 21.5h-2q-12 0 -15 -52q0 -13 -9 -21.5t-22 -8.5q-7 0 -13 3q-22 11 -32 11q-6 -1 -7.5 -4t-2.5 -8q0 -29 59 -52q28 -12 61 -15zM463 1044
q23 13 44 34q42 43 42 73q0 7 -2.5 13.5t-5.5 6.5q-15 0 -44 -32q-10 -11 -23 -11q-22 0 -28 18q-13 27 -23 31l-3 1q-14 -9 -14 -26q0 -24 19 -58q15 -27 38 -50zM1458 46q30 0 59 9q76 22 139 127q21 37 37 79q-178 18 -316 103q-127 78 -208 187q-17 -63 -17 -131
q0 -58 14 -112q21 -73 75.5 -140t113 -94.5t103.5 -27.5zM1379 -40q-152 0 -273 101q-90 75 -126 197q-21 81 -21 165q0 185 91 346l8 15q-6 32 -6 74q0 176 170 238q89 31 164 31q41 0 77 -9q104 -26 176 -105t111 -191q49 -141 49 -294q0 -105 -24 -206q230 6 464 176
q9 6 19 6q14 0 24 -12q7 -9 7 -18q0 -15 -13 -25q-262 -190 -519 -190q-19 -58 -48 -108q-115 -191 -330 -191z" />
    <glyph glyph-name="uniE119" unicode="__p" horiz-adv-x="2287" 
d="M1036 -1244q-41 3 -66.5 31.5t-25.5 67.5l102 2043q3 41 31 66.5t67 25.5q42 0 70 -31q25 -28 25 -67l-12 -240q45 64 132 122.5t173 85t150 26.5q31 0 60 -5q91 -16 145 -100q43 -76 52.5 -142t9.5 -109q0 -47 -7 -95q157 39 361 69h5q10 0 18 -6q13 -9 13 -25
q0 -10 -7 -19t-20 -11q-220 -32 -383 -75q-43 -175 -142 -302q-26 -32 -54 -58q-175 -146 -286 -146l-17 1q-115 13 -136 143q-1 9 -1 19q0 56 58 127q102 119 378 219q27 87 27 180q0 131 -60 190q-45 45 -107 45q-182 0 -370 -295l-81 -1642q-3 -41 -32 -67t-70 -26z
M458 966q-11 0 -21 8q-42 35 -66 80q-28 51 -28 92q3 35 27 61q14 13 32 19q4 3 19 3q33 0 58 -32q33 25 60 25q18 0 33 -9q38 -22 38 -73q0 -55 -59 -115q-39 -40 -84 -57q-5 -2 -9 -2zM749 520h-2q-127 7 -207.5 48.5t-114.5 93.5q-29 45 -29 85q0 60 56 87q22 10 51 10
q42 0 100 -21q9 103 46 137q27 25 56 25q19 0 38 -10q39 -20 66 -74q29 -59 29 -150q0 -3 -0.5 -52t-57.5 -160q-11 -19 -31 -19zM295 1312q-39 1 -72 14q-68 29 -68 77q0 16 9 30l1 2q13 19 40 19l14 -2q5 23 15 34q16 16 35 16q12 0 22 -5q44 -21 44 -91q0 -46 -22 -84
q-6 -9 -18 -10zM282 1356q7 17 9 38l1 12q0 22 -6 38q-7 15 -17 15q-8 0 -10 -37q-2 -21 -22 -21q-5 0 -10 2q-14 7 -22 7q-7 0 -7 -5q0 -22 41 -39q20 -8 43 -10zM199 940q-55 1 -102 20q-97 39 -97 110q0 32 14 46q19 26 56 26q9 0 20 -2q7 32 23 49q21 23 50 23
q15 0 30 -7q63 -29 63 -128q0 -69 -31 -122q-9 -14 -26 -15zM180 1003q10 24 13 54l1 21q0 29 -9 50.5t-23 21.5q-2 0 -3 -2q-11 -10 -12 -51q-1 -13 -9.5 -21.5t-21.5 -8.5q-7 1 -13 3q-22 11 -33 11q-6 0 -7.5 -2.5t-1.5 -8.5q0 -29 59 -53q28 -11 60 -14zM462 1034
q24 13 45 34q42 43 42 73q0 12 -8 19q-17 0 -44 -32q-10 -10 -23 -10q-20 0 -29 18q-16 31 -25 31q-13 -5 -15 -23q0 -24 20 -60q14 -27 37 -50zM1394 -34q69 0 237 215l5 6q37 47 65 109q-231 -94 -304 -185q-43 -52 -43 -86v-9q10 -50 40 -50z" />
    <glyph glyph-name="uniE120" unicode="__q" horiz-adv-x="2375" 
d="M193 966l1 21q0 29 -8.5 50.5t-23.5 21.5q-13 0 -14 -53q-1 -13 -10 -21.5t-22 -8.5q-7 1 -13 3q-22 11 -32 11q-3 0 -5 -0.5t-5 -7.5q0 -31 59 -56q29 -11 61 -14q10 24 12 54zM1909 -870q29 0 62 49q51 75 88 210q26 95 26 214q0 121 -41 232q-52 129 -173 163l-9 2
q-30 -301 -30 -560v-61q7 -199 34.5 -224t42.5 -25zM1291 266q86 0 228 180q80 101 174 268q-102 75 -166 89t-91 14q-178 0 -233 -244q-8 -40 -8 -104q0 -63 16 -120t41 -70t39 -13zM463 943q23 13 44 34q42 42 42 72q0 13 -7 20q-17 0 -45 -32q-10 -10 -23 -10
q-11 0 -20 7q-6 4 -8 10q-13 27 -23 32h-3q-3 -1 -5 -4q-9 -8 -9 -21q0 -24 19 -58q15 -27 38 -50zM282 1265q7 17 9 38l1 15q0 20 -6 35t-17 15q-9 0 -10 -37q0 -9 -6.5 -15t-15.5 -6q-5 0 -9 2q-15 7 -23 7q-3 0 -4.5 -1.5t-1.5 -6.5q0 -19 41 -36q20 -8 42 -10zM458 875
q-10 0 -20 8q-42 35 -67 80q-27 49 -27 89q0 36 27 64q22 22 50 22q34 0 59 -32q32 25 59 25q19 0 35.5 -10t26 -29.5t9.5 -40.5q0 -58 -59 -117q-38 -40 -83 -57zM1827 -976q-72 0 -124 78q-65 96 -65 333q0 467 112 1254q-186 -331 -341 -440q-102 -69 -181 -69
q-32 0 -61 11q-98 38 -131.5 133t-33.5 176q0 54 11 112q47 208 138 262t175 54q49 0 102 -14q146 -38 295 -145q20 37 40 77q8 16 28 48q30 34 77 34q46 0 73 -34q22 -29 22 -63q0 -7 -23 -178v-3q-36 -264 -67 -549q186 78 337 204q91 76 164 185q11 14 25 14
q10 0 19.5 -6t11 -14t1.5 -11q0 -8 -5 -16q-173 -260 -515 -407q131 -47 190 -192q45 -122 45 -253q0 -130 -28 -232q-44 -161 -120.5 -251t-120.5 -94t-50 -4zM200 849q-55 1 -103 20q-97 39 -97 113q0 29 14 43q19 26 56 26q10 0 21 -2q7 32 22 49q22 23 51 23q15 0 30 -7
q62 -30 62 -128q0 -69 -30 -122q-9 -14 -26 -15zM296 1221q-39 1 -72 14q-68 27 -68 77q0 22 10 32q13 19 39 19l14 -2q5 23 16 34q14 16 34 16q11 0 22 -5q44 -20 44 -88q0 -50 -21 -87q-6 -9 -18 -10zM749 429h-2q-127 7 -207 48.5t-115 93.5q-28 43 -28 83q0 62 56 89
q21 10 50 10q42 0 100 -21q9 103 46 137q27 25 56 25q19 0 38 -10q39 -20 66 -74q30 -59 30 -150q0 -3 -1 -52t-57 -160q-11 -19 -32 -19z" />
    <glyph glyph-name="uniE121" unicode="__r" horiz-adv-x="1978" 
d="M1735 -60q-49 0 -81 42q-126 186 -126 429q0 116 9 221q11 127 11 192q0 114 -28 191q-25 68 -88 110q-88 48 -212 91q-57 20 -111 42q-5 -60 -9 -134q-7 -175 -31.5 -361.5t-97.5 -306.5q-10 -13 -25 -13q-9 0 -18.5 6t-11 14t-1.5 10q0 9 5 18q66 108 89 287.5
t30 348.5q5 112 13 190q5 27 31 27q27 0 80 -16q133 -43 316 -130q125 -59 178 -100.5t59.5 -77t6.5 -63.5q0 -35 -6 -81q-9 -91 -9 -221q0 -141 16 -281q20 -175 89 -282q17 -27 17 -56q0 -48 -41 -78q-26 -18 -54 -18zM458 1128q-11 0 -21 8q-42 35 -66 80q-28 49 -28 89
q0 35 27 64q14 13 32 19q4 3 19 3q33 0 58 -32q33 25 60 25q18 0 34.5 -10t26.5 -30t10 -42q0 -55 -59 -115q-39 -40 -84 -57q-5 -2 -9 -2zM748 682h-2q-126 7 -206 49q-144 74 -144 178q0 60 56 87q22 10 51 10q42 0 100 -21q8 103 46 137q27 25 56 25q19 0 38 -10
q39 -20 66 -74q29 -59 29 -150q0 -3 -0.5 -52t-57.5 -160q-11 -19 -32 -19zM295 1474q-39 1 -72 14q-68 29 -68 77q0 17 9 30l1 2q13 18 39 19l15 -2q5 23 15 34q16 16 35 16q12 0 22 -5q44 -21 44 -91q0 -46 -22 -84q-6 -9 -18 -10zM282 1518q7 17 9 38l1 12q0 22 -6 38
q-7 15 -17 15q-9 0 -11 -37q0 -21 -22 -21q-5 0 -9 2q-14 7 -22 7q-7 0 -7 -5q0 -22 41 -39q20 -8 43 -10zM199 1102q-55 1 -102 20q-97 39 -97 110q0 25 12 43q0 2 2 3q19 26 56 26q9 0 20 -2q7 32 23 49q21 23 50 23q15 0 30 -7q63 -29 63 -128q0 -69 -31 -122
q-9 -14 -26 -15zM180 1165q10 24 13 54l1 21q0 29 -9 50.5t-23 21.5q-2 0 -3 -2q-11 -10 -12 -51q-2 -30 -32 -30q-7 1 -12 3q-22 11 -33 11q-6 0 -7.5 -2.5t-1.5 -8.5q0 -29 58 -53q29 -11 61 -14zM462 1196q24 13 44 34h1q41 42 41 73q0 12 -7 19q-17 0 -45 -32
q-9 -10 -23 -10q-19 0 -28 17q-13 27 -23 32h-2q-13 -5 -15 -23q0 -24 20 -60q14 -27 37 -50z" />
    <glyph glyph-name="uniE122" unicode="__s" horiz-adv-x="1969" 
d="M1210 531q175 153 175 286q0 35 -14 62q-34 68 -88 68q-55 0 -103 -39.5t-63 -91.5q-9 -39 -9 -74q0 -110 102 -211zM458 312q-10 0 -20 7q-42 36 -67 80q-27 50 -27 90q0 35 27 64q13 13 32 19l3 1q8 2 15 2q33 0 59 -32q31 24 61 24q18 0 32 -9q38 -23 38 -72
q0 -55 -60 -116q-38 -39 -83 -56q-5 -2 -10 -2zM747 -135q-126 7 -206.5 48.5t-115.5 94.5q-28 43 -28 83q0 62 56 89q21 10 50 10q42 0 101 -21q8 103 45 137q27 25 57 25q61 0 104 -84q29 -59 29 -150q0 -3 -1 -52t-57 -160q-12 -20 -34 -20zM296 658q-39 0 -72 14
q-68 27 -68 77q0 17 9 30l1 2q13 19 39 19l14 -2q14 50 52 50q11 0 21 -5q44 -21 44 -91q0 -47 -22 -84q-6 -10 -18 -10zM283 702q7 17 8 38l1 15q0 20 -6 35t-16 15q-9 0 -11 -37q0 -9 -6.5 -15t-15.5 -6q-5 0 -9 2q-15 7 -23 7q-3 0 -4.5 -1.5t-1.5 -6.5q0 -19 41 -36
q20 -8 43 -10zM200 286q-55 1 -102 20q-98 39 -98 112q0 22 12 41l2 3q19 26 56 26q10 0 21 -2q7 32 22 48q22 23 51 23q15 0 30 -7q62 -29 62 -127q0 -70 -30 -122q-9 -14 -26 -15zM181 348q10 25 13 55l1 19q0 61 -27 72q-3 2 -5 2l-4 -2q-10 -11 -11 -51
q-1 -13 -10 -21.5t-22 -8.5q-7 0 -13 3q-21 11 -32 11q-5 0 -7 -2.5t-2 -9.5q0 -28 58 -52q29 -11 61 -15zM463 379q23 13 44 35q42 42 42 72q0 20 -11 20q-14 -2 -41 -32q-9 -11 -23 -11q-19 0 -28 18q-15 32 -25 32q-4 -1 -6 -4q-9 -10 -9 -21q0 -24 19 -59q15 -26 38 -50
zM1226 -642q-39 0 -76 9q-155 45 -173.5 115.5t-18.5 108.5q0 76 36 162q55 129 148 246t178 184q-46 40 -94 78q-98 75 -179.5 157t-108.5 162.5t-27 144.5t18 139q28 100 94 144.5t143 44.5q86 0 157 -40t104 -108q19 -39 19 -88q0 -158 -191 -328q44 -39 92 -77
q70 -55 137 -115q261 159 500 213l6 1q26 0 31 -25l1 -6q0 -24 -25 -30q-222 -50 -468 -198q105 -104 149 -261q15 -63 15 -122q0 -144 -85 -274q-161 -237 -382 -237zM1094 -507q41 0 104 22q72 26 140 77q161 121 161 280q0 35 -9 73q-32 111 -124 195q-69 -54 -142 -145
t-128.5 -190.5t-68 -152.5t-12.5 -74q0 -45 27 -69q18 -16 52 -16z" />
    <glyph glyph-name="uniE124" unicode="__u" horiz-adv-x="2649" 
d="M1338 8q-85 0 -153 66q-76 75 -110 251q-13 71 -13 152q0 132 36 292q11 40 39 57t54 17q12 0 24 -3q40 -10 57 -38t17 -54q0 -12 -3 -24q-31 -137 -31 -247q0 -63 10 -117q33 -169 83 -203.5t86 -34.5q38 0 79 25q199 122 338 644q1 4 3 7q13 67 82 81l15 1q32 0 57 -19
q31 -23 37 -64q32 -215 82 -330q74 -170 127 -183.5t74 -13.5q67 0 137 53q92 70 186 172q9 9 24 9q11 0 19.5 -9t9.5 -21q0 -12 -9 -22q-82 -87 -182.5 -163t-174 -99t-115.5 -23q-58 0 -113 26q-159 75 -236 454q-72 -228 -156 -365q-72 -117 -167.5 -190.5t-149 -78.5
t-63.5 -5zM457 608q-10 0 -20 7q-42 36 -66 80q-27 50 -27 90q1 36 27 63q13 14 31 20l3 1q8 2 15 2q32 0 60 -32q32 24 61 24q17 0 31 -9q38 -22 38 -72q0 -55 -59 -116q-39 -39 -84 -56q-5 -2 -10 -2zM747 161q-127 7 -207.5 48.5t-114.5 94.5q-29 44 -29 85q0 60 56 86
q22 10 52 10q42 0 99 -20q9 103 46 137q27 25 56 25q63 0 104 -85q30 -56 30 -144q0 -5 -1 -55.5t-58 -162.5q-12 -19 -33 -19zM295 954q-38 0 -71 14q-69 27 -69 80q0 13 9 27l1 2q13 19 40 19l14 -2q5 22 16 34q15 16 35 16q11 0 21 -5q44 -20 44 -91q0 -47 -21 -84h-1
q-6 -10 -18 -10zM282 997q7 18 9 39l1 12q0 21 -6.5 37t-16.5 16q-8 0 -10 -37q-2 -21 -22 -21q-5 0 -9 2q-15 7 -23 7q-4 0 -7 -6q0 -21 41 -38q20 -8 43 -11zM199 582q-55 0 -102 20q-97 39 -97 109q0 24 12 44l2 3q19 26 56 26q9 0 20 -2q8 32 23 48q21 23 50 23
q15 0 30 -7q64 -30 64 -128q0 -70 -32 -122q-8 -14 -26 -14zM180 644q10 25 13 55l1 21q0 29 -8 50.5t-24 21.5q-13 -13 -15 -53q0 -13 -9 -21.5t-22 -8.5q-7 0 -13 3q-22 11 -32 11q-3 0 -6.5 -2.5t-3.5 -9.5q0 -29 59 -52q28 -11 60 -15zM462 675q24 13 45 34v1
q42 43 42 73q0 7 -3 12.5t-6 6.5l-2 -1q-15 -1 -41 -31q-10 -11 -23 -11q-20 0 -29 18q-14 32 -25 32q-13 -5 -15 -24q0 -23 20 -60q15 -27 37 -50z" />
    <glyph glyph-name="uniE125" unicode="__v" horiz-adv-x="2041" 
d="M1385 -111q-28 0 -53 12q-117 57 -192 272t-138 742v11q0 34 20 60q29 37 74 37q36 0 62 -21q31 -24 36 -64q45 -373 92 -578q52 -226 92.5 -289t72.5 -63q15 0 30 11q47 35 94.5 140.5t97.5 240.5q70 190 166 411q55 127 111 218q9 14 27 14q8 0 15 -4q15 -11 15 -26
q0 -9 -5 -17q-82 -136 -216 -474q-21 -52 -41 -105q-66 -173 -131.5 -311.5t-132.5 -186.5q-51 -30 -96 -30zM457 745q-9 0 -19 7q-42 36 -67 80q-27 50 -27 90q0 36 27 64q13 13 31 19l4 1q7 2 14 2q34 0 60 -32q31 24 61 24q18 0 32 -9q37 -23 37 -70q0 -57 -59 -118
q-38 -39 -83 -56zM747 298q-127 7 -207 48.5t-115 94.5q-28 43 -28 83q0 62 56 88q21 10 51 10q41 0 99 -20q9 103 46 137q27 25 57 25q62 0 103 -85q30 -58 30 -149q0 -3 -1 -52t-57 -161q-12 -19 -34 -19zM296 1091q-39 0 -72 14q-68 27 -68 77q0 22 10 32q13 19 39 19
l14 -2q5 22 16 34q14 16 35 16q11 0 21 -5q44 -20 44 -88q0 -51 -21 -87q-7 -10 -18 -10zM282 1134q7 18 9 39l1 15q0 20 -6 35t-17 15l-2 -2q-7 -7 -8 -35q0 -9 -6.5 -15t-15.5 -6q-5 0 -9 2q-15 7 -23 7q-4 0 -5 -1.5t-1 -7.5q0 -18 41 -35q20 -8 42 -11zM200 719
q-55 1 -103 20q-97 40 -97 112q0 22 12 41l2 3q19 26 56 26q10 0 21 -2q7 32 22 48q22 23 51 23q15 0 30 -7q62 -30 62 -127q0 -70 -30 -122q-9 -14 -26 -15zM181 781q10 25 13 55h-1l1 21q0 29 -8.5 50.5t-23.5 21.5q-13 -13 -14 -53q-1 -13 -10 -21.5t-22 -8.5q-7 0 -13 3
q-22 11 -32 11l-8 -2q-1 -3 -1 -10q0 -29 58 -52q28 -11 61 -15zM463 812q23 13 44 34v1q42 42 42 71q0 9 -2.5 15t-8.5 6q-14 -2 -41 -32q-10 -11 -23 -11q-22 0 -28 18q-15 32 -26 32q-3 -1 -5 -4q-9 -9 -9 -22q0 -23 19 -58q15 -27 38 -50z" />
    <glyph glyph-name="uniE126" unicode="__w" horiz-adv-x="2655" 
d="M2152 -101q-91 0 -181 69q-104 80 -185 210l-4 7q-100 161 -136 366q-59 -158 -149 -277q-71 -93 -146 -140q-78 -49 -151 -49q-22 0 -43 4q-92 18 -132 146q-27 94 -27 253q0 210 57 544q9 40 37.5 60t59.5 20q49 0 77 -38q20 -28 20 -59q0 -9 -2 -17q-55 -310 -55 -495
q0 -93 13 -185q10 -76 32 -109.5t46 -33.5q16 0 36 11q65 41 129 125q68 91 119 207.5t69 237.5q0 6 3 11q7 38 34.5 60t62.5 22q43 0 72 -33q25 -28 25 -66l-2 -12q-1 -25 -1 -49q0 -213 117 -402q65 -98 123 -152q66 -62 105.5 -71.5t53.5 -9.5q121 0 140 244q5 43 5 94
q0 207 -69 541v6q0 25 24 31h6q24 0 30 -24q70 -344 70 -557q0 -51 -4 -95q-13 -157 -61 -237q-86 -145 -145 -151.5t-73 -6.5zM457 742q-10 0 -20 7q-42 35 -66 80q-28 50 -28 90q0 34 27 63q14 14 32 20l3 1q8 2 15 2q33 0 59 -32q32 24 62 24q17 0 31 -9q38 -23 38 -72
q0 -57 -60 -116q-38 -39 -83 -56q-5 -2 -10 -2zM746 295q-126 7 -206.5 48.5t-115.5 94.5q-28 44 -28 85q0 61 56 86q22 10 52 10q42 0 99 -20q8 103 46 137q26 24 55 24q64 0 105 -84q29 -58 29 -149q0 -3 -0.5 -52t-57.5 -161q-12 -19 -34 -19zM295 1088q-39 0 -72 14
q-68 27 -68 77q0 17 9 30l1 2q13 18 39 19l15 -2q12 50 51 50q11 0 21 -5q44 -21 44 -91q0 -47 -22 -84q-6 -10 -18 -10zM282 1131q7 18 9 38l1 13q0 21 -6.5 37t-16.5 16q-1 0 -2 -2q-8 -7 -9 -35q0 -21 -22 -21q-4 0 -9 2q-14 7 -22 7q-2 0 -4.5 -1.5t-2.5 -4.5
q0 -21 41 -38q20 -8 43 -11zM199 716q-55 0 -102 19q-97 41 -97 110q0 32 14 46q19 27 56 27q9 0 20 -2q7 32 23 48q21 23 50 23q15 0 30 -7q63 -29 63 -127q0 -70 -31 -123q-9 -14 -26 -14zM180 778q10 25 13 55l1 21q0 28 -8 50q-10 21 -22 21h-2q-2 0 -3 -2
q-11 -10 -12 -50q-2 -30 -32 -30q-7 0 -12 3q-22 11 -33 11q-6 0 -7.5 -2.5t-1.5 -9.5q0 -29 58 -52q29 -12 61 -15zM462 809q24 13 45 34q41 44 41 73q0 8 -2.5 14t-5.5 6q-15 0 -43 -32q-10 -11 -23 -11q-20 0 -29 18q-13 27 -23 31l-2 1q-13 -5 -15 -24q0 -24 20 -60
q14 -27 37 -50z" />
    <glyph glyph-name="uniE127" unicode="__x" horiz-adv-x="1988" 
d="M1028 -319q-22 0 -28 18q-2 8 -2 14q0 7 190 392q-47 52 -83 120q-102 197 -102 474q0 74 8 148q5 41 33 64t62 23q48 0 76 -34q23 -29 23 -64l-1 -9q-8 -75 -8 -143q3 -221 80 -369q4 -8 9 -15l294 594q10 17 28 17q21 0 27 -18q3 -8 3 -14q0 -7 -312 -636
q88 -94 137 -95t52 -1q162 0 344 192q76 81 129 153q10 12 25 12q10 0 19 -7t10.5 -14t1.5 -10q0 -9 -7 -18q-61 -83 -153.5 -182.5t-203 -177t-178 -88t-88.5 -10.5q-91 0 -178 64l-179 -363q-9 -17 -28 -17zM457 791q-10 0 -19 7q-42 35 -67 80q-27 50 -27 90q1 36 27 63
q21 22 50 22q34 0 59 -31q32 24 61 24q18 0 32 -9q38 -23 38 -71q0 -56 -60 -117q-38 -39 -84 -56q-5 -2 -10 -2zM747 344q-127 7 -207 48.5t-115 94.5q-28 43 -28 82q0 62 56 89q22 10 51 10q42 0 99 -20q9 102 46 136q27 25 56 25q19 0 38 -10q39 -20 66 -74
q30 -59 30 -149q0 -3 -1 -52t-58 -161q-11 -19 -33 -19zM295 1136q-38 1 -71 14q-68 29 -68 77q0 23 10 33q14 19 39 19l14 -2q5 22 16 34q15 16 35 16q11 0 21 -5q44 -22 44 -89q0 -50 -21 -86q-6 -10 -19 -11zM282 1180q7 17 9 38l1 16q0 19 -5.5 34.5t-15.5 15.5l-2 -1
q-8 0 -10 -36q0 -21 -22 -21q-5 0 -9 2q-15 7 -23 7q-5 0 -5.5 -1.5t-0.5 -7.5t4 -11q20 -27 79 -35zM199 764q-54 1 -102 20q-97 40 -97 110q0 32 14 46q20 27 54 27q10 0 22 -3q18 72 74 72q15 0 29 -7q64 -30 64 -128q0 -69 -31 -122q-9 -14 -27 -15zM181 827
q10 25 12 54l1 22q0 57 -26 70l-4 1q-14 0 -17 -52q0 -13 -9 -21.5t-22 -8.5q-7 0 -13 3q-22 11 -32 11q-6 -1 -7.5 -3.5t-2.5 -5.5q0 -32 59 -55q28 -12 61 -15zM463 858q23 13 44 34q42 43 42 72q0 8 -2.5 14.5t-5.5 6.5q-15 0 -44 -32q-10 -11 -23 -11q-22 0 -28 18
q-13 27 -23 31l-3 1q-14 -9 -14 -26q0 -24 19 -58q15 -27 38 -50z" />
    <glyph glyph-name="uniE128" unicode="__y" horiz-adv-x="2279" 
d="M1279 -1487q-166 0 -242 228q-28 87 -28 200q0 235 113 493q178 405 623 745q2 22 5 43q28 240 28 409q0 98 -10 173q-174 -436 -303 -591q-116 -141 -214 -141q-101 0 -167 113q-79 135 -79 382q0 155 31 309q9 40 37.5 58.5t57.5 18.5q52 0 78 -39q19 -28 19 -56
q0 -10 -3 -21q-26 -135 -26 -270q0 -101 15 -231q21 -173 88 -173q43 0 114 88q137 162 329 666l2 5q10 53 63 75q18 6 35 6q20 0 39 -9q35 -16 50 -55q31 -89 33.5 -183.5t2.5 -123.5q0 -140 -16 -310q152 94 333 179q7 3 13 3q19 0 28 -17q3 -7 3 -13q0 -21 -18 -28
q-202 -95 -366 -201l-5 -44q-66 -566 -199 -1058q-131 -464 -303 -572q-93 -58 -161 -58zM458 819q-10 0 -20 7q-42 36 -67 80q-27 50 -27 90q1 36 27 63q13 14 31 20q2 0 3 1q8 2 15 2q32 0 60 -32q32 24 61 24q18 0 32 -9q37 -22 37 -72q0 -55 -59 -116q-39 -39 -84 -56
q-5 -2 -9 -2zM747 372q-127 7 -207.5 48.5t-114.5 94.5q-28 43 -28 83q0 62 56 88q22 10 51 10q42 0 99 -20q9 103 46 137q26 24 55 24q64 0 105 -84q30 -56 30 -144q0 -5 -1 -55.5t-58 -162.5q-11 -19 -33 -19zM295 1165q-38 0 -71 14q-68 27 -68 77q0 17 8 30l1 2
q15 19 40 19l14 -2q5 22 16 34q15 16 35 16q11 0 21 -5q44 -20 44 -88q0 -51 -21 -87q-7 -10 -19 -10zM282 1208q7 18 9 39l1 15q0 19 -5.5 34.5t-17.5 15.5q-8 0 -10 -37q-2 -21 -22 -21q-5 0 -9 2q-15 7 -23 7q-5 0 -5.5 -1.5t-0.5 -7.5q0 -18 41 -35q20 -8 42 -11z
M199 793q-55 0 -102 20q-97 40 -97 109q0 24 12 44l2 3q19 26 56 26q9 0 20 -2q8 32 23 48q21 23 51 23q15 0 29 -7q64 -30 64 -128q0 -69 -31 -122q-9 -14 -27 -14zM181 855q10 25 12 55l1 21q0 29 -8 50.5t-24 21.5q-13 -13 -15 -53q0 -13 -9 -21.5t-22 -8.5q-7 0 -13 3
q-22 11 -32 11l-8 -2q-1 -4 -2 -10q0 -29 59 -52q28 -12 61 -15zM463 886q23 13 44 34v1q42 43 42 73q0 7 -2.5 13t-6.5 6l-2 -1q-15 -1 -41 -31q-10 -11 -23 -11q-20 0 -29 18q-14 32 -25 32q-3 -1 -5 -4q-9 -9 -10 -20q0 -24 20 -60q15 -27 38 -50zM1217 -1398q33 0 65 31
q76 70 162 254q59 120 112 307q112 410 178 899q-317 -257 -471 -522.5t-183 -490.5q-10 -74 -10 -138q0 -104 26 -183q41 -128 73.5 -142.5t47.5 -14.5z" />
    <glyph glyph-name="uniE129" unicode="__z" horiz-adv-x="1775" 
d="M781 -40h-25q-21 0 -36 2q-46 9 -70 53q-10 22 -10 43q0 58 54 86q223 113 473 386q117 129 195 244.5t91 186.5l4 15l-473 -22q-13 0 -22 8t-10 21q0 13 8 22t21 10q53 3 148 10q246 20 355 20q51 0 81 -4q40 -8 60.5 -36t20.5 -60l-1 -15q-19 -100 -110 -241.5
t-225 -288.5q-203 -224 -430 -372l779 30q13 0 22 -8.5t10 -21.5q0 -13 -8.5 -22t-21.5 -10q-781 -29 -834 -32q-28 -3 -46 -4zM457 914q-10 0 -19 7q-43 35 -67 80q-27 49 -27 90q1 36 27 63q21 22 50 22q32 0 59 -31q32 24 61 24q41 0 59 -40q10 -20 10 -42
q0 -55 -59 -115q-39 -39 -84 -56q-5 -2 -10 -2zM747 467q-127 7 -207.5 48.5t-114.5 93.5q-29 45 -29 85q0 60 57 87q22 10 51 10q42 0 99 -20q9 102 46 136q27 25 56 25q19 0 38 -10q39 -20 67.5 -75.5t28.5 -143.5q0 -5 -1 -55t-58 -162q-11 -19 -33 -19zM295 1259
q-38 1 -71 14q-68 28 -68 77q0 17 8 31l1 2q14 18 37 18q8 0 17 -2q5 23 16 34q15 17 35 17q11 0 21 -5q44 -22 44 -89q0 -48 -21 -86q-7 -10 -19 -11zM282 1303q7 17 9 38l1 16q0 40 -19 48q-1 1 -2 1h-2q-8 0 -10 -36q-2 -20 -22 -22q-5 1 -9 3q-15 7 -23 7
q-5 0 -5.5 -1.5t-0.5 -7.5q0 -19 41 -36q19 -8 42 -10zM199 887q-55 1 -102 20q-97 40 -97 110q0 32 14 46q20 27 54 27q10 0 22 -3q18 72 73 72q16 0 30 -7q64 -30 64 -128q0 -69 -31 -122q-9 -14 -27 -15zM181 950q10 25 12 54l1 21q0 29 -8.5 50.5t-21.5 21.5h-2
q-12 0 -15 -52q0 -13 -9 -21.5t-22 -8.5q-7 0 -13 3q-22 11 -32 11q-6 -1 -7.5 -4t-2.5 -8q0 -29 59 -52q28 -12 61 -15zM463 981q23 13 44 34q42 43 42 73q0 7 -3 13.5t-6 6.5l-2 -1q-15 -1 -41 -31q-10 -11 -23 -11q-20 0 -29 18q-14 32 -23 32l-2 -1q-13 -5 -15 -23
q0 -24 20 -60q15 -27 38 -50z" />
    <glyph glyph-name="uniE208" unicode="ee" horiz-adv-x="2128" 
d="M1243 61q-99 0 -160 61q-59 58 -74 194q-2 25 -2 50v16q-449 -273 -700 -306q-76 -10 -101 -10q-91 0 -157 45q-85 58 -90 236q1 99 26.5 192.5t56.5 153.5q75 144 192 210.5t235 66.5q117 0 194 -54.5t77 -147.5q0 -51 -49 -101q-116 -119 -519 -178q-19 -69 -20 -140
q5 -192 167 -192q77 0 171 34h3q197 66 521 268q20 113 58 187q72 138 176.5 195t204.5 57q115 0 186 -56q65 -52 65 -130q0 -181 -493 -253q-10 -46 -10 -91q0 -189 206 -189q92 0 176 32q209 74 549 289q8 5 16 5q16 0 26 -14q5 -8 5 -17q0 -17 -14 -26
q-346 -219 -569 -298q-96 -37 -186 -63t-167 -26zM1230 524q300 49 384 133q27 26 29 47q0 48 -68 48q-82 0 -185 -54q-117 -61 -160 -174zM193 555q354 54 454 156q31 31 31 57q0 66 -88 66q-44 0 -103 -19q-81 -25 -157 -79t-115 -128q-11 -23 -22 -53z" />
    <glyph glyph-name="uniE209" unicode="gg" horiz-adv-x="2492" 
d="M328 -1432q-141 0 -243 117q-66 76 -83 214q-4 34 -4 72q0 171 92 421q225 502 677 847q15 126 27 238q-114 -184 -208 -287q-157 -167 -243 -181.5t-110 -14.5q-112 0 -186 91q-79 98 -79 296q0 193 78 371q89 188 185.5 222t160.5 34q75 0 155 -30q148 -56 282 -175
l3 33q5 41 33.5 65t65.5 24q43 0 71 -33q24 -28 24 -63t-47 -444q75 45 150 84q14 146 76 278q82 162 169.5 188t140.5 26q75 0 155 -31q135 -53 253 -161l22 42q6 39 34 60.5t63 21.5q44 0 71 -32q25 -29 25 -66q0 -38 -53 -491q218 119 422 200q7 3 13 3q19 0 28 -20
q2 -5 2 -11q0 -21 -19 -29q-222 -88 -455 -218q-78 -698 -113 -934q-27 -178 -95 -304q-52 -98 -150 -168.5t-159.5 -76t-72.5 -5.5q-102 0 -193 79q-63 56 -90 163q-12 53 -12 117q0 170 83 390q176 398 601 686q32 277 53 472q-162 -293 -286 -424
q-119 -131 -199.5 -158.5t-116.5 -27.5q-201 0 -201 359q-78 -41 -155 -91q-93 -835 -135 -1126q-37 -232 -133 -382q-75 -118 -176.5 -174t-197.5 -56zM1439 163q156 2 454 549q-165 160 -287 160q-125 0 -227 -210q-60 -130 -60 -275q0 -94 26 -156q30 -68 93 -68h1z
M1435 -1178q23 0 46 10q117 53 216 249q52 97 74 242q25 170 92 751l3 20l-16 -11q-362 -261 -519 -616q-58 -154 -68 -237t-10 -125q0 -60 11 -108q21 -88 70 -132q52 -43 101 -43zM333 101q182 8 478 525l10 101l-3 2q-178 173 -324 173q-53 0 -103 -25q-95 -47 -168 -204
q-62 -141 -62 -294q0 -118 38 -193q45 -85 129 -85h5zM246 -1335q17 0 35 5q79 22 148 93t109 137q74 117 105 308q27 184 101 826q7 59 13 119q-94 -77 -182 -165q-269 -264 -429 -620q-87 -237 -87 -397q0 -34 4 -65q14 -119 68.5 -180t114.5 -61z" />
    <glyph glyph-name="uniE210" unicode="ll" horiz-adv-x="1337" 
d="M1216 -727q-50 0 -94 28q-95 60 -160 188q-84 168 -112 352.5t-28 364.5q0 190 16 425q21 362 52 661q-169 -675 -318 -1006q-78 -178 -166.5 -296.5t-145 -142.5t-82.5 -24q-139 0 -180 308q-22 191 -22 392q0 239 27 571q54 685 172 1402q8 41 36 61t59 20q51 0 77 -36
q20 -29 20 -59q0 -9 -1 -17q-116 -708 -170 -1386q-1 -22 -5 -65q-15 -146 -26 -333.5t-11 -301.5t7 -218q17 -179 47 -199.5t47 -20.5q32 0 68 40q92 99 191 324q231 516 464 1662q10 49 38.5 70t60.5 21q49 0 77 -37q20 -28 20 -60l-1 -15q-95 -575 -138 -1257
q-17 -277 -17 -472q0 -155 13 -310q17 -200 73 -372q33 -103 73 -145.5t77 -42.5q27 0 57 17q8 5 17 5q17 0 26 -15q4 -8 4 -16q0 -17 -15 -27q-68 -38 -127 -38z" />
    <glyph glyph-name="uniE211" unicode="oo" horiz-adv-x="2146" 
d="M715 420q3 31 3 62q-2 238 -115 411q-98 132 -274 132q-56 0 -105 -18q-127 -51 -128 -156q0 -25 5 -51q84 111 213 139q10 2 19 2q29 0 54 -17q42 -28 42 -79q0 -30 -16 -55q-22 -32 -62 -41q-89 -23 -137 -138q101 -102 248 -153q111 -38 239 -38h14zM453 102
q40 0 81 13q94 29 147 152q17 43 26 91q-305 0 -516 189q-18 -65 -18 -131q0 -100 39 -174q45 -79 116.5 -109.5t124.5 -30.5zM340 -52q-186 0 -299 202q-62 118 -62 261q0 175 79 322q-23 59 -23 115q0 155 168 218q58 21 123 21q210 0 328 -159q124 -189 126 -446
q0 -29 -3 -57q113 11 235 61q16 158 103 276v23q0 154 153 211q52 19 110 19q186 0 291 -142q109 -166 111 -394q0 -68 -14 -132q181 12 387 157q8 6 18 6q15 0 25 -12q6 -9 6 -18q0 -15 -13 -25q-222 -162 -440 -171q-39 -104 -128 -175q-129 -104 -272 -104
q-186 0 -285 177q-55 107 -55 236q-124 -46 -239 -56q-30 -181 -158 -297.5t-272 -116.5zM1703 345q15 64 16 134q-2 209 -101 359q-86 115 -240 115q-47 0 -89 -15q-86 -34 -106 -106q57 46 130 61q9 2 18 2q29 0 54 -17q42 -29 42 -81q0 -30 -16 -54q-22 -32 -62 -41
q-68 -17 -109 -106l3 -4q66 -99 183.5 -170t276.5 -77zM1481 144q26 0 53 5q94 17 149 135q-164 11 -289 86q-109 65 -178 155q-14 -53 -14 -107q0 -82 33 -145q33 -57 107 -93t139 -36z" />
    <glyph glyph-name="uniE212" unicode="rr" horiz-adv-x="1912" 
d="M832 -32q-49 0 -79 42q-121 180 -148 520q-10 141 -10 265q0 54 2 104v16q0 168 -101 249q-106 86 -310 126q-6 -68 -10 -154q-7 -175 -32 -362t-98 -306q-9 -13 -24 -13q-10 0 -21 7t-11 24q0 8 5 16q66 109 89 288t30 349q6 112 14 190q4 27 32 27q86 -7 193.5 -46
t208 -101.5t165 -138.5t64.5 -158q-2 -50 -2 -102q0 -505 122 -689q18 -26 18 -54q0 -50 -41 -81q-27 -18 -56 -18zM1680 15q-49 0 -79 42q-107 158 -127 446q-9 114 -9 217q0 50 1 98q0 88 -19 144q-22 65 -94 105t-214 73q-5 -55 -8 -125q-6 -148 -27 -306t-83 -260
q-11 -13 -25 -13q-10 0 -21 7t-11 23q0 9 6 18q55 90 74 241t25 293q5 95 12 161q4 27 32 27q124 -10 249.5 -68t210.5 -149.5t87 -201.5q-1 -33 -1 -68q0 -94 8 -199.5t30 -198.5t62 -154q18 -26 18 -54q0 -50 -42 -80q-26 -18 -55 -18z" />
    <glyph glyph-name="uniE213" unicode="ss" horiz-adv-x="1601" 
d="M187 541q140 132 142 246q-1 80 -41.5 112.5t-77.5 32.5q-81 0 -113 -103q-6 -21 -6 -49q0 -146 96 -239zM194 -640q-164 0 -226 159q-16 42 -16 100q0 56 15 127q53 205 372 419q-63 58 -131 108q-101 71 -182 155.5t-112 212.5q-16 77 -16 139q0 54 12 97
q31 107 93.5 135.5t114.5 28.5q31 0 64 -8q86 -22 147.5 -87.5t61.5 -160.5q-4 -136 -158 -286q43 -36 91 -72q96 -69 182 -154l69 43q109 65 184 118q-65 72 -91 181q-15 71 -15 128q0 33 5 61q20 99 78.5 136.5t121.5 37.5q90 0 163 -56q61 -48 75 -126q3 -15 3 -30
q0 -124 -138 -260q42 -36 89 -71q68 -50 131 -107q224 136 437 178h6q28 0 31 -31q0 -24 -26 -30q-195 -38 -403 -162q90 -91 131 -241q13 -56 13 -109q0 -109 -53 -210q-50 -92 -140.5 -154t-159 -75t-102.5 -13q-171 0 -207 161q-5 24 -5 52q0 55 19 127q0 2 1 3
q62 203 295 390q-41 34 -85 67q-70 51 -131 108q-80 -57 -255 -162q80 -93 117 -234q15 -65 15 -125q0 -133 -71 -253q-53 -89 -142 -154q-137 -101 -272 -101zM115 -531q59 2 126.5 47.5t123 102.5t76.5 93q44 71 44 157q0 37 -9 78q-28 101 -94 173q-307 -205 -355 -388
q-14 -64 -14 -113q0 -47 13 -79q29 -71 86 -71h3zM917 549q120 117 120 216q0 11 -2 22q-11 58 -41 79.5t-53 21.5q-68 0 -92 -117q-3 -15 -3 -33q0 -115 71 -189zM841 -432q52 0 115.5 45t116.5 103.5t73 95.5q30 55 30 119q0 32 -7 65q-30 105 -105 176
q-300 -239 -300 -479q0 -22 4 -40q19 -83 45.5 -84t27.5 -1z" />
    <glyph glyph-name="uniE214" unicode="tt" horiz-adv-x="1573" 
d="M284 19q-101 0 -165 53q-103 87 -128 277q-25 183 -25 389q0 314 50 689q59 425 144 785q-237 67 -460.5 122t-362.5 73t-217 18q-77 0 -139 -12q-123 -24 -161 -112q-8 -19 -28 -19q-31 0 -31 30q0 6 2 12q45 106 150.5 132.5t207.5 26.5q213 0 573 -85
q233 -56 480 -126q72 292 131 464q24 66 91 66q15 0 32 -5q38 -14 51.5 -42t13.5 -49q0 -16 -5 -32q-57 -168 -127 -455l2 -1q302 -88 567 -155q130 560 188 589q27 14 48 14q16 0 33 -6q66 -24 66 -90q0 -16 -5 -32q-64 -186 -141 -517q178 -37 302 -37q131 0 175 54
q9 13 23 13q10 0 21 -7.5t11 -23.5q0 -9 -6 -18q-56 -71 -134 -74t-94 -3q-131 0 -311 37q-64 -289 -109 -618q-35 -256 -40.5 -408.5t-5.5 -209.5q0 -607 189 -607q16 0 34 4q91 24 189 109q113 97 215 259q10 15 26 15q8 0 17.5 -6t11.5 -14t2 -11q0 -8 -5 -16
q-106 -171 -227 -274q-163 -139 -334 -139q-85 0 -147 40q-102 66 -134 231q-179 -223 -362 -277q-78 -21 -142 -21zM363 94q21 0 46 6q100 28 209 125q81 72 157 177q-17 151 -17 316q0 297 47 651q46 337 112 635q-269 67 -570 155q-83 -347 -139 -757
q-37 -273 -43 -434.5t-6 -219.5q0 -506 117 -617q39 -37 87 -37z" />
    <glyph glyph-name="uniE215" unicode="th" horiz-adv-x="2392" 
d="M339 -110q-52 0 -101 17q-95 34 -164 157q-64 119 -88 285q-25 187 -25 396q0 309 51 682q43 322 106 612q-104 28 -210 58q-194 55 -382.5 102t-301 60t-168.5 13q-85 0 -153 -18q-112 -30 -154 -127q-8 -19 -27 -19q-32 0 -32 31q0 6 2 11q49 116 151.5 149t211.5 33
q182 0 468 -69q144 -36 607 -164q149 660 212 689q28 14 49 14q16 0 32 -5q66 -24 66 -91q0 -16 -5 -32q-76 -220 -166 -622q203 -50 281.5 -52t87.5 -2q131 0 185 65q8 11 15 12q40 0 40 -29q0 -10 -6 -19q-70 -88 -230 -88q-167 0 -386 53q-59 -280 -102 -590
q-36 -273 -42 -435.5t-6 -221.5q0 -422 89 -589q70 -130 125.5 -145t77.5 -15q76 0 169 65q165 110 374 400q25 421 66 971q51 686 105 1179q6 41 34 63.5t62 22.5q47 0 75 -35q22 -29 22 -73q-76 -689 -153 -1848q146 233 239 316q103 92 172 92q78 0 126 -85
q68 -123 100 -396q43 -403 188 -403q33 0 74 20q127 67 297 214q9 7 23 7q12 -1 20 -10.5t8 -22.5q-1 -13 -11 -21q-174 -150 -309 -223q-134 -66 -220 -66q-101 0 -154 75q-47 67 -69.5 171t-38.5 236q-14 142 -29 230t-38.5 124.5t-46.5 36.5q-22 0 -50 -24
q-106 -93 -289 -405q-27 -416 -32 -570q-2 -41 -30.5 -67t-69.5 -26q-41 2 -67 29.5t-26 69.5q3 95 15 305q-352 -458 -644 -458z" />
    <glyph glyph-name="uniE216" unicode="st" horiz-adv-x="1768" 
d="M185 -637q-188 0 -256 177q-20 50 -20 121q0 51 11 112q18 98 89.5 226.5t178.5 289.5q-94 68 -168 149.5t-103 202.5q-17 76 -17 138q0 44 9 81q29 123 91 148t103 25q45 0 92 -19q89 -36 124 -102t35 -119q0 -51 -21 -110q-31 -78 -117 -167q37 -33 78 -64
q138 207 285.5 465.5t277.5 572.5t213 687q-224 72 -440.5 135t-364.5 88.5t-237 25.5q-59 0 -108 -8q-126 -21 -167 -117q-9 -19 -28 -19q-21 0 -28 15q-4 9 -4 15t3 12q49 116 151 139t184 23q83 0 181 -16q195 -30 423 -95.5t462 -141.5q78 319 141 503q23 66 90 66
q16 0 33 -5q38 -14 51.5 -41.5t13.5 -49.5q0 -16 -5 -32q-62 -182 -138 -500q217 -69 403.5 -116t255.5 -49t76 -2q118 0 163 56q9 12 26 12q9 0 17 -5q13 -10 13 -24q0 -10 -6 -19q-60 -76 -133.5 -77t-79.5 -1q-229 0 -749 165q-75 -330 -128 -712q-37 -273 -43 -437
t-6 -226q0 -390 77 -532q40 -75 84 -89t64 -14q58 0 135 46q166 103 316 341q9 15 26 15q8 0 17.5 -6t11 -14t1.5 -11q0 -8 -4 -16q-158 -252 -335 -361q-159 -97 -277 -97q-56 0 -102 22q-144 68 -182 326q-26 183 -26 389q0 386 83 904q-139 -380 -309 -685.5t-328 -542.5
q103 -74 192.5 -171t130.5 -250q14 -62 14 -120q0 -136 -73 -259q-59 -96 -154.5 -160.5t-166 -77.5t-102.5 -13zM99 -532q56 0 121 38q73 42 133.5 101.5t88.5 105.5q45 72 45 159q0 36 -8 75q-28 102 -94.5 174.5t-146.5 130.5q-104 -156 -172.5 -278t-85.5 -211
q-9 -55 -9 -100q0 -61 16 -102q33 -86 68.5 -89.5t43.5 -3.5zM172 560q77 79 104 147q17 48 17 89t-18 74q-34 61 -87 61q-63 0 -90 -110q-5 -18 -5 -42q0 -135 79 -219z" />
    <glyph glyph-name="uniE217" unicode="ar" horiz-adv-x="2431" 
d="M2202 -58q-50 0 -80 41q-74 109 -100.5 216.5t-26.5 212.5q0 117 10 222q11 158 11 198q0 109 -28 185q-25 68 -89 109q-88 49 -211 91q-57 21 -112 43l-13 -219q-6 -149 -20.5 -267.5t-60 -226t-144.5 -224.5q-94 -116 -204.5 -190t-163.5 -77t-60 -3q-91 0 -151 82
q-64 89 -66 298q1 127 34 286q-193 -314 -335 -450.5t-189.5 -137.5t-50.5 -1q-88 0 -132 84t-44 210q0 137 45 267t132 214q96 88 221 88q166 0 357 -146q9 16 22 40.5t26 48.5t23 39q32 41 79 41q15 0 31 -4q67 -24 67 -92q0 -15 -5 -31q-87 -268 -87 -453
q0 -201 43.5 -240t79.5 -39q39 0 86 28q92 55 195 178q92 109 135 213t57 218q12 96 23 335q6 112 14 190q2 12 11 19.5t20 7.5q26 0 80 -17q126 -39 315 -129q126 -59 179 -100.5t59 -78t6 -66.5q0 -34 -5 -77q-10 -102 -10 -221q0 -141 16 -281q21 -175 89 -282
q18 -26 18 -54q0 -50 -42 -80q-26 -18 -54 -18zM240 257q18 0 39 12q73 39 160.5 147.5t160.5 219.5t100 158q-121 92 -219 92q-106 0 -180.5 -86t-103 -194.5t-28.5 -181.5q0 -51 10 -98q19 -69 61 -69z" />
    <glyph glyph-name="uniE218" unicode="br" horiz-adv-x="2337" 
d="M433 -278q-31 0 -62 7q-117 26 -181.5 104t-64.5 166q0 19 3 40q15 113 156 216.5t447 163.5q-1 65 -13 126q-17 82 -68 171.5t-100 115t-75 25.5q-50 0 -104 -48q-102 -95 -204 -335l-18 -238q-3 -41 -31.5 -66.5t-67.5 -25.5q-40 0 -69 32q-25 28 -25 67q0 41 45 546
q116 1315 213 1820q10 40 37.5 58.5t55.5 18.5q55 0 80 -39q19 -29 19 -57q0 -10 -2 -20q-100 -515 -222 -1919q73 133 146 202q140 132 257 132q120 0 203 -109t120 -294q13 -64 16 -132q223 30 320 71.5t121 132t25 267.5q6 247 21 398q2 12 11 19.5t20 7.5q27 0 80 -17
q123 -38 316 -129q125 -59 178 -100.5t59 -78t6 -66.5q0 -34 -5 -77q-9 -91 -9 -221q0 -141 16 -281q20 -175 89 -282q17 -27 17 -56q0 -48 -41 -78q-26 -18 -54 -18q-50 0 -81 41q-127 190 -127 429q0 113 10 222q11 119 11 192q0 115 -28 191q-25 68 -89 109
q-87 49 -211 91q-57 21 -111 43q-11 -127 -18 -347q-2 -203 -29 -303.5t-136.5 -144.5t-359.5 -77q-4 -274 -164 -477q-72 -83 -150 -137q-91 -52 -178 -52zM326 -133q76 0 174 66q53 37 113 102q104 136 116 321q-231 -46 -356 -123.5t-154.5 -141t-29.5 -101.5
q0 -30 14 -57q30 -58 73 -62t50 -4z" />
    <glyph glyph-name="uniE219" unicode="cr" horiz-adv-x="2170" 
d="M1934 -58q-50 0 -80 41q-127 187 -127 429q0 117 10 222q11 118 11 198q0 109 -28 185q-25 68 -89 109q-88 49 -211 91q-57 21 -112 43q-4 -46 -15 -260q-7 -231 -33.5 -355t-123 -204t-315.5 -177q-76 -36 -185 -76q-202 -75 -351 -75q-49 0 -94 8q-101 18 -158 100
q-59 95 -59 213q0 127 50 256q53 133 153.5 229.5t161.5 103t70 6.5q101 0 181 -111q6 -9 6 -18q0 -15 -14 -25q-8 -5 -17 -5q-15 0 -26 13q-40 57 -82 57q-9 0 -19 -3q-52 -15 -99.5 -75.5t-83 -130t-50.5 -111.5q-35 -88 -38 -172q0 -235 222 -235q179 0 406 107
q203 91 293 165t114 185.5t33 387.5l4 74q5 110 13 187q2 12 11 19.5t21 7.5q26 0 79 -17q123 -38 316 -129q125 -59 178 -100.5t59 -78t6 -66.5q0 -34 -5 -77q-9 -91 -9 -221q0 -141 16 -281q20 -175 88 -282q18 -26 18 -54q0 -50 -41 -80q-26 -18 -55 -18z" />
    <glyph glyph-name="uniE220" unicode="er" horiz-adv-x="2315" 
d="M186 510q422 60 537 166q37 32 37 59q0 57 -105 57q-50 0 -115 -16q-97 -24 -188 -77q-132 -78 -166 -189zM2084 -58q-50 0 -80 41q-74 109 -100.5 216.5t-26.5 212.5q0 113 10 222q11 119 11 192q0 115 -28 191q-25 68 -89 109q-87 49 -211 91q-57 21 -111 43
q-4 -36 -9 -134q-13 -319 -60.5 -493.5t-185.5 -289t-424 -252.5q-266 -136 -456 -136q-93 0 -170 36q-123 57 -168 245q-14 71 -14 139q0 72 16 142q19 87 55 148q94 149 220.5 207t241.5 58q148 0 239 -63q78 -54 78 -131q0 -55 -58 -107q-136 -122 -593 -183
q-6 -38 -6 -76q0 -46 9 -92q33 -135 107 -172t150 -37q134 0 323 89q274 122 404.5 232.5t174.5 278t56 460.5q5 112 13 190q2 12 11 19.5t20 7.5q27 0 80 -17q123 -38 316 -129q125 -59 178 -100.5t59 -78t6 -66.5q0 -34 -5 -77q-9 -91 -9 -221q0 -141 16 -281
q20 -175 89 -282q17 -27 17 -56q0 -48 -41 -78q-27 -18 -55 -18z" />
    <glyph glyph-name="uniE221" unicode="fr" horiz-adv-x="2146" 
d="M204 -1033q-58 0 -113 36q-84 56 -128 200q-51 199 -51 461q0 281 33 568q27 240 41 314q60 379 181 649q79 173 168 219.5t150 46.5q83 0 182 -54q15 -10 15 -27q0 -8 -4 -15q-10 -16 -26 -16q-8 0 -16 4q-37 20 -70 20q-29 0 -55 -16q-56 -34 -97 -102
q-201 -329 -275 -1019q101 -27 171 -30t89 -3q102 0 210 27q237 64 345.5 191.5t140 304t40.5 396.5q5 119 13 197q2 12 11 19.5t20 7.5q28 0 80 -17q123 -38 316 -129q125 -59 178 -100.5t59.5 -78t6.5 -66.5q0 -34 -6 -77q-9 -91 -9 -221q0 -141 16 -281q20 -175 89 -282
q17 -26 17 -54q0 -50 -41 -80q-27 -18 -55 -18q-50 0 -80 41q-74 109 -100.5 216.5t-26.5 212.5q1 113 10 222q11 119 11 192q0 115 -28 191q-25 68 -89 109q-87 49 -211 91q-57 21 -111 43q-4 -36 -9 -134q-9 -236 -45.5 -427t-154.5 -326t-371 -203q-113 -28 -169 -28h-62
q-102 0 -192 17q318 -247 318 -628q0 -113 -29 -240q-21 -90 -63 -167q-68 -115 -130 -136t-94 -21zM264 -946q56 0 115 108q79 155 79 368q0 369 -329 608q-3 -27 -10 -166t-7 -291q0 -627 152 -627z" />
    <glyph glyph-name="uniE222" unicode="gr" horiz-adv-x="2362" 
d="M315 -1448q-186 0 -287 230q-35 82 -35 202q0 177 91 420q184 418 540 704q65 52 133 99l51 455q-195 -349 -336.5 -488.5t-200 -145.5t-70.5 -6q-88 0 -145 70q-64 81 -75 170.5t-11 135.5q0 96 24 202q66 257 174 338t213 81q46 0 96 -13q164 -42 339 -196l8 15l2 24
q5 41 33 64.5t64 23.5q46 0 74 -32q24 -29 24 -66q0 -31 -54 -500q100 54 176 83q70 28 122 59t87 89.5t55 166.5q32 204 40.5 403t23.5 211q9 7 20 7q31 0 80 -16q140 -46 316 -129q125 -59 178 -101t59 -78t6 -66q0 -35 -5 -78q-9 -90 -9 -221q0 -141 16 -280
q20 -175 89 -282q17 -27 17 -55q0 -50 -41 -80q-26 -18 -55 -18q-49 0 -80 42q-74 108 -100.5 216t-26.5 213q1 113 10 221q11 122 11 193q0 114 -28 190q-25 69 -89 110q-88 49 -211 91q-57 21 -111 43q-4 -42 -9 -135q-7 -195 -38 -399q-23 -134 -58 -202t-87 -100.5
t-129 -60.5q-95 -34 -238 -113q-26 -238 -88 -748q-28 -232 -41 -323q-34 -219 -133 -374t-201.5 -210.5t-179.5 -55.5zM255 -1360q47 0 93 35q70 51 130.5 146.5t103 203t55.5 196.5q32 218 110 904q-220 -164 -379 -363q-134 -168 -228 -381q-74 -199 -80 -285.5
t-6 -113.5q0 -105 31 -176q57 -133 102.5 -149.5t67.5 -16.5zM265 113q58 0 161 103q150 146 361 538q-161 143 -297 143q-218 0 -307 -343q-25 -100 -25 -211q0 -77 17 -141q20 -79 52.5 -84t37.5 -5z" />
    <glyph glyph-name="uniE223" unicode="ir" horiz-adv-x="1697" 
d="M148 1005q-11 0 -20 8q-35 32 -56 81.5t-21 91.5q0 45 31 74q22 20 48 20q41 0 70 -49q21 12 43 12q26 0 40 -14q30 -23 30 -66q0 -53 -64 -106q-39 -32 -91 -50zM1467 -58q-50 0 -81 41q-127 190 -127 429q1 113 10 222q11 119 11 192q0 115 -28 191q-25 68 -89 109
q-87 49 -211 91q-57 21 -111 43q-9 -91 -15 -273q-2 -130 -15.5 -238.5t-61.5 -202t-154 -179.5q-267 -218 -428 -218q-71 0 -120 47q-71 67 -71 266q0 142 43 400q7 41 36 61.5t60 20.5q49 0 76 -36q21 -28 21 -59l-2 -16q-40 -244 -40 -382q0 -131 36 -173q25 -29 64 -29
q86 0 286 166q96 78 140 166.5t55.5 190t13.5 220.5q10 330 30 347q9 7 20 7q28 0 80 -17q123 -38 316 -129q125 -59 178 -100.5t59.5 -78t6.5 -66.5q0 -34 -6 -77q-9 -91 -9 -221q0 -141 16 -281q20 -175 89 -282q18 -27 18 -56q0 -48 -42 -78q-26 -18 -54 -18zM156 1072
q30 13 54 33q41 36 41 57q0 14 -6 19q-1 1 -3 1q-11 -1 -33 -21q-7 -9 -21 -9q-22 0 -29 21q-16 45 -31 45q-2 0 -5 -3q-11 -11 -11 -28q0 -30 16 -67q11 -27 28 -48z" />
    <glyph glyph-name="uniE224" unicode="or" horiz-adv-x="2291" 
d="M724 324q24 96 24 209q0 140 -44 270q-51 147 -138.5 204.5t-169.5 57.5q-65 0 -141 -25q-128 -46 -130 -180q88 104 222 143q14 3 27 3q25 0 47 -12q33 -19 45 -59q3 -14 3 -27q0 -24 -12 -46q-19 -34 -59 -45q-108 -34 -169 -143q-13 -24 -24 -49l1 -2
q78 -119 215 -204q132 -82 303 -95zM2055 -58q-49 0 -80 41q-127 190 -127 430q0 112 10 221q10 119 10 192q0 115 -27 191q-25 68 -89 109q-87 49 -211 91q-57 21 -111 43q-11 -123 -14.5 -279.5t-22.5 -278.5t-90.5 -214.5t-230.5 -161.5q-159 -65 -303 -65
q-19 -59 -48 -108q-115 -191 -331 -191q-151 0 -273 101q-147 122 -147 362q0 185 100 360q-7 36 -7 70q0 180 171 243q89 31 164 31q40 0 77 -9q104 -26 175.5 -105t111.5 -191q48 -141 48 -295q0 -104 -23 -206q127 4 266 64t202 153.5t80 212t20 255.5q1 59 5 121
q0 63 13 190q2 12 11 19.5t20 7.5q27 0 80 -17q123 -38 316 -129q125 -59 178 -100.5t59 -78t6 -66.5q0 -34 -5 -77q-9 -91 -9 -221q0 -141 16 -281q20 -175 89 -282q17 -27 17 -56q0 -48 -41 -78q-26 -18 -55 -18zM470 47q29 0 59 9q76 23 139 128q21 36 37 79
q-178 17 -316 103q-127 78 -209 187q-16 -68 -16 -131q0 -58 14 -112q21 -73 75.5 -140t113 -95t103.5 -28z" />
    <glyph glyph-name="uniE225" unicode="ur" horiz-adv-x="2620" 
d="M2382 -58q-50 0 -80 41q-127 187 -127 429q0 117 10 222q10 150 10 192q0 116 -27 191q-25 68 -89 109q-88 49 -211 91q-58 21 -112 43q-6 -71 -13 -231q-7 -186 -28.5 -318.5t-95 -238t-235.5 -212.5q-95 -64 -157.5 -77.5t-90.5 -13.5q-65 0 -124 33q-150 84 -223 447
q-72 -228 -156 -365q-72 -117 -167.5 -190.5t-149.5 -78.5t-64 -5q-84 0 -152 66q-76 74 -110 251q-14 70 -14 151q0 133 37 293q11 40 39 57t54 17q12 0 24 -3q40 -10 57 -38t17 -54q0 -12 -3 -25q-32 -136 -32 -246q0 -63 11 -118q33 -168 82.5 -202.5t85.5 -34.5
q38 0 80 25q199 122 338 644q1 4 3 7q15 76 96 82q33 0 58 -19q31 -24 37 -64q32 -216 82 -330q70 -161 122.5 -179.5t79.5 -18.5q56 0 115 40q145 92 211.5 198.5t86 235.5t27.5 337q2 101 16 237q5 27 33 27q59 -5 214 -67q87 -35 179 -79q126 -59 179 -100.5t59 -78
t6 -66.5q0 -34 -5 -77q-10 -102 -10 -221q0 -141 16 -281q20 -175 89 -282q18 -26 18 -54q0 -49 -42 -80q-26 -18 -54 -18z" />
    <glyph glyph-name=".notdef" horiz-adv-x="1024" 
d="M100 0v1434h824v-1434h-824zM150 50q177 80 358 80t366 -80v1334q-192 -59 -373 -59t-351 59v-1334zM419 334l57 58q11 10 20 10q10 0 22 -11l56 -60q9 -11 9 -20q0 -11 -10 -22l-56 -62q-14 -14 -21 -14q-11 0 -20 10l-61 71q-7 9 -7 18q0 10 11 22zM413 1191
q53 30 112 30q92 0 148 -47.5t56 -127.5q0 -49 -23 -98.5t-87 -129.5q-63 -80 -99 -132t-36 -99q0 -38 24 -133h-32q-35 97 -35 148q0 76 81.5 218t81.5 217q0 57 -33 90t-91 33q-8 0 -16 -1l32 -51q5 -9 5 -17v-4q-2 -11 -14 -20l-66 -50q-16 -10 -23 -10h-1q-10 2 -17 14
l-47 81q-4 7 -4 14q0 2 1 5q1 10 28.5 32.5t54.5 37.5z" />
    <glyph glyph-name="uni0000" horiz-adv-x="0" 
 />
    <glyph glyph-name="uni0000" horiz-adv-x="0" 
 />
    <glyph glyph-name="nonmarkingreturn" horiz-adv-x="508" 
 />
    <glyph glyph-name="space" unicode=" " horiz-adv-x="695" 
 />
    <glyph glyph-name="space" unicode="&#xa0;" horiz-adv-x="695" 
 />
    <glyph glyph-name="exclam" unicode="!" horiz-adv-x="648" 
d="M221 25q-34 0 -56 25q-17 22 -17 48l201 2101q4 32 26 50t50 18q34 0 55 -26q18 -22 18 -50l-202 -2098q-3 -32 -25 -50t-50 -18zM170 -310q-9 0 -16 4q-41 26 -69 73q-35 56 -35 100q0 37 21.5 64t52.5 27q36 0 68 -38q27 19 51 19q15 0 28 -7q2 0 3 -1q16 -10 26 -26
q15 -24 15 -49q0 -45 -49 -100q-34 -41 -68 -58q-17 -8 -28 -8zM173 -244q27 18 47 41q33 37 33 57q0 15 -9 23l-1 1q-11 0 -31 -26q-10 -13 -24 -13q-19 0 -28 17q-22 41 -35 41q-1 0 -2.5 -0.5t-3.5 -3.5q-7 -10 -7 -24q0 -29 25 -70q16 -25 36 -43z" />
    <glyph glyph-name="quotedbl" unicode="&#x22;" horiz-adv-x="631" 
d="M126 1804q-12 0 -24 4q-52 17 -52 71q0 12 55 180q18 52 70 52q12 0 25 -4q51 -19 51 -71q0 -12 -54 -180q-19 -52 -71 -52zM357 1797q-12 0 -24 4q-52 17 -52 69q0 12 4 25l51 157q17 52 71 52q11 0 23 -4q51 -19 51 -70q0 -12 -3 -25l-51 -156q-18 -52 -70 -52z" />
    <glyph glyph-name="numbersign" unicode="#" horiz-adv-x="1340" 
d="M839 268q-42 0 -71 33q-24 28 -24 63l28 354l-321 -27q-31 -177 -40 -263q-4 -41 -33 -64.5t-66 -23.5q-43 0 -70 33q-23 28 -23 63q0 43 32 238q-125 -12 -165 -17h-6q-24 0 -30 26v3q0 26 26 32q46 6 186 19l68 387q-98 4 -168 4l-52 -1q-13 0 -22 8.5t-10 21.5
q0 13 8.5 22t21.5 9q29 1 65 1q71 0 168 -4q39 216 60 365q7 41 35.5 62.5t61.5 21.5q48 0 74 -36q22 -28 22 -62q0 -32 -57 -360l56 -2q111 -6 216 -10l21 257q5 41 33.5 65t65.5 24q43 0 71 -33q24 -29 24 -66l-21 -253h28q65 0 102 4h3q27 0 31 -27l1 -5q0 -10 -7.5 -19
t-20.5 -11q-41 -4 -112 -4h-30l-25 -300q154 13 182 17h3q26 0 32 -27v-3q0 -11 -7 -20t-19 -11q-32 -5 -196 -18l-31 -377q-4 -41 -32.5 -65t-65.5 -24zM462 754l315 26l27 322l-278 13z" />
    <glyph glyph-name="dollar" unicode="$" horiz-adv-x="869" 
d="M344 180q-14 0 -22.5 9.5t-8.5 21.5l17 183q-219 20 -270 151q-10 26 -10 56q0 50 28 112q9 18 28 18q6 0 13 -3q18 -9 18 -28q0 -6 -3 -13q-22 -49 -22 -86q0 -65 68 -104q62 -33 152 -33h5l34 351q-271 226 -271 423q0 68 31 123q42 71 116 109t154 38q18 0 37 -2
l21 223q2 13 11 20.5t20 7.5q14 0 22 -10t8 -21l-22 -232q103 -31 162 -102.5t59 -158.5q0 -17 -2 -34q-4 -27 -31 -27q-14 0 -22 10.5t-8 21.5l1 28q0 70 -44 102q-52 37 -127 38l-40 -424q17 -15 37 -31q194 -157 206 -293l1 -26q0 -65 -34 -108q-78 -97 -264 -99
l-18 -183q-1 -13 -10 -20.5t-20 -7.5zM399 470q64 11 103 43.5t39 83.5q0 41 -48 103q-26 32 -65 67zM389 1000l35 369q-126 -18 -162 -81q-12 -21 -12 -50q0 -97 139 -238z" />
    <glyph glyph-name="percent" unicode="%" horiz-adv-x="933" 
d="M195 1320l7 1q48 10 63 58q8 23 8 48q0 30 -12 56q-18 42 -63 47l-4 1q-54 -4 -73 -59q-9 -26 -9 -54q0 -91 76 -98h7zM239 125q-12 0 -24 4q-51 17 -51 71q0 12 455 1436l-331 -84q46 -49 46 -128q0 -81 -51 -130q-29 -27 -73 -34q-12 -2 -22 -2q-100 4 -129 100
q-9 29 -9 61q0 39 13 74q36 97 130 99q498 125 508 125q11 0 22 -3q52 -19 52 -71q0 -12 -466 -1466q-17 -52 -70 -52zM636 330q58 3 76 55q9 22 9 53q0 21 -6 41q-16 55 -71 61q-55 -3 -75 -59q-9 -26 -9 -54q0 -91 76 -97zM636 268q-97 4 -129 99q-8 28 -8 56q0 43 12 80
q16 44 49.5 71.5t82.5 27.5q50 0 85 -32q55 -50 55 -139q-2 -88 -61 -136q-34 -27 -86 -27z" />
    <glyph glyph-name="ampersand" unicode="&#x26;" horiz-adv-x="1288" 
d="M410 197q140 0 309 122q33 24 60 48q-8 9 -15 19q-183 243 -291 450q-82 -84 -149 -164q-125 -150 -125 -259q0 -99 59 -161q53 -55 150 -55h2zM1116 38h-10q-9 0 -17 6q-143 115 -272 275q-14 -14 -61 -50q-186 -133 -346 -133h-15q-80 0 -153 24q-178 58 -191 234
l-1 22q0 162 157 349q75 89 198 217q-61 148 -61 294q0 43 5 85q11 75 48.5 155t98.5 137q67 62 151 62q99 0 164 -78q47 -59 52 -161v-7q-9 -160 -110.5 -305t-235.5 -280q108 -211 305 -473q105 111 149 213q8 19 27 19q22 0 28 -16q4 -8 4 -14t-2 -12q-51 -116 -167 -239
q127 -157 266 -270q11 -9 11 -25q0 -10 -7 -19t-15 -10zM452 1032q105 110 180.5 221.5t81.5 219.5q-3 49 -21 72q-32 38 -72 38q-64 0 -124 -77q-47 -62 -70 -159q-13 -50 -13 -106q0 -97 38 -209z" />
    <glyph glyph-name="quotesingle" unicode="'" horiz-adv-x="400" 
d="M125 1749q-12 0 -23 4q-52 19 -52 70q0 12 4 25l51 157q17 52 71 52q11 0 23 -4q51 -19 51 -70q0 -12 -3 -25l-51 -156q-10 -30 -32 -41.5t-39 -11.5z" />
    <glyph glyph-name="parenleft" unicode="(" horiz-adv-x="613" 
d="M358 93q-172 0 -249 229q-59 175 -59 462q0 341 77 664q48 198 112.5 325.5t134.5 138.5h8q27 0 47 -16q27 -23 27 -59q0 -26 -17.5 -48t-48.5 -26q-35 -6 -70 -113.5t-64 -276t-45 -358.5q-11 -124 -11 -240q0 -252 50 -404q44 -128 117 -128l22 2q25 0 45 -15
q29 -22 29 -60q0 -25 -14 -45q-17 -24 -49 -29q-22 -3 -42 -3z" />
    <glyph glyph-name="parenright" unicode=")" horiz-adv-x="631" 
d="M183 31h-9q-26 0 -46 16q-28 23 -28 59q0 26 18 48t50 26q32 7 64 121.5t56.5 295.5t36.5 388q6 105 6 207q0 330 -59 524q-51 156 -127 156l-21 -2q-25 0 -44 15q-30 22 -30 60q0 25 15 45q18 24 49 29q18 2 36 2q181 0 264 -259q67 -217 67 -569q0 -349 -64 -668
q-42 -212 -103 -347.5t-131 -146.5z" />
    <glyph glyph-name="asterisk" unicode="*" horiz-adv-x="654" 
d="M288 1742h-6q-27 0 -49 17t-27 48q-18 -12 -38 -12q-38 0 -62 31q-14 21 -14 44q0 28 18 49l-9 3q-51 19 -51 70q0 12 4 25q19 51 71 51q13 0 56 -15q-2 13 -2 26q0 28 17 49q23 27 56 27q28 0 49.5 -17.5t27.5 -55.5q22 17 47 17q38 0 61 -31q15 -20 15 -44
q0 -32 -25 -55l26 -9q51 -19 51 -71q0 -11 -4 -24q-18 -51 -70 -51q-12 0 -25 4l-51 18l1 -18q0 -28 -18 -50t-49 -26z" />
    <glyph glyph-name="plus" unicode="+" horiz-adv-x="833" 
d="M371 622q-32 1 -53 22t-22 52l-1 173l-75 1q-52 0 -92 -2q-32 0 -55 21t-23 54q0 29 20 50.5t51 24.5q35 1 79 1l95 -1l-1 153q1 31 22 52.5t52 22.5q32 -1 53 -22t22 -53l1 -155l71 -1q50 0 90 2h3q30 0 52.5 -21t22.5 -53q0 -30 -19.5 -51.5t-51.5 -24.5
q-45 -1 -104 -1h-63v-169q0 -32 -21 -53t-53 -22z" />
    <glyph glyph-name="comma" unicode="," horiz-adv-x="401" 
d="M124 -66q-32 0 -56 26q-18 23 -18 50q0 32 26 56q17 13 21 29q2 6 5 71q2 31 23.5 51.5t53.5 20.5q32 -2 52 -23.5t20 -53.5q0 -93 -12.5 -130t-65.5 -79q-23 -18 -49 -18z" />
    <glyph glyph-name="hyphen" unicode="-" horiz-adv-x="853" 
d="M177 847h-23q-104 4 -104 86v3q2 32 24.5 51.5t54.5 19.5q18 -2 33 -10h22q114 0 427 34l18 1q26 0 46 -16q28 -22 28 -57q0 -27 -18 -49.5t-49 -26.5l-21 -2q-317 -34 -438 -34z" />
    <glyph glyph-name="hyphen" unicode="&#xad;" horiz-adv-x="853" 
d="M177 847h-23q-104 4 -104 86v3q2 32 24.5 51.5t54.5 19.5q18 -2 33 -10h22q114 0 427 34l18 1q26 0 46 -16q28 -22 28 -57q0 -27 -18 -49.5t-49 -26.5l-21 -2q-317 -34 -438 -34z" />
    <glyph glyph-name="period" unicode="." horiz-adv-x="423" 
d="M161 -6q-9 0 -19 2q-92 22 -92 98q0 33 21 63q34 47 91 47q12 0 25 -2q86 -23 86 -101q0 -34 -18 -61q-30 -46 -94 -46z" />
    <glyph glyph-name="slash" unicode="/" horiz-adv-x="923" 
d="M126 -63q-26 0 -47 16q-25 20 -27 37t-2 22q0 25 16 46q51 72 252 675q187 560 308 1013q9 31 30.5 43.5t41.5 12.5q9 0 19 -2q31 -9 43.5 -30.5t12.5 -41.5q0 -9 -2 -19q-123 -460 -311 -1024q-211 -627 -276 -719q-20 -25 -37 -27t-21 -2z" />
    <glyph glyph-name="zero" unicode="0" horiz-adv-x="1096" 
d="M499 162q67 0 136 56q105 84 175 288q74 232 74 485q0 172 -39 314q-55 181 -106.5 207.5t-81.5 26.5q-46 0 -93 -35q-77 -57 -141 -162q-146 -239 -175 -596q-4 -54 -4 -104q0 -133 30 -244q55 -178 122.5 -207t102.5 -29zM400 20q-214 0 -313 325q-37 137 -37 295
q0 59 5 121q18 223 84 428q67 200 171 320t175.5 136t99.5 16q84 0 159 -60q100 -80 160 -279q42 -152 42 -333q0 -259 -78 -502q-52 -167 -154.5 -288t-186 -150t-127.5 -29z" />
    <glyph glyph-name="one" unicode="1" horiz-adv-x="649" 
d="M250 -9q-41 2 -67.5 30t-26.5 69q9 217 37.5 494t60 540.5t48.5 437.5q-58 -48 -112 -99q-93 -87 -109 -87q-15 0 -23 10.5t-8 20.5q0 14 11 24q43 36 87 77q29 28 107 97q55 48 97 75q23 14 51 14q45 0 72 -32q24 -29 24 -66q0 -50 -52 -493q-84 -694 -97 -1019
q-3 -41 -31 -67t-69 -26z" />
    <glyph glyph-name="two" unicode="2" horiz-adv-x="1064" 
d="M882 36l-524 9l-149 -2q-40 0 -72 2q-28 3 -52 22q-31 27 -33 48.5t-2 26.5q0 33 23 61q280 340 403 632q106 250 106 446q0 61 -11 106q-17 71 -48.5 114t-71.5 43q-51 0 -110.5 -82.5t-100.5 -240.5q-6 -23 -29 -23q-19 0 -27 13q-5 9 -5 17l1 8q44 169 111 262
q108 152 246 152q146 0 209 -179q28 -85 28 -197q0 -226 -117 -507q-130 -312 -411 -658l637 -11q14 -1 22.5 -10t8.5 -22q-3 -30 -32 -30z" />
    <glyph glyph-name="three" unicode="3" horiz-adv-x="1080" 
d="M433 21q-33 0 -67 4q-146 18 -296 81q-20 10 -20 29q0 21 16 27q9 4 16 4q5 0 11 -2q97 -39 189 -39q72 0 142 24q158 54 252 232q51 101 51 214q0 51 -13 97q-33 113 -88.5 151.5t-115.5 38.5q-87 0 -196 -59q-8 -4 -16 -4q-16 0 -25 15q-5 8 -5 16q0 17 15 26
q125 78 177 184.5t52 199.5q0 50 -11 103q-46 168 -170 168q-94 0 -178 -105q-10 -12 -23 -12q-12 0 -21 7.5t-10.5 14t-1.5 8.5q0 11 8 20q90 110 180 138.5t150 28.5q49 0 95 -13q102 -29 140 -97t38 -131q0 -53 -19 -118q-43 -140 -218 -325q71 13 130 13q92 0 154 -31
q103 -52 143 -154q32 -81 32 -171q0 -144 -81 -311q-88 -167 -198.5 -219.5t-217.5 -52.5z" />
    <glyph glyph-name="four" unicode="4" horiz-adv-x="1129" 
d="M763 12q-42 0 -70 31q-25 28 -25 67l30 619q-186 -26 -194 -26q-1 -1 -3 -1q-200 -26 -246 -36q-77 -15 -106 -15q-19 0 -35 3q-64 25 -64 91q0 16 6 33q43 122 111 360q72 251 132 429q23 65 90 65q16 0 33 -6q65 -23 65 -91q0 -16 -5 -32q-57 -169 -129 -419
q-64 -223 -109 -355q249 35 257 35l200 28l40 821q2 41 30.5 66.5t67.5 25.5q41 0 69 -31q26 -28 26 -67l-38 -785l53 9q9 0 16 -5q14 -9 14 -28q0 -22 -25 -28q-29 -6 -61 -11l-32 -655q-3 -41 -31 -66.5t-67 -25.5z" />
    <glyph glyph-name="five" unicode="5" horiz-adv-x="1091" 
d="M431 69q-40 0 -82 5q-147 19 -268 91q-15 10 -15 27q0 8 4 15q9 16 25 16q9 0 17 -5q131 -74 242 -74q39 0 76 9q140 36 224.5 162t93.5 294v8q0 74 -34 144.5t-89.5 110t-115.5 39.5q-89 0 -250 -74q-19 -10 -37 -21q-44 -30 -77 -30q-42 0 -70 32q-25 29 -25 66l51 679
q4 41 31.5 65t64.5 24h8q124 -7 252 -7q70 0 141 2q85 2 165 2q12 0 21.5 -9t9.5 -22q0 -12 -9.5 -21.5t-21.5 -9.5h-467l1 -9q0 -58 -24 -339l-28 -341q129 57 228 72q78 13 145 13q55 0 102 -9q106 -19 163.5 -105.5t57.5 -261.5v-6q-8 -168 -98 -321q-135 -211 -412 -211
z" />
    <glyph glyph-name="six" unicode="6" horiz-adv-x="1138" 
d="M553 158q76 0 139 57q70 63 98 207q4 25 4 49q0 51 -18 102q-47 124 -123 166.5t-141 42.5q-151 0 -268 -159l-1 -39q0 -90 20 -156q37 -122 112 -191.5t122.5 -74t55.5 -4.5zM508 83q-131 0 -244 59q-134 68 -187 232q-27 89 -27 206q0 68 9 145q31 261 150 526
q105 234 287 416q29 28 66 28q41 0 69.5 -29t28.5 -65q0 -42 -29 -72q-154 -155 -246 -359q-99 -220 -130 -438q70 71 167.5 121.5t152.5 52.5t61 2q96 0 179 -63q98 -83 143 -206q30 -83 30 -168q0 -192 -156 -294q-122 -79 -211.5 -86.5t-112.5 -7.5z" />
    <glyph glyph-name="seven" unicode="7" horiz-adv-x="1219" 
d="M455 -2q-12 0 -25 3q-39 11 -56 39t-17 54q0 12 3 25q99 369 233 769l-345 -56h-6q-25 0 -29 25v6q0 24 25 30l377 61q123 367 197 643q1 5 3 9l-732 -43q-31 0 -33 29q0 29 29 33l807 47l5 1q69 0 95 -45q17 -28 17 -54q0 -12 -3 -24q-64 -242 -170 -561l209 33
q10 0 18 -6q12 -9 12 -26q0 -25 -25 -29l-236 -38l-12 -38q-142 -420 -248 -814q-11 -40 -39 -56.5t-54 -16.5z" />
    <glyph glyph-name="eight" unicode="8" horiz-adv-x="1110" 
d="M424 39q-137 0 -244 67q-80 52 -114 150q-16 48 -16 107q0 119 68 269q54 110 131.5 175.5t167.5 119.5l18 12q-212 192 -212 381q0 63 20 133q35 101 120 151.5t142.5 53.5t69.5 3q89 0 165 -32q148 -60 148 -190q0 -45 -21 -99q-85 -207 -225 -327q19 -18 39 -34
q102 -86 180 -173t94 -192q5 -41 5 -79q0 -279 -219 -407q-134 -79 -218.5 -84t-98.5 -5zM595 1054q135 114 215 310q17 43 17 79q0 40 -21 71q-38 59 -84 67t-63 8q-58 0 -116 -34q-76 -45 -116 -161q-8 -30 -8 -60q0 -60 35 -116q52 -85 141 -164zM380 104q27 0 53 6
q106 22 188.5 104.5t123.5 193.5q21 55 21 124q0 28 -4 59q-9 51 -68.5 112.5t-139.5 128.5l-72 63q-123 -77 -188 -131q-72 -60 -120 -158q-49 -106 -56 -161t-7 -80q0 -50 13 -90q27 -77 90 -118q85 -53 166 -53z" />
    <glyph glyph-name="nine" unicode="9" horiz-adv-x="1078" 
d="M349 1002q31 0 73 34q110 86 254 372q-149 139 -258 139q-150 0 -173 -247q-1 -13 -1 -28q0 -108 27.5 -189t77.5 -81zM466 38q-33 0 -65 6q-91 18 -163 72q-48 37 -83 95.5t-44 113.5t-9 90q0 48 11 101q5 25 29 25q17 0 26 -12q6 -9 6 -17l-1 -8q-9 -49 -9 -92
q0 -99 45 -171q27 -46 66 -76q51 -36 97 -36q32 0 61 18q127 80 166 282q33 180 58 394.5t46 412.5l11 113q-140 -271 -252 -360q-103 -82 -182 -82q-24 0 -46 7q-95 32 -139.5 136.5t-44.5 217.5q0 23 2 47q22 236 103.5 293t156.5 57q51 0 110 -20q142 -50 282 -178l32 69
q6 40 34 61.5t61 21.5q48 0 75 -35q22 -29 22 -62v-12q-17 -137 -33 -293q-52 -523 -105 -823q-24 -128 -72 -211q-55 -94 -125 -119.5t-127 -25.5z" />
    <glyph glyph-name="colon" unicode=":" horiz-adv-x="423" 
d="M162 883l-20 1q-92 22 -92 98q0 35 21 63q34 47 89 47q13 0 27 -2q86 -23 86 -101q0 -33 -18 -61q-30 -45 -93 -45zM162 474l-20 1q-92 22 -92 98q0 35 21 63q34 47 89 47q13 0 27 -2q86 -23 86 -101q0 -33 -18 -61q-30 -45 -93 -45z" />
    <glyph glyph-name="semicolon" unicode=";" horiz-adv-x="437" 
d="M163 883l-21 1q-92 22 -92 98q0 35 21 63q34 47 89 47q13 0 27 -2q86 -23 86 -101q0 -33 -18 -61q-30 -45 -92 -45zM161 320q-33 0 -56 26q-19 23 -19 50q0 32 27 56q17 13 21 29q1 6 5 71q2 31 23.5 51.5t53.5 20.5q32 -2 52 -23.5t20 -53.5q0 -93 -12.5 -130t-65.5 -79
q-23 -18 -49 -18z" />
    <glyph glyph-name="semicolon" unicode="&#x37e;" horiz-adv-x="437" 
d="M163 883l-21 1q-92 22 -92 98q0 35 21 63q34 47 89 47q13 0 27 -2q86 -23 86 -101q0 -33 -18 -61q-30 -45 -92 -45zM161 320q-33 0 -56 26q-19 23 -19 50q0 32 27 56q17 13 21 29q1 6 5 71q2 31 23.5 51.5t53.5 20.5q32 -2 52 -23.5t20 -53.5q0 -93 -12.5 -130t-65.5 -79
q-23 -18 -49 -18z" />
    <glyph glyph-name="less" unicode="&#x3c;" horiz-adv-x="652" 
d="M427 541q-40 0 -180 102q-93 68 -170 137q-27 24 -27 58q0 39 32 62q69 49 133 104q80 69 158 123q20 12 41 12q40 0 63 -34q13 -20 13 -41q0 -40 -35 -63q-72 -49 -145 -112l-66 -54q145 -116 214 -151q44 -21 44 -68q0 -15 -7 -31q-21 -44 -68 -44z" />
    <glyph glyph-name="equal" unicode="=" horiz-adv-x="747" 
d="M469 861l-322 2q-32 1 -53 22t-21 53q1 32 22 53t53 21l322 -2q32 -1 53 -22t22 -53q-1 -31 -22.5 -52t-53.5 -22zM128 664q-32 0 -54 20t-24 52q0 32 20.5 53.5t51.5 23.5q88 3 193 4q173 2 194 6l14 1q23 0 42 -14q32 -22 32 -62q0 -23 -13 -42q-18 -25 -49 -31
q-44 -7 -218 -7q-100 -1 -189 -4z" />
    <glyph glyph-name="greater" unicode="&#x3e;" horiz-adv-x="652" 
d="M125 541q-39 0 -63 35q-12 20 -12 41q0 39 35 62q136 87 221 154q-129 95 -215 148q-37 23 -37 65q0 19 11 38q23 37 65 37q19 0 37 -11q101 -61 204 -140l99 -70q26 -19 29 -37.5t3 -24.5q0 -34 -27 -58q-131 -116 -310 -227q-19 -12 -40 -12z" />
    <glyph glyph-name="question" unicode="?" horiz-adv-x="1130" 
d="M403 -20q-21 0 -29 19q-56 144 -56 287q0 323 245 698q97 145 174 294q94 184 94 358q0 98 -29 159q-70 145 -142 156.5t-96 11.5q-99 0 -209 -62q-144 -80 -214 -229q-21 -48 -30 -102q-4 -26 -30 -26q-15 0 -23 10.5t-8 21.5v3q10 62 34 117q79 170 240 258
q102 57 182.5 68.5t117.5 11.5q227 0 314 -177q42 -89 42 -220q0 -31 -2 -63q-18 -185 -101 -349.5t-188 -320.5q-41 -63 -82 -123q-82 -117 -144.5 -232t-71.5 -191.5t-9 -103.5q0 -107 49 -232q2 -6 2 -12q0 -18 -19 -28q-6 -2 -11 -2zM476 -372q-6 0 -11 2q-45 17 -84 57
q-58 60 -58 115q0 51 37 73q14 8 31 8q30 0 61 -24q28 32 59 32q8 0 16 -2q1 -1 3 -1q18 -6 31 -19q27 -28 27 -64q0 -40 -27 -90q-24 -44 -66 -80q-9 -7 -19 -7zM470 -304q22 23 37 49q20 37 20 61q-1 18 -14 23q-12 0 -26 -32q-9 -18 -28 -18q-14 0 -24 11q-26 30 -41 32
q-4 0 -7 -6t-3 -13q0 -30 41 -73q21 -22 45 -34z" />
    <glyph glyph-name="at" unicode="@" horiz-adv-x="1357" 
d="M595 190q-58 0 -117 9q-174 26 -296 160q-132 162 -132 381q0 155 58 302q69 171 191 279q122 102 241 127.5t191 25.5q280 0 420 -198q56 -80 56 -186q0 -162 -150 -350q-86 -112 -183 -112q-46 0 -82 23q-48 30 -64 80q-55 -82 -103 -117q-58 -41 -124 -41
q-106 0 -145 92q-14 40 -14 92q0 137 59 218q77 105 148.5 115t90.5 10q100 0 183 -76q9 -10 9 -24q0 -11 -9 -20t-21 -9t-22 9q-25 23 -61 23q-55 0 -119 -40q-49 -31 -75 -72q-33 -46 -33 -132q0 -70 17 -94q16 -21 31 -21q81 0 197 227q12 23 20 25.5t13 2.5q22 0 28 -17
q3 -9 3 -14q0 -7 -8 -23q-13 -31 -13 -59q0 -27 13 -50q25 -46 83 -46q61 0 133 88q136 171 136 310q0 88 -45 154q-86 120 -165.5 130t-110.5 10q-99 0 -199 -40q-132 -51 -227.5 -134.5t-150.5 -221.5q-47 -118 -47 -242q0 -170 95 -287q115 -130 218 -159.5t172 -29.5
q70 0 141 20q140 40 264 148q9 8 20 8q14 0 22.5 -9.5t8.5 -20.5q0 -14 -10 -24q-126 -109 -272.5 -154.5t-263.5 -45.5z" />
    <glyph glyph-name="A" unicode="A" horiz-adv-x="3211" 
d="M2438 -358q-56 0 -100 50q-105 125 -154 450q-54 354 -69 1019q-95 -2 -193 -2q-162 0 -332 6q-165 6 -324 6q-89 0 -176 -2q-287 -606 -338 -733q-222 -401 -425 -401q-145 0 -222 91.5t-91 189t-14 154.5q0 76 14 149q52 259 207 388t373 173t457 49q414 855 710 1252
q104 135 190 182t138 47q44 0 83 -24q83 -53 103 -259q18 -279 23 -767l9 -425q386 37 550 209q9 10 24 10q11 0 20 -8.5t9 -23.5q0 -11 -8 -20q-180 -190 -594 -229q10 -438 41 -798q3 -26 5 -66q5 -88 18 -201.5t43 -202.5t62 -97.5t38 -8.5q54 0 135 98q83 105 146 251.5
t88 278.5q4 25 30 25q16 0 24 -12q7 -9 7 -18l-1 -6q-26 -139 -92 -293t-154 -264q-122 -179 -179 -198t-81 -19zM1931 1220q93 0 183 2q-6 223 -9 435q-5 474 -24 755l-1 14q-6 84 -23 138.5t-54 54.5q-10 0 -22 -4q-56 -17 -173 -168q-285 -380 -688 -1216l126 1
q170 0 344.5 -6t340.5 -6zM331 97q162 4 367 369l15 34q73 170 308 667q-213 -8 -381 -56.5t-279.5 -172t-156.5 -355.5q-8 -47 -8 -126q0 -198 50 -299q29 -61 85 -61z" />
    <glyph glyph-name="B" unicode="B" horiz-adv-x="2303" 
d="M769 -438q-160 0 -312 59q-139 53 -252 149t-159 203t-46 202q0 53 11 109q30 151 184 286q173 154 537 249l8 1q23 0 30 -23l1 -8q0 -8 -5 -15q-6 -11 -19 -15q-349 -91 -512 -236q-137 -120 -164 -252q-8 -44 -8 -83q0 -86 40 -153q108 -180 402 -248q135 -32 261 -32
q206 0 442 107q429 201 608 512q106 188 106 368q0 214 -137 378q-166 190 -348.5 245.5t-341.5 55.5q-66 0 -134 -8q-231 -26 -446 -110q-94 -44 -199 -87q-21 -260 -35 -466q-3 -41 -31.5 -66t-67.5 -25q-40 0 -69 32q-25 28 -25 65v6q34 518 101 1184q84 821 142 860
q28 19 58 19q52 0 78 -38q20 -28 20 -58q0 -9 -2 -19q-15 -76 -29 -175q159 190 302 235.5t238 45.5q78 0 153 -22q165 -49 260.5 -173t95.5 -289q0 -205 -176 -436q-165 -218 -530 -442q247 53 379 58q106 5 128 5q164 0 315 -51q171 -59 312 -221q182 -216 182 -503
q0 -231 -132 -465q-205 -360 -693 -591q-275 -124 -521 -124zM322 1290q87 39 170 71q120 57 221 114q127 75 275 228q316 327 316 576q0 26 -3 51q-18 149 -177 248q-132 75 -263 75q-60 0 -120 -16q-191 -50 -305 -240q-63 -481 -114 -1107z" />
    <glyph glyph-name="C" unicode="C" horiz-adv-x="2048" 
d="M773 -453q-214 0 -399 148q-166 136 -262 358q-112 259 -112 593q0 512 262 1053q150 309 397 615q217 268 446 393q139 72 236 72q34 0 63 -9q111 -36 162.5 -159t59 -244t7.5 -199q0 -196 -35 -436q-4 -26 -30 -26q-16 0 -23.5 10t-7.5 20v5q35 234 35 420
q0 164 -36 276q-33 105 -86.5 128t-85.5 23q-69 0 -168 -52.5t-199 -144t-188 -200.5q-344 -430 -480 -826t-136 -715q0 -297 97 -521q78 -179 206 -284q170 -135 273 -144t134 -9q146 0 289 60q173 71 331.5 196t292.5 269.5t233 275.5q10 12 24 12q10 0 20 -7t10.5 -14.5
t0.5 -10.5q0 -9 -6 -17q-257 -340 -588 -600q-393 -309 -737 -309z" />
    <glyph glyph-name="D" unicode="D" horiz-adv-x="2126" 
d="M597 -285q-251 0 -424 87q-102 50 -150 140q-23 43 -23 92q0 146 203 301q22 16 50 32l42 537l9 127q68 869 121 1581q4 41 32.5 65.5t65.5 24.5q43 0 72 -32q24 -28 24 -65q0 -8 -17 -229q148 149 340.5 259t310 120t142.5 10q181 0 350 -112q195 -134 307 -378.5
t112 -566.5q0 -295 -114 -639q-116 -350 -376 -730q-339 -476 -819 -597q-113 -27 -258 -27zM501 -189q190 0 324 48q398 154 689 590q242 354 349.5 673t107.5 586q0 278 -96 487q-89 195 -240 299q-195 132 -288 132h-96q-182 0 -348 -95t-308 -251q-37 -494 -141 -1835
q133 37 260 37q192 0 309 -89q11 -9 11 -26q0 -9 -7 -18t-14 -10t-9 -1q-10 0 -19 7q-64 48 -137 61.5t-138 13.5q-127 0 -261 -40l-20 -260q-4 -41 -32.5 -65.5t-65.5 -24.5q-43 0 -71 32q-24 29 -24 66q0 15 12 163l-9 -6q-177 -135 -177 -252q0 -34 15 -63
q42 -76 135 -113t171.5 -41.5t117.5 -4.5z" />
    <glyph glyph-name="E" unicode="E" horiz-adv-x="2154" 
d="M688 -428q-49 0 -98 5q-213 23 -383 195q-106 112 -159 264q-48 137 -48 297v25q13 330 160 568t378.5 414t500.5 318q-111 -7 -205 -7q-381 0 -533 130q-94 80 -94 195q0 122 119 265q137 160 344 291q143 90 321 153.5t341 63.5q171 0 277.5 -103t106.5 -340v-9
q-2 -31 -31 -31q-13 1 -21.5 10t-8.5 22v5q0 152 -64 220t-122 70t-69 2q-185 0 -438 -123q-310 -152 -482 -345q-126 -139 -126 -232q0 -41 25 -76q45 -59 197 -88q101 -19 247 -19q158 0 369 22h3q11 0 20.5 -7.5t9.5 -21.5q0 -21 -17 -30q-240 -115 -468.5 -319.5
t-380.5 -464t-165 -539.5v-25q0 -260 153 -421q163 -165 288 -183.5t182 -18.5q141 0 288 50q206 69 403 196.5t365 273.5t286 272q9 9 21 9t22 -8q9 -10 10 -22q0 -12 -9 -22q-126 -134 -312.5 -293.5t-407.5 -302t-424.5 -214t-370.5 -71.5z" />
    <glyph glyph-name="F" unicode="F" horiz-adv-x="1630" 
d="M529 -251q-46 0 -73 33q-23 29 -23 64v9q22 225 56 630q27 313 58 656q-222 -39 -226 -39q-24 0 -30 25v6q0 24 25 30l237 41q83 887 151 1290q-337 -99 -519 -234q-124 -92 -124 -192q0 -118 218 -254q15 -9 15 -26q0 -9 -6 -18.5t-14 -11t-12 -1.5q-8 0 -15 4
q-247 154 -247 307q0 132 148 241q290 210 872 330q443 95 695 109t338 14q257 0 387 -49q19 -8 19 -28q0 -21 -16 -27q-9 -4 -15 -4t-12 2q-114 46 -358 46q-243 0 -547.5 -39t-602.5 -113v-9l-1 -18q-72 -384 -156 -1284q1025 178 1028 178q24 0 30 -25l1 -6
q0 -24 -26 -30l-1039 -181q-33 -369 -62 -706q-31 -358 -58 -633q-5 -41 -33 -64t-63 -23z" />
    <glyph glyph-name="G" unicode="G" horiz-adv-x="2437" 
d="M888 -1902q-37 0 -75 7q-149 29 -263 135q-105 98 -131 271q-6 39 -6 81q0 394 452 869q289 303 824 634q57 385 87 723q-277 -444 -550 -631q-135 -96 -278 -144t-267 -48q-39 0 -77 4q-161 16 -293 134q-228 214 -293 598q-18 111 -18 232q0 289 103 594
q154 454 529 859q97 105 228 195.5t262 135.5t244 45q33 0 67 -3q146 -15 272 -122q116 -96 164 -321q21 -106 23 -249q0 -13 -9 -21.5t-22 -9.5q-29 2 -31 31q-1 135 -22 237q-74 347 -316 347q-19 0 -39 -2q-124 -15 -255.5 -82t-244.5 -154t-179 -159
q-348 -377 -487 -790q-68 -200 -80.5 -329.5t-12.5 -198.5q0 -315 133 -547q87 -152 213.5 -235t275.5 -83q178 0 375 136q310 216 604 734q1 3 4 6q29 50 87 50q44 0 71 -32q23 -29 23 -64v-9q-27 -322 -77 -702q250 140 553 282q6 3 13 3q19 0 27 -18q3 -7 3 -14
q0 -17 -17 -27q-326 -152 -590 -303q-42 -292 -106 -585q-180 -820 -535 -1259q-169 -201 -363 -201zM745 -1784q93 0 248 107q56 37 109 100q324 401 495 1178q46 206 79 414q-502 -317 -775 -605q-427 -451 -427 -817q0 -39 6 -74q23 -150 113 -234q67 -62 104.5 -65.5
t47.5 -3.5z" />
    <glyph glyph-name="H" unicode="H" horiz-adv-x="2699" 
d="M2267 -437q-42 2 -68.5 29.5t-27.5 68.5q12 625 92 1755q-793 -57 -1314 -261q-115 -608 -279 -999q-82 -180 -181.5 -248t-187.5 -68q-131 0 -220 116q-73 95 -81 255v20q0 221 158 442q187 265 590 461q83 422 116 811q14 167 14 327q0 137 -18 254q-31 210 -126 210
q-46 0 -113 -53q-79 -67 -145 -194q-70 -133 -107 -315t-37 -393v-65q-2 -31 -31 -31q-13 0 -21.5 8.5t-9.5 21.5v64q0 220 36 397q42 202 114.5 341t160.5 213q139 113 230 113q18 0 33 -4q99 -26 147.5 -156.5t59.5 -276.5t11 -257q0 -375 -100 -924q522 198 1305 253
q26 357 50 669q33 440 49 689q3 41 31.5 66t67.5 25q41 0 69 -31q26 -28 26 -65q0 -51 -50 -698q-23 -301 -48 -644q132 5 273 7q29 -2 31 -31q0 -13 -9 -21.5t-22 -9.5q-143 -1 -277 -7q-80 -1117 -93 -1769q-2 -41 -29.5 -67.5t-68.5 -27.5zM232 -63q34 0 69 27
q64 49 115 130t76 139q137 323 241 826q-356 -184 -526 -422q-145 -207 -145 -404v-20q11 -185 114 -259q28 -17 56 -17z" />
    <glyph glyph-name="I" unicode="I" horiz-adv-x="968" 
d="M523 -574q-44 0 -73 33q-23 28 -23 63v9q57 627 113 1394q54 742 114 1396q6 67 6 121q0 62 -8 107q-22 111 -50 123.5t-42 12.5q-67 0 -177 -138q-123 -149 -215.5 -398t-105.5 -562q-1 -13 -10 -21.5t-22 -8.5q-13 1 -21.5 10t-8.5 22q14 324 111 583q142 380 356 538
q107 79 196 79q50 0 93 -31q60 -44 86 -175q11 -62 11 -145q0 -62 -6 -135q-57 -627 -113 -1393q-54 -743 -114 -1397q-5 -41 -33.5 -64t-63.5 -23z" />
    <glyph glyph-name="J" unicode="J" horiz-adv-x="1988" 
d="M691 -686q-161 0 -305 86q-192 116 -310 398q-76 190 -76 399q0 225 95 411q93 182 264 271.5t386 89.5q140 0 154 -18q7 -9 7 -20q0 -14 -10 -22.5t-21 -8.5h-3q-66 7 -127 7q-197 0 -333 -70q-178 -92 -263 -257q-88 -174 -88 -378q0 -199 73 -381
q108 -260 233.5 -317.5t219.5 -57.5q81 0 166 29q418 144 631 612q322 708 322 2296q0 202 -5 419q-115 -53 -285 -99q-152 -43 -313.5 -104.5t-295.5 -163t-192.5 -238t-58.5 -285.5q0 -70 11 -150v-5q0 -10 -6 -18q-9 -12 -25 -12q-10 0 -19 6.5t-11 19.5q-12 88 -12 165
q0 158 49 276q72 175 213.5 284t312 174t330.5 110q113 32 202 64t136 71q3 3 7 4q23 15 51 16q41 0 69 -26.5t30 -67.5q6 -233 6 -448q0 -1001 -129 -1661q-167 -850 -526 -1162q-215 -187 -357 -212.5t-197 -25.5z" />
    <glyph glyph-name="K" unicode="K" horiz-adv-x="2384" 
d="M95 -367q-45 0 -73 34q-22 28 -22 62l1 11q89 836 161 1869q42 681 104 1198q6 41 34 63t62 22q48 0 74 -35q22 -29 22 -63v-11q-60 -502 -103 -1187q-13 -192 -29 -400q303 94 637 503q347 421 618 1067q8 20 28 20t27 -16q4 -9 4 -15t-2 -12q-275 -655 -627 -1083
q-339 -414 -655 -519l51 -75q100 -153 261 -362.5t371 -388.5q304 -254 610 -254q378 0 737 433q10 11 23 11q11 0 21.5 -8t10.5 -23q0 -10 -7 -19q-200 -241 -393.5 -349t-287 -109t-98.5 -1q-331 0 -656 271q-215 184 -378.5 397t-264.5 367q-20 31 -38 56
q-43 -604 -125 -1368q-5 -41 -34 -63.5t-64 -22.5z" />
    <glyph glyph-name="L" unicode="L" horiz-adv-x="2062" 
d="M461 -244q-96 0 -179 17q-282 56 -282 402q0 74 58 621q143 1332 165 1964q2 41 30.5 67.5t69.5 26.5q41 -2 67.5 -30t26.5 -69q-23 -651 -166 -1979q-57 -526 -57 -606q0 -99 33 -154q67 -108 174.5 -134t204.5 -26q55 0 114 6q164 18 324 60q125 33 395 113
q239 68 468 123l8 1q23 0 29 -24v-7q0 -23 -23 -30q-353 -86 -597 -162q-409 -130 -650 -162q-136 -18 -213 -18z" />
    <glyph glyph-name="M" unicode="M" horiz-adv-x="4073" 
d="M625 -113q-44 0 -72 32q-24 29 -24 66l176 2214q5 103 5 188q0 116 -9 200q-20 135 -53.5 147t-47.5 12q-44 0 -99 -44q-72 -57 -144.5 -153t-129.5 -190.5t-81 -149.5q-67 -144 -76 -233.5t-9 -113.5q0 -126 69 -235q6 -9 6 -18q0 -14 -14 -25q-7 -5 -16 -5
q-17 0 -27 14q-65 96 -72 167.5t-7 105.5q0 170 90 368q39 88 124 218.5t191 251.5q183 208 307 208q44 0 81 -28q111 -81 111 -493q0 -93 -6 -204l-135 -1704q285 1360 542 1927q105 233 198 326q105 104 185 104q16 0 30 -4q160 -43 245 -413q59 -258 73 -499
q17 -228 17 -490q0 -286 -20 -612q251 990 560 1478q250 392 476 392q126 0 209 -106q70 -91 92 -237q12 -82 12 -181q0 -105 -20 -288q-40 -321 -64 -653q-15 -213 -15 -323v-119q0 -202 23 -367q24 -173 77.5 -258.5t129.5 -85.5q100 0 264 128q130 101 301 293
q10 10 24 10q11 0 20.5 -9t9.5 -22q0 -11 -8 -20q-338 -382 -557 -435q-51 -12 -96 -12q-99 0 -168 58q-100 83 -148.5 250.5t-57.5 330t-9 275.5q0 275 38 623q17 149 50 418q12 114 12 207q0 182 -48 325q-41 120 -122 120q-45 0 -109 -42q-122 -82 -264 -304
q-163 -256 -329 -713.5t-313 -1137.5q-1 -5 -4 -9q-7 -39 -34 -60t-61 -21q-45 0 -73 33q-23 28 -23 63v9q52 547 52 998q0 332 -30 617q-30 288 -89 489q-55 190 -129 190q-30 0 -65 -33q-217 -220 -484 -1203q-161 -591 -338 -1512q-9 -46 -37 -68.5t-63 -22.5z" />
    <glyph glyph-name="N" unicode="N" horiz-adv-x="2930" 
d="M624 -107q-43 0 -71 32q-24 29 -24 66l176 2214q5 106 5 193q0 123 -10 210q-13 144 -41.5 167t-48.5 23q-72 0 -231 -203q-23 -26 -93.5 -129.5t-138.5 -249t-77 -235t-9 -113.5q0 -125 69 -235q6 -9 6 -18q0 -15 -14 -24q-8 -5 -17 -5q-16 0 -26 13q-64 97 -71.5 167.5
t-7.5 103.5q0 77 18 155q25 112 72 215q71 153 144 260t97 134q75 96 163 174t142 95t76 17q54 0 97 -44q95 -96 95 -473q0 -95 -6 -210l-135 -1707q228 980 527 1588q203 406 390 587q95 95 190.5 142.5t169.5 47.5q32 0 62 -7q104 -23 174 -165q53 -116 65 -232.5
t12 -208.5q0 -151 -26 -399q-36 -379 -54 -714q-13 -250 -13 -374q0 -350 55 -533q27 -91 67 -125t74 -34q37 0 84 27q154 90 399 407q11 12 24 12q11 0 20.5 -7.5t10.5 -14.5t1 -10q0 -9 -7 -18q-253 -326 -416 -422q-126 -75 -214 -75q-22 0 -42 5q-176 43 -223 411
q-23 195 -23 424q0 112 5 231q23 456 58 817q26 233 26 388q0 71 -6 139q-9 129 -52 224q-70 145 -160 145q-96 0 -218 -125q-180 -174 -378 -570q-365 -740 -620 -2038l-2 -27q-5 -41 -33 -65t-66 -24z" />
    <glyph glyph-name="O" unicode="O" horiz-adv-x="1839" 
d="M746 -32q171 0 341 103q137 83 242 221q207 286 308 683q87 344 87 683q0 286 -60 518q-106 403 -366 521q-84 36 -188 36q-219 0 -443 -145q-288 -187 -455 -566q-106 -237 -144 -564q-6 -41 -6 -113q0 -59 7 -116q46 238 130 452t196.5 371.5t244.5 228.5q22 11 44 11
q58 0 86 -53q11 -23 11 -46q0 -56 -52 -85q-113 -60 -209.5 -209.5t-167.5 -354t-107 -431.5q-22 -134 -27 -266q16 -22 33 -43q212 -246 544 -288l17 -1q28 -4 28 -34q-2 -13 -11 -20.5t-20 -7.5q-9 0 -20 2q-347 43 -573 295q5 -314 103 -510q145 -272 427 -272zM634 -158
q-114 0 -219 43q-161 67 -268 266q-125 248 -125 615q0 145 20 296q-42 133 -42 286q0 47 4 96q2 14 2 21q70 586 365 937q123 147 262 238q240 155 475 155q118 0 215 -42q146 -65 245 -209t153 -343q64 -243 64 -546q0 -346 -88 -696q-104 -408 -319 -704
q-113 -150 -277.5 -258t-285.5 -131.5t-181 -23.5z" />
    <glyph glyph-name="P" unicode="P" horiz-adv-x="1598" 
d="M224 -315q-41 0 -69 31q-26 28 -26 67v3q46 827 112 1681l2 30q26 340 45 611q3 41 31 65.5t67 24.5q43 0 71 -32q25 -28 25 -65q0 -34 -47 -636q0 -11 -4 -51l-39 -535q95 -11 185 -11q238 0 448 75q290 103 486 333.5t259 571.5q13 75 13 144q-1 144 -49 264
q-47 116 -127 204q-163 176 -323.5 221t-267.5 45q-109 0 -220 -32q-217 -62 -384 -251q-261 -296 -352 -845q-4 -26 -29 -26q-17 0 -24 10t-7 19v6q92 565 365 877q189 216 396 300t377 84q79 0 157 -14q251 -45 455 -264q221 -241 226 -586l1 -11q0 -87 -16 -177
q-73 -395 -300.5 -630.5t-502 -309.5t-515.5 -74q-124 0 -255 16q-40 -552 -66 -1041q-3 -41 -31 -66.5t-67 -25.5z" />
    <glyph glyph-name="Q" unicode="Q" horiz-adv-x="1952" 
d="M1915 -262q-426 0 -811 216q-169 -93 -272 -101t-130 -8q-148 0 -283 70q-159 82 -270 279q-149 280 -149 665q0 393 149 755q8 204 75 412t194 380t314 270q167 80 329 80q372 0 560 -269q100 -143 154 -339q67 -246 67 -538q0 -337 -85 -675q-101 -398 -312 -686
q-119 -156 -279 -259q236 -124 453 -162q163 -29 296 -29q74 0 151 7h3q11 0 20.5 -7.5t9.5 -22.5q0 -27 -28 -31q-79 -7 -156 -7zM1092 32q171 81 304 254q204 279 301 664q83 330 83 657q0 283 -62 517q-50 186 -141.5 320t-225.5 194q-124 55 -203 56t-83 1
q-150 0 -305 -74q-151 -79 -261.5 -214.5t-179 -300t-93.5 -330.5q183 341 478 503q23 12 47 12q55 0 84 -50q12 -23 12 -47q0 -55 -50 -84q-217 -123 -357.5 -350.5t-201.5 -502.5q76 -385 309 -716q220 -309 545 -509zM822 -32q99 0 200 35q-312 202 -525 503
q-197 278 -286 599q-17 -123 -17 -242q0 -340 125 -576q123 -218 265 -268.5t238 -50.5z" />
    <glyph glyph-name="R" unicode="R" horiz-adv-x="2151" 
d="M2757 -491h-6q-581 71 -1165 402q-492 279 -905 656q-176 161 -256 247v-8q-25 -307 -29 -497t-4 -302t3 -209q0 -42 -26.5 -70t-67.5 -30q-41 0 -69 26.5t-30 67.5q-3 110 -3 237q0 393 32 792q55 680 221 1420q10 40 38 57.5t55 17.5q11 0 22 -2q40 -10 58.5 -38
t18.5 -55q0 -11 -3 -22q-155 -700 -205 -1270q340 72 620 278.5t467.5 501.5t248.5 634q11 65 11 122q0 63 -13 117q-33 138 -131.5 221t-243.5 109q-102 18 -199 18q-463 0 -784 -406q-266 -335 -352 -854q-2 -13 -10.5 -19.5t-18.5 -6.5q-17 0 -24 10t-7 19v6
q86 533 364 883q117 150 290 285t345 200t315 65q57 0 113 -9q198 -34 341 -155.5t191 -323.5q18 -75 18 -159q0 -74 -14 -155q-68 -364 -291 -662t-542 -500t-674 -277q72 -79 250 -243q412 -380 908 -663q568 -323 1144 -395q13 -2 21 -11t8 -20q0 -14 -10.5 -22t-19.5 -8
z" />
    <glyph glyph-name="S" unicode="S" horiz-adv-x="2045" 
d="M1024 -579q-18 0 -35 2q-114 13 -149 146q-6 27 -6 57q0 87 57 198q120 229 465 424q-117 121 -282.5 234.5t-332.5 215.5q-136 84 -252 163q-489 344 -489 787q0 113 36 234q70 223 233 415q254 300 643 483q223 106 395 106q100 0 185 -41q122 -58 181 -236
q18 -53 18 -122q0 -99 -37 -230q-7 -23 -28 -23q-19 0 -27 14q-5 9 -5 18l1 8q34 123 34 213q0 59 -15 104q-37 105 -110 109.5t-86 4.5q-126 0 -293 -63q-183 -70 -370.5 -195t-332.5 -285q-181 -202 -219 -415q-9 -50 -9 -99q0 -138 71 -278q92 -179 334 -350
q106 -72 245 -157q188 -114 374.5 -245.5t316.5 -281.5q222 98 528 168l8 1q8 0 15 -5q15 -8 15 -25q0 -25 -25 -31q-290 -66 -502 -158q78 -113 78 -231q0 -38 -8 -75q-33 -156 -146 -288t-243 -201.5t-231 -69.5zM1027 -504q86 0 191 54q112 57 196 158.5t88.5 169
t4.5 74.5q0 121 -110 249q-178 -99 -289.5 -203.5t-162 -202t-50.5 -170.5q0 -22 5 -42q23 -83 72 -85t55 -2z" />
    <glyph glyph-name="T" unicode="T" horiz-adv-x="1574" 
d="M1119 -232q-40 0 -69 32q-25 29 -25 68l173 2703q-589 -36 -1164 -98h-3q-27 0 -31 28v3q0 11 7 20t20 11q493 54 996 86l549 36q611 36 1209 100h3q11 0 19 -7q12 -8 12 -23q0 -11 -7 -20.5t-20 -10.5q-524 -59 -1395 -113l-174 -2724q-4 -41 -32.5 -66t-67.5 -25z" />
    <glyph glyph-name="U" unicode="U" horiz-adv-x="1949" 
d="M787 -282q-251 0 -464 203q-171 167 -244 423q-58 230 -68.5 488.5t-10.5 441.5q0 169 6 344q21 576 72 1101v8q5 41 33.5 65t65.5 24q43 0 71 -33q24 -28 24 -63q0 -12 -2 -19q-50 -537 -67 -987q-10 -266 -10 -437t6 -336q12 -329 68 -547q94 -336 413 -492
q123 -60 194.5 -63.5t83.5 -3.5q117 0 225 60q188 104 333 361q183 344 245 939q44 415 44 941q0 234 -9 489q0 13 8.5 22t21.5 10q13 0 22 -8q18 -18 18 -507q0 -533 -43 -953q-64 -607 -253 -962q-154 -274 -357 -385q-213 -124 -426 -124z" />
    <glyph glyph-name="V" unicode="V" horiz-adv-x="1832" 
d="M859 -275q-121 0 -215 100q-157 165 -268 534q-45 150 -72 263q-171 665 -304 1995v6q0 37 22 65q30 35 75 35q35 0 61 -22q30 -25 35 -65q130 -1313 299 -1967q8 -38 52 -195q88 -313 205 -492q67 -104 120 -124.5t77 -20.5q62 0 132 60q115 106 231 313
q170 311 325 748.5t282.5 897.5t214.5 838q8 24 31 24q16 0 25 -14q5 -8 5 -16l-1 -8q-88 -380 -216 -842.5t-284 -903t-329 -754.5q-119 -215 -243 -329q-144 -126 -260 -126z" />
    <glyph glyph-name="W" unicode="W" horiz-adv-x="3995" 
d="M2835 -296q-289 0 -508 186q-299 259 -440 720q-65 212 -80 390.5t-15 288.5q0 159 19 332q-183 -506 -387 -851t-406 -539q-285 -275 -555 -275q-113 0 -206 54q-257 148 -257 614q0 452 233 1062q140 364 379 792q21 36 46 43t39 7q23 0 47 -12q49 -30 49 -84
q0 -24 -12 -48q-440 -791 -550 -1392q-39 -213 -39 -377q0 -249 93 -431q52 -103 116.5 -130.5t110.5 -27.5q67 0 152 33q147 58 311 216q239 227 477.5 672.5t439.5 1125.5l4 15q11 40 39 57t54 17q12 0 25 -3q40 -11 56 -39t16 -55q0 -12 -2 -24q-98 -401 -98 -739
q0 -358 87 -637q63 -224 198.5 -428.5t313 -327.5t367.5 -123l27 1q206 8 409 212q159 160 264 451q136 368 136 960q0 603 -195 1451l-1 6q0 25 24 31l8 1q23 0 29 -24q196 -853 196 -1159v-310q0 -601 -139 -977q-110 -303 -277 -473q-249 -252 -598 -252z" />
    <glyph glyph-name="X" unicode="X" horiz-adv-x="2059" 
d="M31 -233q-19 0 -27 16q-4 8 -4 15q0 5 2 10q295 830 774 1547q-175 338 -320 717q-124 327 -185 622q-2 10 -2 19q0 29 17 54q28 43 81 43q29 0 53 -17q33 -21 42 -61q102 -509 439 -1195q504 707 1191 1339q8 8 19 8q15 0 23.5 -9t8.5 -20q0 -15 -10 -24
q-694 -641 -1193 -1346l-8 -11q392 -775 898 -1493q17 -26 17 -54q0 -50 -40 -81q-27 -17 -57 -17q-48 0 -78 41q-480 680 -864 1421q-448 -672 -748 -1503q-8 -21 -29 -21z" />
    <glyph glyph-name="Y" unicode="Y" horiz-adv-x="2066" 
d="M616 -908q-140 0 -260 123q-83 88 -83 229q0 132 91 286q101 172 345.5 339t663.5 293q160 559 279 1348q54 358 87 638q-128 -410 -296.5 -767t-351.5 -624q-188 -273 -368 -415q-190 -145 -322 -145q-143 0 -231 127q-149 217 -166 666q-4 79 -4 169q0 513 132 1360
q8 40 36 60.5t58 20.5q51 0 78 -36q20 -29 20 -59q0 -9 -1 -17q-130 -832 -130 -1329q0 -465 102 -699q51 -119 109 -138.5t81 -19.5q83 0 200 88q172 136 355 402q221 321 415.5 767t319.5 952q12 47 38.5 68t59.5 21q45 0 74 -33q23 -28 23 -63v-9q-21 -246 -85.5 -730.5
t-172.5 -1023.5q-55 -272 -122 -522q222 51 490 86h3q27 0 31 -27v-3q0 -27 -27 -31q-284 -37 -516 -93q-90 -322 -200 -555q-145 -296 -299 -463q-94 -105 -213.5 -173t-242.5 -68zM516 -795q76 0 162 50q134 78 251 208q136 147 268 417q83 175 155 412
q-388 -122 -614.5 -278t-320.5 -316q-82 -137 -82 -251q0 -119 66 -190q51 -52 115 -52z" />
    <glyph glyph-name="Z" unicode="Z" horiz-adv-x="2733" 
d="M101 -213h-3q-49 0 -81 42q-17 27 -17 55q0 49 43 80q260 182 572.5 509t620.5 717q355 449 622.5 860t365.5 662l-1524 -126q-27 0 -31 28q0 31 29 33l797 74q632 57 799 57q120 0 120 -94q0 -17 -6 -34q-102 -264 -378.5 -691t-641.5 -889q-294 -372 -596 -692
t-565 -521l2473 155q30 0 33 -29q0 -13 -8 -22.5t-21 -10.5q-430 -28 -868.5 -60.5t-874.5 -60.5t-860 -42z" />
    <glyph glyph-name="bracketleft" unicode="[" horiz-adv-x="645" 
d="M125 169q-34 2 -54.5 23.5t-20.5 53.5l36 1398q0 29 18.5 50.5t48.5 24.5l259 27h8q26 0 46 -16q28 -22 28 -56q0 -28 -18 -50.5t-49 -26.5l-194 -20l-32 -1257q165 0 210 5l11 1q25 0 44 -15q29 -23 29 -59q0 -26 -15 -46q-18 -24 -50.5 -28.5t-86 -5.5t-110.5 -1
q-61 0 -108 -2z" />
    <glyph glyph-name="backslash" unicode="\" horiz-adv-x="729" 
d="M505 169q-20 0 -39 11q-36 25 -82 167.5t-98 352.5t-105 438q-73 315 -129 537q-2 10 -2 19q0 20 10 38q22 36 64 36q21 0 38 -10q26 -15 35 -46q60 -238 130 -540q194 -832 216 -864q27 -17 31.5 -36t4.5 -28q0 -20 -11 -39q-17 -27 -36 -31.5t-27 -4.5z" />
    <glyph glyph-name="bracketright" unicode="]" horiz-adv-x="639" 
d="M175 177l-48 1q-32 3 -51.5 24.5t-19.5 51.5q0 32 25 55q21 19 51 19h3q25 -1 57 -1l145 2l-33 1236l-178 -11q-30 0 -51 19q-25 22 -25 57q0 28 19 49.5t51 24.5l255 16q30 0 51 -19q25 -23 25 -58l38 -1387q0 -32 -20.5 -53.5t-54.5 -23.5q-32 1 -68 1z" />
    <glyph glyph-name="asciicircum" unicode="^" horiz-adv-x="632" 
d="M125 1462q-17 0 -34 8q-41 22 -41 68q0 16 8 33l143 282q22 41 67 41q41 0 64 -37q24 -41 50 -99t40.5 -82.5t33.5 -45.5q26 -26 26 -60q0 -9 -2 -19q-17 -53 -71 -53q-48 0 -88 57q-30 42 -55 96l-75 -147q-22 -42 -66 -42z" />
    <glyph glyph-name="underscore" unicode="_" horiz-adv-x="864" 
d="M414 71l-112 1q-76 2 -137 2h-42q-29 0 -50.5 20t-22.5 52q0 32 20.5 53.5t51.5 23t67 1.5q53 0 116 -2q77 -2 145 -2q131 0 156 10q17 8 34 8q45 0 67 -42q7 -16 7 -32q0 -47 -41 -68q-49 -21 -126.5 -23t-132.5 -2z" />
    <glyph glyph-name="grave" unicode="`" horiz-adv-x="461" 
d="M235 1506q-55 0 -101 92q-28 57 -51 120l-27 66q-6 15 -6 30q0 47 45 69q15 6 30 6q48 0 68 -45l30 -72q25 -67 43 -107q8 -19 10 -21q35 -24 35 -63q0 -20 -12 -40q-18 -27 -37 -31t-27 -4z" />
    <glyph glyph-name="a" unicode="a" 
d="M908 50q-91 0 -151 82q-64 89 -65 298q0 127 33 286q-193 -315 -334.5 -451t-189.5 -137t-51 -1q-88 0 -132 84t-44 210q0 134 45 265t133 216q95 87 221 87q166 0 356 -145q9 16 22 40.5t26 48.5t24 39q31 41 77 41q16 0 33 -5q38 -13 52 -41t14 -49q0 -16 -5 -32
q-87 -271 -87 -457q1 -198 44 -236.5t79 -38.5q39 0 86 28q132 77 296 308q10 12 25 12q9 0 20 -7.5t11 -23.5q0 -9 -6 -17q-54 -75 -104 -134q-94 -116 -204 -190t-163.5 -77t-60.5 -3zM239 254q17 0 38 11q73 40 161 148.5t160.5 219.5t99.5 157q-122 93 -220 93
q-103 0 -179 -85q-75 -88 -103 -196t-28 -181q0 -51 10 -98q19 -69 61 -69z" />
    <glyph glyph-name="b" unicode="b" horiz-adv-x="1304" 
d="M442 -281q-31 0 -62 7q-117 26 -181.5 104.5t-64.5 166.5q0 19 3 39q16 112 156.5 216t447.5 164q-2 65 -14 126q-16 82 -67.5 171.5t-100.5 115t-75 25.5q-50 0 -104 -48q-102 -95 -203 -335q-15 -179 -18 -239q-4 -41 -32 -66t-67 -25q-41 0 -69 31q-26 29 -26 68
q0 41 45 546q115 1306 214 1820q9 40 37 58.5t56 18.5q10 0 21 -2q40 -9 58.5 -37t18.5 -56q0 -10 -2 -21q-59 -305 -121 -888q-61 -573 -100 -1032q72 134 145 203q140 132 257 132q120 0 203 -109t120 -294q13 -64 17 -132l151 21q142 18 228 34l8 1q8 0 15 -5
q14 -9 14 -28q0 -22 -25 -28q-89 -17 -232 -35q-76 -10 -159 -22q-2 -140 -50 -275q-39 -109 -114 -202q-1 -3 -3 -5q-76 -84 -147 -132q-91 -52 -178 -52zM336 -136q75 0 174 66q52 36 112 102q104 133 117 321q-232 -46 -357 -123.5t-154 -141.5t-29 -102q0 -30 13 -56
q31 -58 74 -62t50 -4z" />
    <glyph glyph-name="c" unicode="c" horiz-adv-x="1121" 
d="M287 109q-49 0 -94 9q-100 18 -157 99q-60 97 -60 217t52 253t152 229.5t161 103t70 6.5q102 0 182 -111q5 -8 5 -16q0 -18 -14 -27q-8 -5 -17 -5q-16 0 -25 13q-40 56 -83 56q-9 0 -18 -2q-93 -27 -183 -206q-35 -70 -51 -111q-37 -96 -37 -176q0 -232 224 -232
q102 0 224 39q237 75 508 250q8 5 16 5q17 0 26 -14q6 -9 6 -18q0 -14 -14 -25q-248 -160 -522 -261q-203 -76 -351 -76z" />
    <glyph glyph-name="d" unicode="d" horiz-adv-x="1249" 
d="M940 -301q-28 0 -51 15q-32 21 -42 61q-47 222 -47 536q0 221 14 443q-188 -502 -381 -685q-102 -91 -154 -93.5t-59 -2.5q-88 0 -153 72q-70 78 -90 239q-5 46 -5 91q0 185 75 372q81 189 180 241t177 52q54 0 111 -18q139 -46 263 -188q27 75 55 160q50 550 88 936
q36 368 58 523q6 41 34.5 62.5t62.5 21.5q47 0 74 -36q20 -28 20 -61v-14q-39 -287 -134 -1343q-43 -412 -43 -772q0 -294 43 -495q1 -10 1 -20q0 -29 -14 -53q-29 -44 -83 -44zM287 65q46 0 112 59q179 176 355 643q-134 164 -256 164q-164 0 -272 -258q-55 -135 -55 -318
q0 -70 10 -133q17 -107 51.5 -132t54.5 -25z" />
    <glyph glyph-name="e" unicode="e" horiz-adv-x="1265" 
d="M182 507q416 57 538 165q36 33 36 61q0 56 -105 56q-50 0 -115 -16q-96 -24 -188 -77.5t-142 -133.5q-14 -22 -24 -55zM319 -48q-94 0 -171 36q-121 58 -166 245q-14 71 -14 139q0 72 16 142q20 87 55 147q94 150 221 208t245 58q144 0 235 -63q78 -54 78 -131
q0 -55 -58 -107q-135 -121 -593 -184q-6 -36 -6 -72q0 -48 10 -96q35 -147 113 -177.5t143 -30.5q56 0 120 16q138 35 280.5 110.5t260 159.5t179.5 143q10 8 23 8q12 -1 20.5 -10t8.5 -20q0 -14 -10 -23q-82 -78 -226.5 -179t-315.5 -187q-260 -132 -448 -132z" />
    <glyph glyph-name="f" unicode="f" horiz-adv-x="1017" 
d="M204 -1036q-57 0 -111 36q-85 55 -129 199q-50 196 -50 454q0 292 33 576q27 240 40 313q61 380 182 650q79 172 168 219t149 47q84 0 182 -54q16 -10 16 -27q0 -8 -4 -15q-9 -16 -27 -16q-8 0 -15 4q-38 20 -71 20q-107 0 -223 -251q-138 -310 -204 -887
q128 -33 255 -33q234 0 427 119q104 63 197 174q10 11 24 11q10 0 20 -8.5t10 -22.5q0 -10 -7 -20q-265 -313 -670 -313q-102 0 -193 17q77 -59 154.5 -151.5t120.5 -214t43 -262.5q0 -241 -92 -408q-67 -114 -130 -135t-95 -21zM265 -949q55 0 115 107q79 154 79 365
q0 146 -42 253q-52 133 -133 219.5t-154 139.5q-3 -27 -10 -166.5t-7 -290.5q0 -627 152 -627z" />
    <glyph glyph-name="g" unicode="g" horiz-adv-x="1327" 
d="M315 -1461q-185 0 -287 230q-35 82 -35 202q0 176 91 420q213 485 673 803l51 455q-195 -349 -338 -490q-140 -138 -198.5 -144t-70.5 -6q-88 0 -145 70q-64 81 -75 170t-11 134q0 97 25 204q65 257 172.5 338t213.5 81q46 0 96 -13q164 -42 339 -196l8 15q2 13 2 23
q5 41 33.5 65t65.5 24q44 0 71 -32q25 -29 25 -67q0 -30 -54 -499q184 102 370 177q7 3 13 3q19 0 27 -20q3 -6 3 -12q0 -20 -20 -28q-203 -82 -402 -196q-28 -257 -88 -748q-28 -232 -41 -323q-34 -219 -133 -374t-202 -210.5t-179 -55.5zM256 -1373q46 0 92 34
q70 52 131 147t103 203t55 196q33 226 110 905q-220 -164 -379 -363q-134 -169 -227 -382q-75 -198 -81 -284.5t-6 -113.5q0 -105 31 -176q57 -133 102.5 -149.5t68.5 -16.5zM265 100q58 0 161 103q150 146 361 537q-161 144 -297 144q-218 0 -307 -343q-24 -97 -24 -216
q0 -75 16 -136q20 -79 52.5 -84t37.5 -5z" />
    <glyph glyph-name="h" unicode="h" horiz-adv-x="1452" 
d="M54 -59q-42 0 -69.5 29t-27.5 70q14 408 89 1389q50 685 105 1179q6 41 34 63.5t62 22.5q47 0 75 -35q22 -29 22 -64v-9q-83 -750 -160 -1965q107 188 215 325t170 164t88 27q65 0 117 -71q74 -100 115 -388q13 -123 34 -218q21 -102 61.5 -151.5t87.5 -49.5q30 0 67 16
q131 66 311 221q9 7 19 7q14 0 22.5 -10t8.5 -21q0 -14 -11 -24q-183 -159 -324 -229q-107 -53 -201 -53q-118 0 -186 125q-32 65 -50 160t-31 202q-29 277 -65.5 310.5t-57.5 33.5q-46 0 -109 -78q-90 -113 -221 -328l-69 -110q-20 -321 -24 -447q-2 -41 -30 -67t-67 -26z
" />
    <glyph glyph-name="i" unicode="i" horiz-adv-x="663" 
d="M149 1002q-11 0 -20 8q-36 32 -57 83q-20 47 -20 90q0 44 31 74q22 20 48 20q41 0 70 -49q21 12 43 12q25 0 39 -14q31 -24 31 -66q0 -53 -64 -106q-39 -33 -91 -50zM168 146q-71 0 -120 47q-71 67 -71 266q0 142 43 400q7 40 36 61t60 21q49 0 76 -37q20 -28 20 -60
l-1 -15q-41 -245 -41 -385q0 -127 37 -169q25 -29 64 -29q84 0 286 165l102 84q9 6 19 6q15 0 25 -11q7 -8 7 -18q0 -16 -12 -25q-51 -43 -103 -84q-268 -217 -427 -217zM157 1069q30 13 54 33q41 34 41 58q0 18 -9 18q-11 0 -33 -20q-9 -9 -22 -9q-21 0 -28 20
q-17 46 -31 46q-16 -8 -16 -32q0 -29 15 -66q12 -28 29 -48z" />
    <glyph glyph-name="j" unicode="j" horiz-adv-x="591" 
d="M-515 -1425q-180 0 -247 231q-18 62 -18 144q0 200 103 473q182 410 554 687l66 48q43 386 70 696q4 41 32 64.5t64 23.5q46 0 74 -32q23 -28 23 -63t-54 -559q225 123 450 213q5 2 11 2q21 0 29 -19q3 -6 3 -12q0 -19 -20 -29q-242 -95 -481 -231q-46 -462 -97 -829
q-50 -356 -212 -586q-91 -130 -231 -195q-62 -27 -119 -27zM143 1004q-10 0 -19 8q-36 32 -58 83q-20 47 -20 90q0 45 31 74q21 20 47 20q41 0 71 -49q22 12 43 12q26 0 40 -14q30 -24 30 -66q0 -52 -64 -106q-39 -32 -91 -50q-5 -2 -10 -2zM152 1071q30 13 53 33
q41 34 41 58q0 6 -2 11t-3 6t-2 1h-1q-12 0 -33 -20q-9 -9 -22 -9q-21 0 -29 21q-17 45 -30 45q-2 0 -5 -3q-11 -10 -11 -29q0 -60 44 -114zM-577 -1334q50 0 104 48q142 126 222.5 318.5t105.5 377.5q41 302 80 666q-374 -267 -555 -677q-74 -195 -86 -296.5t-12 -152.5
q0 -73 15 -128q40 -137 76.5 -146.5t49.5 -9.5z" />
    <glyph glyph-name="k" unicode="k" horiz-adv-x="1133" 
d="M37 -167q-41 0 -69 31q-25 28 -25 65v6q30 538 101 1434q53 659 107 1131q6 40 34 62.5t62 22.5q48 0 74 -34q23 -29 23 -63l-1 -11q-73 -650 -158 -1807q70 44 164 114q177 133 313 253q9 8 20 8q14 0 22.5 -9.5t8.5 -20.5q0 -13 -10 -23q-138 -123 -317 -258
q-108 -80 -186 -126q58 -49 121 -119q42 -45 88 -90q144 -148 294 -148q58 0 124 21q133 43 307 221q10 10 22 10t21.5 -9t9.5 -24q0 -11 -8 -19q-193 -198 -303.5 -232t-174.5 -34q-69 0 -129 26q-115 51 -206 144q-47 46 -90 92q-52 58 -100 100q-27 -384 -40 -622
q-3 -41 -31.5 -66.5t-67.5 -25.5z" />
    <glyph glyph-name="l" unicode="l" horiz-adv-x="820" 
d="M320 -129q-31 0 -59 8q-105 30 -172.5 141t-92.5 268q-20 166 -20 364q0 300 40 696q66 605 156 1132q8 41 36 61t59 20q51 0 77 -36q20 -29 20 -59q0 -9 -1 -17q-90 -524 -154 -1120q-30 -288 -34.5 -450.5t-4.5 -222.5q0 -271 40 -484q15 -77 44.5 -138t63 -73.5
t50.5 -12.5q45 0 105 36q182 113 345 500q8 19 28 19q21 0 27 -16q4 -9 4 -15t-2 -12q-252 -589 -555 -589z" />
    <glyph glyph-name="m" unicode="m" horiz-adv-x="2263" 
d="M15 -29q-48 0 -75 36q-22 28 -22 61l5 41q39 283 66.5 511.5t32.5 377.5q2 41 29.5 68t68.5 27q41 -2 68 -30t27 -69q-4 -157 -32 -389q77 176 153 280q122 165 204.5 188.5t117.5 23.5q85 0 156 -67q98 -92 128 -315q6 -51 6 -107q57 161 153.5 267t171.5 129t114 23
q190 0 276 -254q35 -122 52 -253l13 -88q14 -124 35.5 -187t73.5 -63q65 0 208 107q142 112 220 203q10 11 23 11q12 0 21.5 -9t9.5 -22q0 -11 -8 -20q-81 -96 -230 -212q-187 -142 -311 -142q-37 0 -68 13q-138 56 -179 381q-17 132 -50 239q-64 173 -109 188t-63 15
q-137 0 -353 -458l-11 -23q-16 -105 -55 -210q-27 -63 -91 -63q-17 0 -34 6q-63 26 -63 89q0 18 7 36q53 153 53 293q0 45 -5 89q-18 146 -65 221t-111 75q-84 0 -187 -140q-116 -157 -235 -500l-40 -294q-6 -41 -34.5 -62.5t-61.5 -21.5z" />
    <glyph glyph-name="n" unicode="n" horiz-adv-x="1510" 
d="M26 -40q-10 0 -21 2q-40 10 -57.5 38t-17.5 56q0 11 2 22q6 32 24.5 204t34.5 367q9 112 12.5 173.5t3.5 86.5q0 26 -2 36.5t-2 20.5q0 28 16 52q28 44 81 44q29 0 53 -16q33 -21 42 -61q5 -24 5 -71q0 -107 -16 -280l-10 -124q93 182 239 341q85 93 159.5 134t130.5 41
q31 0 61 -10q151 -48 233 -438q10 -44 17 -96q29 -218 86 -252q32 -18 52 -18q41 0 102 38q116 77 251 241q10 12 23 12q11 0 21 -8.5t10 -22.5q0 -10 -7 -19q-140 -173 -264 -255q-83 -53 -133 -57.5t-64 -4.5q-71 0 -130 36q-70 43 -102 142q-21 70 -35 147
q-17 92 -44 181l-21 79q-40 149 -84.5 159t-57.5 10q-66 0 -143 -68q-150 -132 -317 -482q-26 -257 -36 -304q-10 -40 -38 -58t-57 -18z" />
    <glyph glyph-name="o" unicode="o" horiz-adv-x="1252" 
d="M723 321q26 100 26 209q0 140 -45 270q-51 147 -138.5 204.5t-170.5 57.5q-64 0 -141 -25q-65 -25 -97 -72t-32 -108q88 104 222 143q13 3 26 3q25 0 47 -13q49 -27 49 -83q0 -26 -13 -48q-19 -34 -58 -46q-130 -41 -194 -192l2 -2q78 -119 215 -203q131 -82 302 -95z
M470 44q29 0 59 9q75 23 138 127q22 37 37 80q-177 17 -315 103q-127 78 -209 186q-16 -68 -16 -130q0 -143 89 -252q55 -67 113 -95t104 -28zM393 -41q-153 0 -276 101q-147 121 -147 360q0 188 91 348l9 14q-7 36 -7 70q0 179 171 243q89 31 165 31q40 0 76 -9
q104 -26 175.5 -105t111.5 -192q48 -138 48 -289q0 -112 -23 -211q231 9 464 177q9 6 20 6q13 0 23 -13q5 -8 5 -17q0 -16 -12 -26q-262 -189 -518 -189q-20 -59 -48 -108q-115 -191 -328 -191z" />
    <glyph glyph-name="p" unicode="p" horiz-adv-x="1245" 
d="M-2 -1245q-41 0 -69 31q-26 28 -26 67l101 2044q3 41 31 66.5t68 25.5q41 0 70 -31q25 -28 25 -67l-12 -240q45 64 132 122t172 84.5t149 26.5q31 0 62 -5q91 -16 144 -100q44 -75 53 -141t9 -110q0 -47 -7 -95q157 40 362 70h3q26 0 32 -27v-3q0 -27 -27 -31
q-220 -32 -382 -75q-56 -230 -196 -360q-175 -146 -286 -146q-131 0 -154 144q-2 9 -2 19q0 56 59 126q103 121 379 220q26 83 26 181q0 130 -60 189q-45 44 -107 44q-183 0 -369 -294l-82 -1643q-3 -41 -31 -66.5t-67 -25.5zM351 -35q72 0 241 218q40 50 68 111
q-231 -93 -304 -184q-44 -52 -44 -87q5 -58 39 -58z" />
    <glyph glyph-name="q" unicode="q" horiz-adv-x="1356" 
d="M269 265q85 0 227 180q80 101 174 268q-102 74 -166.5 88t-91.5 14q-177 0 -232 -243q-8 -40 -8 -104t16 -120.5t41.5 -69.5t39.5 -13zM886 -871q29 0 63 49q50 74 87 209q26 97 26 215q0 120 -41 231q-53 134 -181 166q-31 -302 -31 -562q2 -253 35 -283q27 -25 42 -25z
M806 -978q-73 0 -126 78q-65 96 -65 334q0 271 31 579q33 317 81 675q-188 -335 -341 -440q-103 -70 -182 -70q-31 0 -59 11q-99 38 -132.5 133t-33.5 177q0 54 11 112q47 207 138 261.5t176 54.5q49 0 102 -14q145 -38 294 -146q20 37 40 77q15 29 28 48q30 35 75 35
q48 0 75 -35q22 -29 22 -62l-23 -182q-36 -264 -67 -549q333 139 501 390q10 14 27 14q9 0 16 -5q14 -10 14 -27q0 -8 -5 -16q-174 -260 -515 -406q132 -49 190 -192q46 -123 46 -254q0 -129 -29 -231q-44 -162 -120.5 -251.5t-119.5 -94t-49 -4.5z" />
    <glyph glyph-name="r" unicode="r" horiz-adv-x="1044" 
d="M810 -48q-48 0 -78 41q-74 108 -100.5 216t-26.5 213q0 117 10 222q10 158 10 198q0 108 -27 184q-25 69 -89 110q-88 49 -211 91q-58 21 -112 43l-8 -135q-7 -175 -32 -361.5t-98 -305.5q-9 -14 -26 -14q-8 0 -16 5q-14 10 -14 27q0 8 5 16q66 109 89 288t30 349
q6 111 14 189q2 13 11 20.5t20 7.5q26 0 80 -17q126 -39 315 -129q126 -59 179 -100.5t59 -78t6 -66.5q0 -34 -5 -77q-10 -102 -10 -221q0 -141 16 -281q21 -175 89 -282q18 -26 18 -54q0 -49 -42 -81q-27 -17 -56 -17z" />
    <glyph glyph-name="s" unicode="s" horiz-adv-x="930" 
d="M182 530q174 153 174 285q0 36 -13 63q-34 67 -88 68q-55 0 -103 -39.5t-64 -91.5q-9 -38 -9 -73q0 -111 103 -212zM198 -644q-39 0 -76 10q-156 44 -174 115t-18 109q0 76 36 161q55 130 148 246.5t178 183.5q-46 40 -95 79q-98 75 -179 157t-108 162.5t-27 144.5
t18 138q28 101 95 145.5t145 44.5q83 0 154 -40t104 -108q19 -40 19 -89q0 -158 -191 -328q44 -38 92 -76q70 -55 137 -116q261 160 500 214h6q9 0 17 -5q14 -8 14 -25q0 -25 -24 -31q-223 -50 -468 -197q105 -105 149 -261q14 -62 14 -120q0 -47 -9 -92q-21 -101 -76 -184
q-160 -238 -381 -238zM67 -508q40 0 103 21q72 26 140 77t107 109q34 52 44 97t10 74q0 36 -9 74q-32 110 -124 195q-69 -55 -142 -145.5t-128.5 -190t-68 -153t-12.5 -73.5q0 -85 80 -85z" />
    <glyph glyph-name="t" unicode="t" horiz-adv-x="848" 
d="M302 9q-23 0 -44 4q-114 21 -179.5 121t-87.5 246q-22 155 -22 339q0 192 24 415q59 542 171 1034q-194 64 -451 140q-397 115 -609 115q-58 0 -107 -8q-126 -21 -167 -117q-10 -20 -30 -20q-19 0 -26 17q-4 8 -4 15q0 5 2 10q50 116 151.5 139t184.5 23q218 0 603 -110
q228 -66 463 -142l4 -2q75 324 136 505q23 66 91 66q16 0 32 -5q66 -24 66 -91q0 -16 -5 -32q-61 -179 -135 -501q216 -69 401.5 -115.5t254.5 -48.5t77 -2q117 0 162 56q10 12 25 12q9 0 19.5 -8t10.5 -23q0 -9 -6 -18q-60 -75 -133 -76t-79 -1q-136 0 -324 45
q-196 47 -421 119q-107 -475 -164 -995q-24 -227 -24 -413q0 -152 16 -278q10 -113 42 -220q27 -88 69 -105t64 -17q62 0 160 55q173 100 331 351q11 15 27 15q8 0 17.5 -6t11 -13.5t1.5 -10.5q0 -9 -4 -17q-167 -265 -353 -372q-139 -75 -242 -75z" />
    <glyph glyph-name="u" unicode="u" horiz-adv-x="1571" 
d="M255 7q-84 0 -152 66q-77 74 -111 251q-13 69 -13 148q0 134 37 296q11 39 39 56.5t54 17.5q12 0 24 -3q39 -11 56.5 -39t17.5 -54q0 -12 -3 -24q-32 -137 -32 -246q0 -64 11 -118q32 -169 82 -203t86 -34q38 0 80 25q199 122 338 644l2 7q16 77 97 82q32 0 57 -20
q31 -23 38 -63q32 -216 81 -330q75 -171 128 -184t74 -13q118 0 322 224q10 10 22 10t21.5 -9t9.5 -24q0 -11 -8 -19q-82 -87 -182.5 -163.5t-174.5 -99.5t-117 -23q-57 0 -111 26q-160 77 -236 455q-72 -228 -156 -365q-73 -118 -168.5 -191t-148.5 -78t-64 -5z" />
    <glyph glyph-name="v" unicode="v" horiz-adv-x="957" 
d="M307 -112q-28 0 -54 12q-115 54 -190.5 270t-139.5 744v9q0 35 21 62q30 37 76 37q34 0 60 -21q30 -24 36 -65q45 -372 92 -578q51 -225 92 -288.5t73 -63.5q55 0 124 153q47 105 97 240q102 263 167 411q101 232 137 232q8 0 19 -7t11 -24q0 -8 -5 -16
q-79 -131 -215 -474l-42 -105q-66 -173 -131 -312t-133 -186q-50 -30 -95 -30z" />
    <glyph glyph-name="w" unicode="w" horiz-adv-x="1626" 
d="M1129 -103q-90 0 -180 70q-103 80 -186 214q-102 164 -138 369q-59 -158 -150 -277q-144 -190 -298 -190q-126 0 -173 151q-28 93 -28 252q0 218 58 544q8 41 36.5 60.5t58.5 19.5q51 0 77 -37q20 -28 20 -59l-1 -17q-55 -312 -55 -478q0 -346 91 -346q16 0 37 11
q64 42 128 126q69 90 120 207t68 237q1 6 4 11q6 38 33.5 60t62.5 22q44 0 72 -32q24 -29 24 -66v-13q-2 -25 -2 -49q0 -210 117 -401q3 -3 5 -7q52 -84 118.5 -145.5t105 -71t51.5 -9.5q121 0 143 244q3 42 3 91q0 207 -67 544l-1 8q0 25 32 29q23 0 29 -25
q69 -346 69 -560q0 -220 -64 -329q-87 -144 -146.5 -151t-73.5 -7z" />
    <glyph glyph-name="x" unicode="x" horiz-adv-x="949" 
d="M-11 -321q-7 0 -14 4q-18 9 -18 27q0 7 192 394q-48 51 -84 119q-102 197 -102 474q0 74 8 149q6 41 34 63.5t64 22.5q45 0 72 -34q23 -29 23 -64v-9q-8 -66 -8 -127q1 -244 89 -400l294 594q8 18 27 18q6 0 14 -4q17 -9 17 -27q0 -7 -311 -638q87 -94 134.5 -95t49.5 -1
q222 0 477 346q9 12 24 12q10 0 20.5 -7.5t10.5 -24.5q0 -9 -6 -18q-61 -83 -153.5 -182t-202.5 -177t-178 -88.5t-89 -10.5q-92 0 -177 65l-180 -363q-9 -18 -27 -18z" />
    <glyph glyph-name="y" unicode="y" horiz-adv-x="1256" 
d="M250 -1489q-165 0 -241 228q-28 88 -28 202q0 234 113 491q179 407 623 746q32 277 32 452q0 98 -9 173q-174 -436 -303 -591q-116 -141 -214 -141q-101 0 -166 113q-80 137 -80 382q0 154 31 309q9 40 37.5 58.5t57.5 18.5q9 0 19 -2q41 -10 59.5 -38t18.5 -57
q0 -10 -2 -20q-27 -135 -27 -271q0 -100 15 -230q21 -172 88 -172q44 0 115 88q136 162 329 668q11 56 64 78q18 6 34 6q21 0 40 -9q35 -17 50 -55q31 -89 33.5 -184.5t2.5 -126.5q0 -138 -15 -306q151 94 332 179q7 3 13 3q19 0 28 -18q3 -7 3 -13q0 -19 -18 -28
q-202 -95 -366 -200q-66 -598 -204 -1103q-58 -205 -125 -340q-143 -290 -340 -290zM189 -1400q94 0 227 286q59 119 113 307q111 410 177 899q-317 -258 -471 -523t-183 -490q-9 -73 -9 -137q0 -104 25 -184q42 -129 73.5 -143.5t47.5 -14.5z" />
    <glyph glyph-name="z" unicode="z" horiz-adv-x="1128" 
d="M113 -41h-25q-21 0 -35 2q-47 8 -71 52q-10 22 -10 44q0 58 54 86q114 57 237.5 160t235.5 226q117 128 195 243.5t91 187.5l4 14l-473 -22q-13 0 -22 8.5t-10 21.5q0 13 8 22t21 10q53 3 148 10q271 20 362 20q46 0 74 -4q40 -8 60.5 -36t20.5 -59q0 -9 -1 -17
q-19 -99 -110 -240.5t-225 -289.5q-203 -223 -429 -371l778 29q13 0 22 -8t10 -21q0 -30 -30 -32q-823 -32 -834 -33z" />
    <glyph glyph-name="braceleft" unicode="{" horiz-adv-x="684" 
d="M458 73q-78 3 -121 65.5t-65.5 161t-38 210.5t-36.5 208q-5 16 -72 85q-29 30 -56 60q-17 20 -18 34.5t-1 17.5q0 22 14 42q22 30 57 67q78 80 85 104l10 77q14 115 38 233q54 269 186 269h7q31 -3 49 -25t18 -50q0 -34 -25 -55q-22 -18 -50 -18h-6q-16 -4 -45 -204
q-13 -86 -23 -169q-9 -58 -11 -79q-14 -73 -123 -185l-6 -7l7 -8q94 -91 111 -155q23 -105 39 -219q18 -123 36.5 -214t41.5 -96q32 -2 52.5 -23t21.5 -53q-2 -32 -23.5 -52.5t-52.5 -21.5z" />
    <glyph glyph-name="bar" unicode="|" horiz-adv-x="401" 
d="M193 63h-17q-28 0 -51 20q-75 78 -75 566v73q0 183 4 381q5 215 5 403q0 117 -2 223q0 32 20.5 53.5t52.5 23.5q32 0 53.5 -20.5t23.5 -52.5q2 -107 2 -226q0 -189 -5 -406q-6 -271 -6 -604q2 -264 30 -305q22 -22 23 -38v-17q0 -28 -20 -51q-22 -22 -38 -23z" />
    <glyph glyph-name="braceright" unicode="}" horiz-adv-x="616" 
d="M158 20q-19 0 -36 10q-38 22 -38 66q0 19 10 36q15 26 45 35q27 11 37 100t15 214q10 236 40 363q11 55 36 92q-30 30 -40.5 108t-19.5 177q-8 95 -18.5 184t-25.5 147t-36 60q-32 0 -53.5 20.5t-23.5 52.5q0 31 20.5 53t52.5 23q90 0 136.5 -78t66.5 -199t30 -249
q8 -90 18 -169q3 -21 14 -31t35 -20q43 -22 43 -67q0 -40 -33 -63q-39 -29 -46 -38q-3 -5 -10 -37q-18 -77 -25 -164t-11 -172q-5 -111 -16 -206t-44 -159.5t-102 -85.5q-11 -3 -21 -3z" />
    <glyph glyph-name="asciitilde" unicode="~" horiz-adv-x="868" 
d="M520 749q-72 0 -179 52q-64 32 -101 32q-33 0 -61 -28q-22 -23 -37 -23.5t-17 -0.5q-28 0 -51 21t-23.5 36.5t-0.5 17.5q0 27 20 50q59 63 99.5 73t66.5 10q61 0 166 -51q69 -36 115 -36q39 0 76 31q23 19 49 19q34 0 57 -24q19 -24 19 -51q0 -31 -25 -55
q-67 -58 -109 -65.5t-64 -7.5z" />
    <glyph glyph-name="exclamdown" unicode="&#xa1;" horiz-adv-x="648" 
d="M123 -310q-33 0 -55 26q-18 22 -18 50l202 2098q3 31 25 49t50 18q35 0 56 -26q18 -22 18 -49l-202 -2099q-4 -31 -26 -49t-50 -18zM425 1998q-36 0 -69 39q-25 -20 -50 -20q-15 0 -29 7l-3 2q-40 25 -40 76q0 45 48 99q32 39 69 57q18 9 28 9q8 0 15 -4q41 -27 70 -73
q34 -57 34 -101q0 -36 -20.5 -63.5t-52.5 -27.5zM425 2060q12 6 12 27q0 27 -26 70q-16 26 -35 43q-28 -17 -48 -40q-32 -36 -32 -59q0 -17 9 -21l2 -1q11 2 29 26q10 12 26 12q17 0 26 -16q22 -41 37 -41z" />
    <glyph glyph-name="cent" unicode="&#xa2;" horiz-adv-x="1118" 
d="M134 -234q-18 0 -25 14q-5 9 -5 16q0 5 96 320q-108 16 -168 102q-59 95 -59 213q0 127 50 256q41 106 116 191q129 148 263 148q37 0 73 -13l93 304q9 22 30 22q19 0 26 -14q5 -9 5 -16q0 -5 -99 -328q31 -25 59 -66q6 -9 6 -18q0 -15 -14 -24q-8 -6 -16 -6
q-17 0 -27 14q-14 21 -29 33l-212 -691q46 -13 99 -13q106 0 246 48q230 78 480 240q9 5 18 5q15 0 25 -13q5 -8 5 -16q0 -18 -14 -27q-287 -185 -593 -285q-154 -51 -300 -52l-99 -322q-6 -22 -30 -22zM242 251l210 685q-55 -5 -105.5 -66t-88.5 -135t-54 -118
q-35 -88 -38 -171q0 -144 76 -195z" />
    <glyph glyph-name="sterling" unicode="&#xa3;" horiz-adv-x="1084" 
d="M81 934h187q-14 35 -28 76t-25 83.5t-18 85.5t-7 81l1 21q10 134 81 217q90 102 199 102q60 0 111 -21t91 -57.5t66 -86t35 -106.5v-6q0 -23 -26 -28h-5q-24 0 -30 26q-25 160 -165 160q-93 0 -160 -79q-48 -55 -48 -150q0 -78 64 -255l22 -63h238q12 0 21 -9t9 -22
t-9 -22t-21 -9h-219q31 -99 31 -162q0 -71 -73 -205q-23 -42 -47.5 -85t-52.5 -88q88 25 175 25q100 0 219 -22q42 -8 80.5 -12t73.5 -4q13 0 25 0.5t23 1.5h6q23 0 29 -26v-3q0 -26 -26 -32q-28 -3 -60 -3q-38 0 -77.5 4.5t-82.5 12.5q-56 10 -111 15.5t-112 5.5
q-111 0 -228 -56q-4 -3 -11 -3q-11 -4 -24 -4q-18 0 -36 9q-39 23 -39 65q0 19 9 37q10 17 22 37.5t28 46.5q56 93 91 161t49 113q1 4 1 14q0 42 -39 157h-207q-13 0 -22 9t-9 22t9 22t22 9z" />
    <glyph glyph-name="currency" unicode="&#xa4;" horiz-adv-x="1011" 
d="M787 524q-27 0 -49 18q-66 55 -97 86q-62 -27 -149 -27q-27 0 -57 3l-4 1q-93 10 -163 51q-26 -24 -53 -47h-1l-38 -33q-23 -20 -51 -20q-32 0 -53.5 23.5t-21.5 51.5q0 31 25 55q33 31 88 73l18 14q-12 37 -12 85q0 104 39 164q-20 42 -37 87l-1 3l-17 42.5t-7 32.5
q0 47 44 68q16 6 31 6q46 0 68 -44l21 -53q19 -50 19 -54q64 18 146 18q86 0 141 -14l2 7q8 24 20 55l21 53q21 44 69 44q14 0 30 -6q45 -20 45 -67q0 -16 -7.5 -34t-18.5 -44v-1q-17 -44 -37 -86l1 -1q40 -63 40 -170q0 -83 -31 -140q19 -12 61 -48l25 -21q23 -21 24 -37.5
t1 -18.5q0 -27 -19.5 -50t-36 -24t-18.5 -1zM496 752q69 0 102 22.5t33 88.5v17q0 45 -13 69q-16 29 -152 29q-63 0 -102 -14q-45 -16 -45 -101q0 -59 24 -76q33 -25 105 -33q26 -2 48 -2z" />
    <glyph glyph-name="yen" unicode="&#xa5;" horiz-adv-x="1014" 
d="M414 266q-32 1 -53.5 21.5t-22.5 52.5q-1 68 -8 164q-5 85 -9 175l-169 1q-32 1 -53 22.5t-21 52.5q1 32 22 53t53 22l168 -1q1 38 4 75l-157 1q-32 1 -53 22t-21 53q1 32 22 53t53 21l183 -1l3 10q-70 115 -120 199q-70 118 -102 168t-48 59q-27 18 -31 37t-4 27
q0 20 11 39q18 27 37 31t27 4q54 0 118 -93q43 -63 195 -321q83 131 141 210q80 109 157 186q23 22 38 22h17q28 0 51 -21q22 -23 22 -39v-17q0 -27 -21 -50q-69 -69 -142 -168t-187 -284h139q32 -1 53 -22.5t21 -52.5q-1 -32 -22 -53t-53 -22l-177 1q-3 -36 -5 -75l167 -1
q32 -1 53 -22t21 -53q-1 -32 -22 -53t-53 -21l-165 1q3 -86 9 -166q6 -93 7 -171q0 -32 -21 -53.5t-52 -22.5z" />
    <glyph glyph-name="brokenbar" unicode="&#xa6;" horiz-adv-x="382" 
d="M123 1034q-31 1 -52 22.5t-21 53.5l3 259q0 123 -2 227q0 32 20.5 53.5t51.5 23.5q32 0 53.5 -20.5t23.5 -52.5q2 -78 2 -169q0 -177 -3 -323q-1 -32 -22.5 -53t-53.5 -21zM156 220q-15 0 -30 7q-27 12 -39 41q-37 102 -37 465v44q0 31 21.5 53t52.5 22t53 -22t22 -53
v-42q0 -333 28 -414q5 -14 5 -27q0 -50 -49 -69q-14 -5 -27 -5z" />
    <glyph glyph-name="section" unicode="&#xa7;" horiz-adv-x="1323" 
d="M301 251q-85 0 -140.5 56.5t-55.5 187.5q20 147 114 249q22 23 37.5 24t16.5 1q29 0 52 -21t24 -36.5t1 -17.5q0 -27 -20 -50q-61 -67 -76 -164q4 -80 48 -80t93.5 32t80.5 88q20 36 21 80q-4 21 -5 44q-27 123 -234.5 237t-207.5 284q0 98 63 190q48 70 115 125
q149 116 285 116h16q66 59 146 100q141 74 266 74q38 0 72 -8q144 -36 144 -182q0 -44 -13 -98q-9 -31 -30.5 -43.5t-41.5 -12.5q-9 0 -19 2q-30 9 -43 30.5t-13 41.5q0 9 2 19q7 29 7 50q0 43 -30 48q-18 3 -38 3q-83 0 -194 -57q-78 -40 -133 -94q-5 -8 -12 -13
q-50 -55 -50 -96q0 -77 145 -137q82 -33 141 -71q121 94 226 152q19 10 37 10q42 0 65 -39q10 -18 10 -37q0 -41 -39 -65q-85 -47 -183 -121q67 -82 72 -133t5 -67q0 -68 -26 -132q-49 -112 -142 -183q-99 -73 -197 -74q-24 0 -45 5l-10 -19q-51 -90 -133 -143
q-86 -55 -174 -55zM552 844q61 105 164 203q-35 20 -79 38q-160 67 -200.5 138t-40.5 127q0 36 13 73q-113 -64 -172 -151q-37 -55 -37 -104q0 -85 130 -156q148 -81 222 -168zM665 612q46 1 104 44q62 48 94 120q13 32 13 66q0 57 -42 111q-27 -26 -53 -53
q-111 -116 -138 -228q5 -25 6 -50q7 -10 16 -10z" />
    <glyph glyph-name="dieresis" unicode="&#xa8;" horiz-adv-x="725" 
d="M465 1779l-21 1q-92 22 -92 98q0 35 21 63q34 47 90 47q13 0 27 -2q85 -23 85 -101q0 -33 -18 -61q-29 -45 -92 -45zM160 1776l-18 1q-92 23 -92 99q0 33 21 63q33 46 89 46q13 0 27 -2q86 -22 86 -100q0 -35 -18 -62q-30 -45 -95 -45z" />
    <glyph glyph-name="copyright" unicode="&#xa9;" horiz-adv-x="1603" 
d="M689 401q27 0 56 2q206 22 330 99t176.5 186.5t52.5 230.5q0 149 -65 295q-63 139 -164 232t-222 106q-37 3 -72 3q-180 0 -301 -69q-146 -83 -214 -223q-66 -136 -66 -290q0 -160 66 -299q62 -132 173 -202.5t250 -70.5zM689 251q-184 0 -318 85q-158 100 -239.5 271
t-81.5 365q0 189 83 358q87 179 255 277t394 98q40 0 83 -3q165 -17 298.5 -135t211.5 -292.5t78 -357.5q0 -154 -67 -293q-69 -145 -222 -244t-404 -126q-36 -3 -71 -3zM670 536q-112 0 -180 42q-138 85 -138 277q0 119 54 243q73 164 192 250q71 49 142 49q97 0 172 -108
q13 -19 13 -41q0 -39 -33 -62q-21 -13 -43 -13q-37 0 -60.5 32.5t-39 34t-18.5 1.5q-25 0 -49 -17q-83 -60 -139 -186q-42 -96 -42 -183q0 -111 67 -143q53 -26 112 -26q48 0 110 12q120 24 328 128q18 9 35 9q42 0 66 -42q8 -17 8 -34q0 -44 -42 -66q-227 -115 -366 -142
q-82 -15 -149 -15z" />
    <glyph glyph-name="ordfeminine" unicode="&#xaa;" horiz-adv-x="959" 
d="M220 1738q42 4 95 115q-15 7 -29 7q-25 0 -46 -14q-41 -28 -41 -69q0 -39 21 -39zM539 1585q-102 0 -167 81q-70 -77 -150 -77q-55 0 -95 27q-77 55 -77 163q0 57 29 107.5t78 84t109 39.5l20 1q60 0 116 -36l14 1q13 0 25 -4q50 -18 50 -69q0 -15 -19 -65q-1 -9 -1 -19
q0 -47 30 -71q16 -13 42 -13q54 0 140 76q23 20 52 20q31 0 52.5 -23.5t21.5 -51.5q0 -31 -25 -55q-127 -116 -245 -116z" />
    <glyph glyph-name="guillemotleft" unicode="&#xab;" horiz-adv-x="896" 
d="M673 490q-33 0 -56 22l-280 291q-22 22 -23 38v17q0 27 20 50l266 288q22 23 37.5 24t17.5 1q28 0 51 -21t24 -37v-17q0 -28 -20 -51l-218 -237l233 -242q21 -22 21 -53q0 -30 -22.5 -51.5t-50.5 -21.5zM408 490q-33 0 -55 22l-281 291q-22 22 -22 38v17q0 27 19 50
l266 288q22 23 37.5 24t17.5 1q28 0 51 -21t24 -37v-17q0 -28 -20 -51l-218 -237l233 -242q21 -22 21 -53q0 -30 -22.5 -51.5t-50.5 -21.5z" />
    <glyph glyph-name="logicalnot" unicode="&#xac;" horiz-adv-x="967" 
d="M744 814q-32 0 -53.5 20.5t-22.5 52.5l-4 204l-537 -19q-32 0 -53.5 20.5t-23.5 51.5q0 32 20.5 54t52.5 23l612 22q32 0 54 -20.5t24 -52.5l4 -280q0 -32 -21 -53.5t-52 -22.5z" />
    <glyph glyph-name="registered" unicode="&#xae;" horiz-adv-x="1603" 
d="M1031 504q-12 0 -25 4q-195 65 -363 203q-21 16 -40 32q-4 -57 -6 -107q-3 -32 -25 -52t-53 -20q-32 3 -52 25t-20 54q10 184 25 374q-36 0 -57 27q-16 22 -16 45l1 14q28 161 101 253q111 141 262 141q80 0 142 -41q103 -67 103 -195q0 -26 -5 -55q-17 -94 -64.5 -161
t-113 -110t-137.5 -67q93 -81 190 -138q81 -49 175 -80q52 -19 52 -71q0 -11 -4 -23q-19 -52 -70 -52zM621 1003q65 20 120 55q89 55 114 173q2 14 2 26q0 52 -34 74q-25 17 -59 17q-80 0 -146 -84q18 -20 18 -48q0 -24 -10 -143l-1 -22zM689 401q27 0 56 2q388 41 507 287
q51 106 51 225q0 155 -65 299q-62 139 -163 232t-222 106q-37 3 -72 3q-180 0 -301 -69q-146 -83 -214 -223q-66 -136 -66 -290q0 -162 65 -299q63 -132 174 -202.5t250 -70.5zM688 251q-183 0 -317 85q-158 100 -239.5 271t-81.5 366q0 188 82 357q88 179 255.5 277
t394.5 98q40 0 83 -3q165 -17 298.5 -135t211.5 -292.5t78 -357.5q0 -154 -67 -293q-69 -145 -222.5 -244t-404.5 -126q-36 -3 -71 -3z" />
    <glyph glyph-name="macron" unicode="&#xaf;" horiz-adv-x="877" 
d="M126 1759q-32 1 -53.5 21.5t-22.5 52.5q0 32 21 53t53 23l527 7q32 0 53 -21t23 -53q-1 -32 -22 -53t-52 -22z" />
    <glyph glyph-name="degree" unicode="&#xb0;" horiz-adv-x="612" 
d="M260 1574q36 0 52 80q-6 49 -44 52q-55 0 -67 -55l-1 -9q0 -37 32 -58q14 -10 28 -10zM261 1424q-61 0 -114 36q-49 34 -73 82.5t-24 97.5q0 80 49 137q35 41 83 61q39 17 83 17q53 0 101 -27q84 -46 96 -170v-6l-1 -13q-25 -167 -140 -205q-30 -10 -60 -10z" />
    <glyph glyph-name="plusminus" unicode="&#xb1;" horiz-adv-x="860" 
d="M135 1130l171 8v153q0 31 21.5 53t52.5 22t53 -22t22 -53v-147l180 8q32 0 53.5 -21t21.5 -53q0 -30 -20 -51.5t-51 -23.5l-184 -8l1 -211q0 -30 -22 -52t-53 -22t-53 22t-22 52v204l-168 -7q-30 0 -51.5 19.5t-23.5 51.5q0 32 20 54t52 24zM121 670l509 24q31 0 53 -21
t22 -53q0 -30 -20 -51.5t-51 -23.5l-509 -24q-32 0 -53.5 21t-21.5 53q0 30 19.5 51.5t51.5 23.5z" />
    <glyph glyph-name="twosuperior" unicode="&#xb2;" horiz-adv-x="613" 
d="M128 1417h-4q-27 0 -49.5 20t-23.5 36.5t-1 18.5q0 27 18 49l27 31q82 84 152 200q17 33 17 54q0 12 -5 18t-9 8t-6 2l-3 -9q-9 -31 -30.5 -43t-40.5 -12q-10 0 -21 3q-55 18 -55 72q0 10 3 21q35 117 148 117q84 0 136 -74q29 -42 30.5 -73t1.5 -36q0 -90 -102 -224
q42 7 54 11t24 4q17 0 32 -8q42 -22 42 -67q0 -18 -9 -34q-13 -27 -43 -38q-23 -7 -132 -26q-129 -19 -151 -21z" />
    <glyph glyph-name="threesuperior" unicode="&#xb3;" horiz-adv-x="569" 
d="M164 1426q-23 0 -48 2q-31 5 -48.5 26.5t-17.5 47.5q0 36 26 58q22 17 48 17l37 -1q80 0 100 35q9 12 9 23q-1 13 -9 22t-26 9q-13 0 -33 -5q-14 -5 -28 -5q-48 0 -69 48q-4 14 -4 27q0 49 49 70.5t61 51.5q-9 -5 -21 -14q-21 -15 -45 -15q-36 0 -60 30q-14 21 -14 45
q0 35 30 60q75 51 133 51q25 0 46 -9q51 -21 72 -70q13 -28 13 -61q0 -44 -23 -87q15 -10 27 -23q50 -53 50 -126q0 -56 -34 -106.5t-92.5 -75.5t-128.5 -25z" />
    <glyph glyph-name="acute" unicode="&#xb4;" horiz-adv-x="389" 
d="M125 1664q-41 0 -61 31q-14 22 -14 45q0 9 41 206q7 31 29 45.5t43 14.5q42 0 62 -31q14 -21 14 -43q0 -9 -41 -208q-8 -31 -29.5 -45.5t-43.5 -14.5z" />
    <glyph glyph-name="mu" unicode="&#xb5;" horiz-adv-x="819" 
d="M124 -314q-32 0 -53 22.5t-21 52.5v3q6 146 6 564l-2 483v115q-1 33 -1 67q0 85 7 166v2q17 68 75 68q38 0 59 -28q16 -22 16 -47v-6q-5 -62 -7 -214q14 -292 97 -413q28 -41 46 -41q11 0 30 23q51 60 90 221t53 439q2 32 24.5 52t53.5 20q32 -3 52 -25t20 -54l-2 -771
q0 -31 -22 -53t-53 -22q-30 0 -52 22t-22 53v61q-13 -21 -27 -38q-67 -78 -145 -78q-77 0 -142 71l1 -208q0 -260 -6 -435q-2 -32 -23.5 -52t-51.5 -20z" />
    <glyph glyph-name="paragraph" unicode="&#xb6;" horiz-adv-x="1193" 
d="M580 -146q-31 1 -52.5 21.5t-22.5 52.5l-7 823q-244 21 -359 166q-89 114 -89 265q0 80 26 158q36 105 110.5 185.5t177.5 113.5q13 3 25 3l577 9q31 0 52.5 -20.5t23.5 -52.5l1 -1642q0 -31 -22 -53t-53 -22h-87q-31 0 -52.5 21.5t-22.5 52.5l-7 1367h-63l1 -1373
q0 -30 -21.5 -51.5t-52.5 -22.5z" />
    <glyph glyph-name="periodcentered" unicode="&#xb7;" horiz-adv-x="478" 
d="M193 772q-64 0 -103.5 37t-39.5 88q0 43 26 78q40 59 113 59q15 0 31 -3q108 -29 108 -127q0 -39 -24 -75q-38 -57 -111 -57z" />
    <glyph glyph-name="periodcentered" unicode="&#x2219;" horiz-adv-x="478" 
d="M193 772q-64 0 -103.5 37t-39.5 88q0 43 26 78q40 59 113 59q15 0 31 -3q108 -29 108 -127q0 -39 -24 -75q-38 -57 -111 -57z" />
    <glyph glyph-name="cedilla" unicode="&#xb8;" horiz-adv-x="474" 
d="M125 123q-32 1 -53 22t-22 52q0 32 21 53.5t53 21.5q38 2 46 18q4 8 4 21q0 25 -16 55q-10 19 -10 37q0 42 39 65q18 9 35 9q44 0 67 -38q34 -64 35 -128q0 -49 -22.5 -92.5t-69.5 -69.5q-43 -25 -107 -26z" />
    <glyph glyph-name="onesuperior" unicode="&#xb9;" horiz-adv-x="456" 
d="M168 1315q-32 2 -52 24t-20 53q11 172 40 380l1 12l-14 -1q-34 0 -58 29q-15 21 -15 44q0 37 30 61q77 64 113 86q19 11 38 11q42 0 64 -37q10 -19 10 -38l1 -7q-6 -58 -22 -175v-3q-34 -266 -39 -367q-1 -32 -23 -52t-54 -20z" />
    <glyph glyph-name="ordmasculine" unicode="&#xba;" horiz-adv-x="635" 
d="M246 1487q18 0 35 24q20 29 34 76q21 69 21 144q0 90 -27 124q-9 12 -20 12q-17 0 -35 -36q-45 -86 -52 -196q-2 -18 -2 -35q0 -98 40 -112zM253 1337q-28 0 -58 8q-145 52 -145 261q0 94 31 192q25 80 67.5 138t95.5 74q31 8 58 8q52 0 89 -29q56 -44 79 -131
q15 -59 15 -127q0 -100 -27 -189q-32 -107 -88.5 -156t-116.5 -49z" />
    <glyph glyph-name="guillemotright" unicode="&#xbb;" horiz-adv-x="896" 
d="M50 549v17q0 28 21 50l233 242l-218 237q-20 23 -20 54q1 30 24 51t54 21q28 -1 52 -25l266 -288q19 -22 19 -53q0 -30 -22 -52l-281 -291q-22 -22 -52 -22h-3q-14 0 -27 6.5t-23.5 15.5t-16.5 19t-6 18zM315 566q0 27 20 50l234 242l-219 237q-19 22 -19 54q1 30 24 51
t54 21q29 -1 52 -25l266 -288q19 -22 19 -53q-2 -31 -23 -52l-280 -291q-22 -22 -52 -22h-3q-28 0 -51 20q-22 22 -22 56z" />
    <glyph glyph-name="onequarter" unicode="&#xbc;" horiz-adv-x="973" 
d="M156 150q-17 0 -33 7q-42 23 -42 68q0 16 7 32q30 70 233 886q70 282 130 513q8 30 29.5 43t40.5 13q45 0 64 -33q13 -21 13 -41q0 -10 -3 -20q-54 -212 -128 -511q-81 -323 -149.5 -588.5t-94.5 -326.5q-23 -42 -67 -42zM682 188q-33 0 -54 23t-21 55l9 188h-40
q-56 0 -101 -5l-13 -1q-23 0 -43 14q-31 22 -31 60q0 25 15 45q16 29 69 193q2 11 18 56q19 51 70 51q12 0 24 -4q38 -14 49 -51l1 21q2 31 23.5 51t51.5 20q32 0 53 -22.5t21 -52.5l-10 -222q39 -15 49 -57q1 -7 1 -15q0 -21 -11 -40q-16 -24 -46 -32l-9 -204
q-2 -31 -23.5 -51t-51.5 -20zM623 604l8 161l-17 -50q-17 -54 -37 -111h46zM168 1002q-31 2 -51.5 24t-20.5 53q11 172 40 380l1 12l-14 -1q-34 0 -58 29q-15 21 -15 44q0 37 30 61q77 64 113 86q19 11 38 11q41 0 65 -38q10 -18 10 -37q0 -21 -22 -185q-34 -270 -38 -367
q-2 -32 -24 -52t-54 -20z" />
    <glyph glyph-name="onehalf" unicode="&#xbd;" horiz-adv-x="975" 
d="M151 160q-16 0 -32 7q-44 22 -44 68q0 15 7 31q26 61 93 323t146 579q68 275 126 501q9 31 30.5 43.5t41.5 12.5q9 0 19 -2q31 -9 43.5 -30.5t12.5 -41.5q0 -9 -2 -19q-41 -159 -126 -500q-201 -817 -248 -928q-19 -44 -67 -44zM750 222l-288 26q-24 2 -43 19
q-23 21 -24 37.5t-1 18.5q0 27 18 49q118 130 191 258q19 38 19 63q0 15 -6.5 23.5t-13 11.5t-10.5 3q-5 0 -10 -15q-9 -31 -31 -43t-40 -12q-11 0 -21 3q-31 9 -43 31t-12 41q0 10 3 21q17 56 53 86q45 37 102 37q37 0 72 -16q43 -20 73 -63t31.5 -76.5t1.5 -38.5
q0 -102 -141 -286l-12 -16l140 -13q32 -4 49.5 -25.5t17.5 -47.5q0 -37 -25 -58q-22 -18 -50 -18zM168 1002q-32 2 -52 24t-20 53q11 172 40 380l1 12l-14 -1q-34 0 -58 29q-15 21 -15 44q0 37 30 61q12 9 31 26h1q77 71 119 71t64 -38q10 -18 10 -37l1 -7q-6 -59 -21 -175
q-2 -4 -24 -196q-12 -99 -15 -174q-2 -32 -24 -52t-54 -20z" />
    <glyph glyph-name="threequarters" unicode="&#xbe;" horiz-adv-x="1110" 
d="M308 196q-15 0 -31 7q-45 20 -45 68q0 15 6 30q53 133 286 1051l78 304q9 30 30 43t40 13q10 0 21 -3q31 -8 43.5 -30t12.5 -42q0 -10 -80 -322q-237 -931 -294 -1074q-20 -45 -67 -45zM819 188q-33 0 -54 23t-21 55l9 188h-40q-56 0 -101 -5l-13 -1q-23 0 -43 14
q-31 22 -31 60q0 25 15 45q9 17 69 193l18 56q19 51 70 51q12 0 24 -4q38 -14 49 -51l1 21q2 31 23.5 51t51.5 20q32 0 53 -22.5t21 -52.5l-10 -222q39 -15 49 -57q1 -7 1 -15q0 -21 -11 -40q-16 -24 -46 -32l-9 -204q-2 -31 -23.5 -51t-51.5 -20zM760 604l8 161l-54 -161
h46zM227 1008q-50 0 -111 15q-30 9 -42.5 31t-12.5 42q0 9 2 19q9 31 30.5 43.5t40.5 12.5q10 0 21 -3q45 -10 76 -10q75 0 75 59q0 25 -14.5 43.5t-42.5 18.5q-14 0 -29.5 -4.5t-28.5 -4.5q-15 0 -30 7q-27 12 -39 41q-5 14 -5 28q0 15 6 29q12 28 41 40q65 30 65 74
q0 20 -12 20q-14 0 -48 -23q-20 -15 -43 -15q-38 0 -62 30q-14 20 -14 43q0 38 30 62q60 43 93.5 47.5t47.5 4.5q36 0 65 -14q51 -25 75 -75q18 -37 18 -80q0 -45 -21 -90q25 -16 45 -38q52 -62 52 -145q0 -77 -54 -139q-62 -69 -174 -69z" />
    <glyph glyph-name="questiondown" unicode="&#xbf;" horiz-adv-x="1131" 
d="M407 -372q-229 0 -314 177q-43 90 -43 221q0 30 2 62q18 185 102 350q105 206 269 443q199 281 216 424q9 77 9 103q0 107 -48 232q-2 6 -2 12q0 20 19 28q6 2 12 2q20 0 28 -19q55 -144 55 -286q0 -324 -245 -699q-96 -145 -173 -294q-95 -183 -95 -357q0 -99 30 -160
q69 -145 141 -156.5t96 -11.5q99 0 210 63q144 79 214 228q21 48 29 102q2 13 11 19.5t19 6.5q16 0 24 -10t8 -20l-1 -5q-9 -61 -34 -117q-79 -169 -240 -258q-101 -57 -181.5 -68.5t-117.5 -11.5zM519 1771q-7 0 -15 2l-4 1q-18 6 -31 19q-27 28 -27 64q0 40 27 90
q25 44 67 80q10 7 20 7q5 0 10 -2q45 -17 83 -56q59 -61 59 -118q0 -47 -37 -70q-14 -9 -32 -9q-30 0 -61 24q-26 -32 -59 -32zM518 1833q11 0 26 32q6 18 28 18q13 0 23 -11q27 -30 41 -32q11 0 11 20q0 30 -42 72q-21 22 -44 35q-23 -23 -38 -50q-19 -35 -19 -58
q0 -13 9 -22q2 -3 5 -4z" />
    <glyph glyph-name="Agrave" unicode="&#xc0;" horiz-adv-x="3210" 
d="M2225 2937q-19 0 -37 10q-59 36 -177 222q-138 220 -192 342q-6 16 -6 31q0 47 44 68q16 6 31 6q46 0 68 -44q57 -127 181 -322q99 -156 126 -173q37 -23 37 -64q0 -20 -10 -39q-23 -37 -65 -37zM2437 -358q-57 0 -99 50q-105 123 -154 450q-56 366 -69 1019
q-96 -2 -193 -2q-164 0 -333 6q-165 6 -325 6q-88 0 -175 -2q-245 -517 -320 -694l-18 -38q-218 -402 -425 -402q-146 0 -222.5 91.5t-90 189.5t-13.5 157q0 74 13 146q53 259 208 388t372.5 173t457.5 50q412 854 710 1251q103 135 189 182.5t138 47.5q44 0 83 -25
q83 -52 103 -258q18 -279 24 -768q3 -208 8 -425q385 37 550 209q9 10 24 10q11 0 20 -8.5t10 -20.5q0 -13 -9 -22q-181 -192 -593 -229q9 -438 44 -832q7 -120 19.5 -233.5t43 -203t62 -97.5t38.5 -8q54 0 135 98q82 105 145 251t88 278q6 25 30 25q17 0 25 -12q6 -9 6 -21
q-27 -141 -93 -295t-153 -265q-123 -179 -180 -198t-81 -19zM1909 1221q103 0 204 2l-9 434q-5 474 -23 755l-2 14q-6 84 -22.5 138.5t-53.5 54.5q-11 0 -23 -4q-56 -17 -173 -168q-287 -383 -687 -1215l116 1q174 0 355 -7q162 -5 318 -5zM330 97q162 4 367 369q1 1 15 35
q73 169 308 666q-213 -7 -380.5 -56t-279.5 -172.5t-156 -355.5q-8 -42 -8 -137q0 -185 50 -288q29 -61 84 -61z" />
    <glyph glyph-name="Aacute" unicode="&#xc1;" horiz-adv-x="3210" 
d="M1967 2941q-36 0 -59 31q-15 21 -15 43q0 37 31 61q49 42 135 178q119 189 178 322q21 44 69 44q15 0 30 -6q45 -20 45 -67q0 -33 -85 -187q-174 -314 -284 -404q-21 -15 -45 -15zM2437 -358q-57 0 -99 50q-106 125 -154 450q-56 366 -69 1019q-95 -2 -193 -2
q-163 0 -332 6q-165 6 -325 6q-88 0 -175 -2q-188 -397 -338 -732q-221 -402 -425 -402q-147 0 -223.5 91.5t-90 189t-13.5 154.5q0 76 14 149q52 259 207 388t372.5 173t457.5 50q412 854 710 1251q104 135 189.5 182.5t137.5 47.5q45 0 84 -25q83 -52 102 -258
q19 -279 24 -768l9 -425q385 37 550 209q9 10 23 10q11 0 20.5 -8.5t9.5 -23.5q0 -11 -8 -19q-183 -192 -594 -229q10 -438 41 -799q3 -25 5 -66q5 -87 18 -200.5t43 -203t62 -97.5t39 -8q53 0 134 98q83 105 146 251t87 278q6 25 30 25q17 0 25 -12q6 -9 6 -21
q-26 -141 -92.5 -295t-153.5 -265q-122 -179 -179.5 -198t-81.5 -19zM1909 1221q103 0 204 2q-5 222 -8 434q-8 780 -48 907q-17 55 -54 55q-10 0 -22 -4q-56 -17 -173 -168q-283 -377 -688 -1215l116 1q174 0 355 -7q162 -5 318 -5zM330 97q163 4 367 369l13 27
q9 35 311 674q-213 -7 -381 -56t-279.5 -172.5t-156.5 -355.5q-8 -40 -8 -127q0 -195 50 -298q29 -61 84 -61z" />
    <glyph glyph-name="Acircumflex" unicode="&#xc2;" horiz-adv-x="3210" 
d="M1667 2805q-26 0 -49.5 19.5t-25 35.5t-1.5 18q0 27 18 50l373 444q22 24 38.5 25t20.5 1q25 0 47 -17q10 -8 16 -19q45 -75 181 -229q116 -130 184 -181q26 -19 29 -37.5t3 -24.5q0 -22 -13 -43q-19 -25 -37 -28.5t-25 -3.5q-58 0 -253 218q-78 88 -139 168l-311 -369
q-21 -24 -37.5 -25.5t-18.5 -1.5zM2437 -358q-56 0 -99 50q-103 122 -154 450q-54 347 -69 1019q-95 -2 -193 -2q-163 0 -332 6q-165 6 -325 6q-88 0 -175 -2q-188 -397 -338 -732q-221 -402 -425 -402q-146 0 -222.5 91.5t-90.5 189.5t-14 158q0 73 14 145
q52 259 207.5 388t373 173t456.5 50q416 857 710 1251q104 135 189.5 182.5t137.5 47.5q45 0 84 -25q83 -52 103 -258q18 -279 24 -768q3 -208 8 -425q385 37 550 209q9 10 24 10q11 0 20 -8.5t9 -23.5q0 -11 -8 -19q-183 -192 -594 -229q10 -438 41 -799q3 -25 5 -66
q5 -87 18 -200.5t43.5 -203t62 -97.5t38.5 -8q54 0 135 98q82 105 145 251t88 278q4 25 30 25q16 0 24 -12q6 -9 6 -21q-26 -141 -92 -295t-153 -265q-123 -179 -180.5 -198t-81.5 -19zM1910 1221q103 0 204 2l-9 434q-8 780 -48 907q-17 55 -54 55q-10 0 -22 -4
q-56 -17 -173 -168q-283 -377 -688 -1215l116 1q175 0 356 -7q162 -5 318 -5zM331 97q162 4 367 369q0 18 323 701q-213 -7 -381 -56t-279.5 -172.5t-156.5 -355.5q-8 -47 -8 -126q0 -197 50 -299q30 -61 85 -61z" />
    <glyph glyph-name="Atilde" unicode="&#xc3;" horiz-adv-x="3210" 
d="M2325 2891q-86 0 -219 57q-75 33 -116.5 37t-48.5 4q-69 0 -140 -65q-23 -20 -54 -20q-30 0 -51 23t-21 51q0 32 23 55q87 81 147 96t99 15q81 0 216 -57q94 -42 168 -42q67 0 137 59q24 19 55 19q29 -2 51 -25q19 -24 19 -54q-2 -30 -26 -52q-87 -76 -145 -88.5
t-94 -12.5zM2437 -358q-57 0 -99 50q-106 125 -154 450q-56 366 -69 1019q-96 -2 -193 -2q-163 0 -330.5 6t-326.5 6q-89 0 -175 -2q-246 -517 -321 -694l-18 -38q-155 -286 -307 -368q-63 -34 -117 -34q-147 0 -223.5 91.5t-90 189.5t-13.5 157q0 74 13 146q53 259 208 388
t372.5 173t457.5 50q412 854 710 1251q104 135 189.5 182.5t137.5 47.5q44 0 83 -25q84 -52 103 -258q18 -279 24 -768q3 -208 8 -425q386 37 551 209q9 10 23 10q11 0 20 -8.5t10 -20.5q0 -13 -8 -22q-183 -192 -594 -229q9 -438 44 -832q7 -120 20 -233.5t43 -203
t62 -97.5t39 -8q53 0 134 98q83 105 145.5 251t87.5 278q6 25 30 25q17 0 25 -12q6 -9 6 -21q-26 -141 -92.5 -295t-153.5 -265q-122 -179 -179.5 -198t-81.5 -19zM1909 1221q103 0 204 2q-5 222 -8 434q-6 474 -24 755l-2 14q-6 84 -22.5 138.5t-53.5 54.5q-11 0 -23 -4
q-55 -17 -172 -168q-287 -380 -688 -1215l116 1q174 0 355 -7q162 -5 318 -5zM330 97q162 4 367 369q2 2 16 35q72 169 308 666q-214 -7 -381.5 -56t-279 -172.5t-156.5 -355.5q-8 -42 -8 -137q0 -185 50 -288q29 -61 84 -61z" />
    <glyph glyph-name="Adieresis" unicode="&#xc4;" horiz-adv-x="3210" 
d="M2253 2950l-20 1q-92 23 -92 99q0 34 20 62q33 47 90 47q12 0 26 -2q87 -23 87 -100q0 -35 -19 -62q-29 -45 -92 -45zM2437 -358q-57 0 -99 50q-105 123 -154 450q-56 366 -69 1019q-96 -2 -193 -2q-164 0 -333 6q-165 6 -325 6q-88 0 -175 -2q-245 -517 -320 -694
l-18 -38q-218 -402 -425 -402q-146 0 -222.5 91.5t-90 189.5t-13.5 157q0 74 13 146q53 259 208 388t372.5 173t457.5 50q412 854 710 1251q104 135 189.5 182.5t137.5 47.5q44 0 83 -25q84 -52 103 -258q18 -279 24 -768q3 -208 8 -425q385 37 550 209q10 10 24 10
q11 0 20 -8.5t10 -20.5q0 -13 -8 -22q-183 -192 -594 -229q9 -438 44 -832q7 -120 20 -233.5t43 -203t61.5 -97.5t38.5 -8q54 0 135 98q82 105 145 251t88 278q6 25 30 25q17 0 25 -12q6 -9 6 -21q-26 -141 -92.5 -295t-153.5 -265q-123 -179 -180 -198t-81 -19zM1909 1221
q103 0 204 2q-8 350 -8 434q-6 474 -24 755l-2 15q-6 83 -22.5 137.5t-53.5 54.5q-11 0 -23 -4q-55 -17 -172 -168q-287 -380 -688 -1215l116 1q174 0 355 -7q162 -5 318 -5zM330 97q162 4 367 369q1 1 15 35q73 169 308 666q-213 -7 -380.5 -56t-279.5 -172.5t-156 -355.5
q-8 -42 -8 -137q0 -185 50 -288q29 -61 84 -61zM1950 2948l-20 1q-91 22 -91 98q0 37 20 63q32 47 90 47q12 0 26 -2q87 -23 87 -101q0 -34 -20 -61q-29 -45 -92 -45z" />
    <glyph glyph-name="Aring" unicode="&#xc5;" horiz-adv-x="3210" 
d="M2116 3095q49 0 68 103q-7 69 -62 72q-72 0 -88 -73v-11q0 -50 40 -77q19 -14 42 -14zM2437 -358q-57 0 -99 50q-106 125 -154 450q-54 354 -69 1019q-95 -2 -193 -2q-163 0 -332 6q-165 6 -325 6q-88 0 -175 -2q-188 -397 -338 -732q-221 -402 -425 -402
q-147 0 -223.5 91.5t-90 189t-13.5 154.5q0 76 14 149q52 259 207 388t372.5 173t457.5 50q409 848 710 1251q104 135 189.5 182.5t137.5 47.5q45 0 84 -25q83 -52 102 -258q19 -279 24 -768l9 -425q385 37 550 209q9 10 24 10q11 0 20 -8.5t9 -23.5q0 -11 -8 -19
q-183 -192 -594 -229q10 -438 41 -799q3 -25 5 -66q5 -87 18 -200.5t43 -203t62 -97.5t39 -8q53 0 134 98q83 105 146 251t88 278q4 25 29 25q17 0 25 -12q6 -9 6 -21q-26 -141 -92.5 -295t-153.5 -265q-122 -179 -179.5 -198t-81.5 -19zM1909 1221q104 0 205 2
q-6 222 -9 434q-8 780 -48 907q-17 55 -54 55q-10 0 -22 -4q-56 -17 -173 -168q-283 -377 -688 -1215l116 1q174 0 355 -7q162 -5 318 -5zM331 97q162 4 367 369q0 18 323 701q-213 -7 -381 -56t-279.5 -172.5t-156.5 -355.5q-8 -40 -8 -126q0 -196 50 -299q29 -61 85 -61z
M2113 2945q-66 0 -122 38.5t-82 92t-26 106.5q0 88 53 152q72 85 183 85q58 0 110 -29q105 -62 105 -207q-30 -185 -155 -227q-33 -11 -66 -11z" />
    <glyph glyph-name="AE" unicode="&#xc6;" horiz-adv-x="3228" 
d="M2437 -358q-56 0 -99 50q-104 122 -154 450q-54 347 -69 1019q-95 -2 -193 -2q-163 0 -332 6q-165 6 -325 6q-88 0 -175 -2q-188 -397 -338 -732q-221 -402 -425 -402q-146 0 -222.5 91.5t-90.5 189.5t-14 158q0 73 14 145q52 259 207.5 388t373 173t457.5 50
q410 851 709 1251q142 183 286 224q258 82 499 132.5t363 50.5q102 0 125 -65q2 -5 2 -10q0 -21 -20 -29q-6 -2 -11 -2q-21 0 -29 20q-9 25 -65 25q-113 0 -353 -50q-181 -38 -379 -96q77 -56 96 -253q18 -279 24 -768q3 -208 8 -425q385 37 550 209q9 10 23 10
q12 0 21 -8.5t9 -23.5q0 -11 -8 -19q-183 -192 -594 -229q10 -438 44 -832q7 -120 20 -233.5t43.5 -203t62 -97.5t38.5 -8q54 0 135 98q82 105 145 251t88 278q4 25 30 25q15 0 24 -12q6 -9 6 -21q-26 -141 -92 -295t-153 -265q-123 -179 -180.5 -198t-81.5 -19zM1909 1221
q104 0 205 2l-9 434q-8 780 -48 907q-17 55 -54 55q-10 0 -22 -4q-56 -17 -173 -168q-283 -377 -688 -1215l116 1q174 0 356 -7q162 -5 317 -5zM331 97q162 4 367 369q0 18 323 701q-213 -7 -381 -56t-279.5 -172.5t-156.5 -355.5q-8 -47 -8 -126q0 -194 50 -299
q30 -61 85 -61z" />
    <glyph glyph-name="OE" unicode="&#x152;" horiz-adv-x="2839" 
d="M746 -32q171 0 340 103q138 83 242 221q208 286 308 683q47 183 69 372q-214 -38 -219 -38q-29 0 -31 30q0 10 6.5 19.5t19.5 11.5l231 41q12 123 12 243q0 374 -101 650q-87 236 -251 352q-207 -60 -275 -139q-9 -12 -25 -12q-10 0 -20 7.5t-10 24.5q0 9 6 17
q68 82 250 142l-1 1q-83 36 -188 36q-219 0 -443 -145q-285 -184 -455 -565q-113 -257 -146 -584q-4 -48 -4 -94q0 -59 7 -115q46 238 130 451.5t196.5 371t244.5 228.5q23 11 45 11q57 0 86 -53q11 -22 11 -44q0 -58 -53 -86q-113 -61 -209.5 -210.5t-167.5 -353.5
q-117 -340 -134 -698q16 -22 34 -43q211 -246 544 -287q11 -2 16 -2q13 -2 20.5 -11t7.5 -20q0 -14 -9.5 -22t-20.5 -8l-21 1q-347 43 -572 295q0 -306 102 -510q146 -272 428 -272zM629 -157q-319 0 -483 308q-123 248 -123 615q0 145 19 297q-42 132 -42 283q0 74 6 119
q68 586 364 937q124 147 263 238q239 155 475 155q157 0 274 -73q111 32 239 57q440 83 797 83q148 0 161 -17q8 -9 8 -20q0 -14 -10 -22t-20 -8q-80 6 -141 6q-350 0 -783 -82q-98 -20 -187 -42q158 -134 241 -373q99 -283 99 -644q0 -118 -11 -239q775 135 778 135
q28 0 31 -30q0 -25 -26 -31l-790 -137q-22 -202 -72 -398q-103 -409 -319 -705q-69 -93 -162 -172q183 48 394 80q318 47 489.5 54t230.5 7q247 0 247 -49q0 -6 -3 -12q-6 -20 -27 -20q-6 0 -12 2q-57 19 -200 19q-299 0 -716 -62q-331 -50 -564 -133q-69 -41 -142 -69
q-16 -13 -28 -13h-5q-126 -44 -250 -44z" />
    <glyph glyph-name="Ccedilla" unicode="&#xc7;" horiz-adv-x="2048" 
d="M628 -435q-133 33 -254 130q-166 136 -262 358q-112 259 -112 593q0 512 262 1053q150 309 397 615q217 268 446 393q139 72 236 72q34 0 63 -9q111 -36 162.5 -159t59 -244t7.5 -199q0 -196 -35 -436q-4 -26 -30 -26q-16 0 -23.5 10t-7.5 20v5q35 234 35 420
q0 164 -35 276q-34 105 -87.5 128t-84.5 23q-70 0 -169 -52.5t-199 -144t-188 -200.5q-344 -430 -480 -826t-136 -715q0 -297 97 -521q78 -179 206 -284q170 -135 273.5 -144t133.5 -9q146 0 289 60q173 71 331.5 196t292.5 269.5t233 275.5q10 12 24 12q10 0 20 -7
t10.5 -14.5t0.5 -10.5q0 -9 -6 -17q-257 -340 -588 -600q-393 -309 -737 -309q-17 0 -34 1q12 -19 12 -44q-4 -44 -4 -52q61 -54 86 -139q9 -32 9 -63q0 -71 -44 -118q-44 -51 -135 -51q-17 0 -36 2q-31 4 -50 28q-15 20 -15 46q0 38 28 59q20 16 47 16h8q15 -2 26 -2
q16 0 18.5 3.5t2.5 17.5q0 11 -4 24q-13 53 -35 63q-31 11 -45 42q-9 25 -9 61q0 35 2 60q0 39 23 60z" />
    <glyph glyph-name="Egrave" unicode="&#xc8;" horiz-adv-x="2154" 
d="M688 -428q-49 0 -98 5q-213 23 -383 195q-106 112 -159 264q-48 137 -48 297v25q13 330 160 568t378.5 414t500.5 318q-111 -7 -205 -7q-381 0 -533 130q-94 80 -94 195q0 122 119 265q137 160 344 291q143 90 321 153.5t341 63.5q171 0 277.5 -103t106.5 -340v-9
q-2 -31 -31 -31q-13 1 -21.5 10t-8.5 22v5q0 152 -64 220t-122 70t-69 2q-185 0 -438 -123q-310 -152 -482 -345q-126 -139 -126 -232q0 -41 25 -76q45 -59 197 -88q101 -19 247 -19q158 0 369 22h3q11 0 20.5 -7.5t9.5 -21.5q0 -21 -17 -30q-240 -115 -468.5 -319.5
t-380.5 -464t-165 -539.5v-25q0 -260 153 -421q163 -165 288 -183.5t182 -18.5q141 0 288 50q206 69 403 196.5t365 273.5t286 272q9 9 21 9t22 -8q9 -10 10 -22q0 -12 -9 -22q-126 -134 -312.5 -293.5t-407.5 -302t-424.5 -214t-370.5 -71.5zM1153 2995q-19 0 -37 10
q-59 36 -177 222q-138 220 -192 342q-6 16 -6 31q0 47 44 68q16 6 31 6q46 0 68 -44q57 -127 181 -322q99 -156 126 -173q37 -23 37 -64q0 -20 -10 -39q-23 -37 -65 -37z" />
    <glyph glyph-name="Eacute" unicode="&#xc9;" horiz-adv-x="2154" 
d="M688 -428q-49 0 -98 5q-213 23 -383 195q-106 112 -159 264q-48 137 -48 297v25q13 330 160 568t378.5 414t500.5 318q-111 -7 -205 -7q-381 0 -533 130q-94 80 -94 195q0 122 119 265q137 160 344 291q143 90 321 153.5t341 63.5q171 0 277.5 -103t106.5 -340v-9
q-2 -31 -31 -31q-13 1 -21.5 10t-8.5 22v5q0 152 -64 220t-122 70t-69 2q-185 0 -438 -123q-310 -152 -482 -345q-126 -139 -126 -232q0 -41 25 -76q45 -59 197 -88q101 -19 247 -19q158 0 369 22h3q11 0 20.5 -7.5t9.5 -21.5q0 -21 -17 -30q-240 -115 -468.5 -319.5
t-380.5 -464t-165 -539.5v-25q0 -260 153 -421q163 -165 288 -183.5t182 -18.5q141 0 288 50q206 69 403 196.5t365 273.5t286 272q9 9 21 9t22 -8q9 -10 10 -22q0 -12 -9 -22q-126 -134 -312.5 -293.5t-407.5 -302t-424.5 -214t-370.5 -71.5zM914 2996q-37 0 -60 31
q-15 21 -15 43q0 37 31 61q49 42 135 178q119 189 178 322q21 44 69 44q15 0 30 -6q45 -20 45 -67q0 -33 -85 -187q-174 -314 -284 -404q-21 -15 -44 -15z" />
    <glyph glyph-name="Ecircumflex" unicode="&#xca;" horiz-adv-x="2154" 
d="M688 -428q-49 0 -98 5q-213 23 -383 195q-106 112 -159 264q-48 137 -48 297v25q13 330 160 568t378.5 414t500.5 318q-111 -7 -205 -7q-381 0 -533 130q-94 80 -94 195q0 122 119 265q137 160 344 291q143 90 321 153.5t341 63.5q171 0 277.5 -103t106.5 -340v-9
q-2 -31 -31 -31q-13 1 -21.5 10t-8.5 22v5q0 152 -64 220t-122 70t-69 2q-185 0 -438 -123q-310 -152 -482 -345q-126 -139 -126 -232q0 -41 25 -76q45 -59 197 -88q101 -19 247 -19q158 0 369 22h3q11 0 20.5 -7.5t9.5 -21.5q0 -21 -17 -30q-240 -115 -468.5 -319.5
t-380.5 -464t-165 -539.5v-25q0 -260 153 -421q163 -165 288 -183.5t182 -18.5q141 0 288 50q206 69 403 196.5t365 273.5t286 272q9 9 21 9t22 -8q9 -10 10 -22q0 -12 -9 -22q-126 -134 -312.5 -293.5t-407.5 -302t-424.5 -214t-370.5 -71.5zM855 2950q-26 0 -49.5 19.5
t-25 35.5t-1.5 18q0 27 18 50l373 444q22 24 38.5 25t20.5 1q26 0 47 -17q10 -8 16 -19q46 -75 181 -229q116 -130 184 -181q26 -19 29.5 -37.5t3.5 -24.5q0 -22 -14 -43q-19 -25 -37 -28.5t-24 -3.5q-59 0 -254 218q-78 88 -139 168l-311 -369q-21 -24 -37 -25.5t-19 -1.5z
" />
    <glyph glyph-name="Edieresis" unicode="&#xcb;" horiz-adv-x="2154" 
d="M688 -428q-49 0 -98 5q-213 23 -383 195q-106 112 -159 264q-48 137 -48 297v25q13 330 160 568t378.5 414t500.5 318q-111 -7 -205 -7q-381 0 -533 130q-94 80 -94 195q0 122 119 265q137 160 344 291q143 90 321 153.5t341 63.5q171 0 277.5 -103t106.5 -340v-9
q-2 -31 -31 -31q-13 1 -21.5 10t-8.5 22v5q0 152 -64 220t-122 70t-69 2q-185 0 -438 -123q-310 -152 -482 -345q-126 -139 -126 -232q0 -41 25 -76q45 -59 197 -88q101 -19 247 -19q158 0 369 22h3q11 0 20.5 -7.5t9.5 -21.5q0 -21 -17 -30q-240 -115 -468.5 -319.5
t-380.5 -464t-165 -539.5v-25q0 -260 153 -421q163 -165 288 -183.5t182 -18.5q141 0 288 50q206 69 403 196.5t365 273.5t286 272q9 9 21 9t22 -8q9 -10 10 -22q0 -12 -9 -22q-126 -134 -312.5 -293.5t-407.5 -302t-424.5 -214t-370.5 -71.5zM1423 3019l-21 1
q-92 23 -92 99q0 34 21 62q33 47 90 47q12 0 26 -2q87 -23 87 -100q0 -35 -19 -62q-30 -45 -92 -45zM1120 3017l-21 1q-91 22 -91 98q0 37 21 63q32 47 90 47q12 0 26 -2q87 -23 87 -101q0 -34 -20 -61q-29 -45 -92 -45z" />
    <glyph glyph-name="Igrave" unicode="&#xcc;" horiz-adv-x="968" 
d="M523 -574q-44 0 -73 33q-23 28 -23 63v9q57 627 113 1394q54 742 114 1396q6 67 6 121q0 62 -8 107q-22 111 -50 123.5t-42 12.5q-67 0 -177 -138q-123 -149 -215.5 -398t-105.5 -562q-1 -13 -10 -21.5t-22 -8.5q-13 1 -21.5 10t-8.5 22q14 324 111 583q142 380 356 538
q107 79 196 79q50 0 93 -31q60 -44 86 -175q11 -62 11 -145q0 -62 -6 -135q-57 -627 -113 -1393q-54 -743 -114 -1397q-5 -41 -33.5 -64t-63.5 -23zM808 3061q-19 0 -37 10q-60 36 -177 222q-138 220 -192 342q-7 16 -7 31q0 47 45 68q15 6 30 6q46 0 69 -44
q57 -127 181 -322q99 -156 126 -173q37 -23 37 -64q0 -20 -10 -39q-24 -37 -65 -37z" />
    <glyph glyph-name="Iacute" unicode="&#xcd;" horiz-adv-x="968" 
d="M523 -574q-44 0 -73 33q-23 28 -23 63v9q57 627 113 1394q54 742 114 1396q6 67 6 121q0 62 -8 107q-22 111 -50 123.5t-42 12.5q-67 0 -177 -138q-123 -149 -215.5 -398t-105.5 -562q-1 -13 -10 -21.5t-22 -8.5q-13 1 -21.5 10t-8.5 22q14 324 111 583q142 380 356 538
q107 79 196 79q50 0 93 -31q60 -44 86 -175q11 -62 11 -145q0 -62 -6 -135q-57 -627 -113 -1393q-54 -743 -114 -1397q-5 -41 -33.5 -64t-63.5 -23zM503 3026q-36 0 -59 31q-15 21 -15 43q0 37 31 61q49 42 135 178q119 189 178 322q21 44 69 44q15 0 30 -6q44 -20 44 -67
q0 -33 -85 -187q-173 -314 -283 -404q-21 -15 -45 -15z" />
    <glyph glyph-name="Icircumflex" unicode="&#xce;" horiz-adv-x="968" 
d="M523 -574q-44 0 -73 33q-23 28 -23 63v9q57 627 113 1394q54 742 114 1396q6 67 6 121q0 62 -8 107q-22 111 -50 123.5t-42 12.5q-67 0 -177 -138q-123 -149 -215.5 -398t-105.5 -562q-1 -13 -10 -21.5t-22 -8.5q-13 1 -21.5 10t-8.5 22q14 324 111 583q142 380 356 538
q107 79 196 79q50 0 93 -31q60 -44 86 -175q11 -62 11 -145q0 -62 -6 -135q-57 -627 -113 -1393q-54 -743 -114 -1397q-5 -41 -33.5 -64t-63.5 -23zM302 2915q-26 0 -49.5 19.5t-25 35.5t-1.5 18q0 27 18 50l373 444q22 24 38.5 25t20.5 1q25 0 47 -17q10 -8 16 -19
q46 -75 181 -229q116 -130 184 -181q26 -19 29 -37.5t3 -24.5q0 -22 -13 -43q-19 -25 -37 -28.5t-24 -3.5q-59 0 -254 218q-78 88 -139 168l-311 -369q-21 -24 -37.5 -25.5t-18.5 -1.5z" />
    <glyph glyph-name="Idieresis" unicode="&#xcf;" horiz-adv-x="968" 
d="M523 -574q-44 0 -73 33q-23 28 -23 63v9q57 627 113 1394q54 742 114 1396q6 67 6 121q0 62 -8 107q-22 111 -50 123.5t-42 12.5q-67 0 -177 -138q-123 -149 -215.5 -398t-105.5 -562q-1 -13 -10 -21.5t-22 -8.5q-13 1 -21.5 10t-8.5 22q14 324 111 583q142 380 356 538
q107 79 196 79q50 0 93 -31q60 -44 86 -175q11 -62 11 -145q0 -62 -6 -135q-57 -627 -113 -1393q-54 -743 -114 -1397q-5 -41 -33.5 -64t-63.5 -23zM835 3001l-21 1q-92 23 -92 99q0 34 21 62q32 47 90 47q12 0 26 -2q86 -23 86 -100q0 -35 -18 -62q-30 -45 -92 -45z
M532 2999l-21 1q-91 22 -91 98q0 37 21 63q32 47 89 47q13 0 27 -2q86 -23 86 -101q0 -34 -19 -61q-29 -45 -92 -45z" />
    <glyph glyph-name="Eth" unicode="&#xd0;" horiz-adv-x="2126" 
d="M506 1111q-24 -302 -52 -666q133 37 259 37q193 0 310 -89q11 -9 11 -26q0 -9 -7 -18t-14 -10t-9 -1q-10 0 -19 7q-64 48 -137.5 61.5t-137.5 13.5q-127 0 -261 -40l-20 -260q-4 -41 -32.5 -65.5t-65.5 -24.5q-43 0 -71 32q-24 29 -24 66q0 15 12 163l-9 -6
q-178 -135 -178 -252q0 -34 16 -63q42 -76 135 -113t171.5 -41.5t117.5 -4.5q190 0 324 48q398 154 689 590q242 354 349.5 673t107.5 586q0 278 -96 487q-89 195 -240 299q-195 132 -288 132h-96q-182 0 -348 -95t-308 -251q-24 -316 -75 -977q78 -1 148 -1q139 0 165 10
q15 8 29 8q48 0 69 -59q6 -19 6 -38q0 -61 -46 -87q-46 -21 -160.5 -23t-197.5 -2h-27zM325 1305q56 709 100 1307q4 41 32.5 65.5t65.5 24.5q43 0 72 -32q24 -28 24 -65q0 -8 -17 -229q148 149 340.5 259t310 120t142.5 10q181 0 350 -112q195 -134 307 -378.5t112 -566.5
q0 -295 -114 -639q-116 -350 -376 -730q-339 -476 -819 -597q-113 -27 -258 -27q-251 0 -424 87q-102 50 -150 140q-23 43 -23 92q0 146 203 301q22 16 50 32l42 537l9 127q3 42 7 83q-147 2 -273 2l-31 -1q-18 -11 -36 -11q-43 0 -65 51q-9 22 -9 44q0 55 39 85
q32 18 121.5 20t158.5 2z" />
    </font>
</defs>
</svg>
